<svg width="88" height="62" viewBox="0 0 88 62" fill="none" xmlns="http://www.w3.org/2000/svg">
<g clip-path="url(#clip0_10513_50722)">
<ellipse cx="43.5" cy="56.9167" rx="37.5" ry="8.85417" fill="#527853"/>
<path d="M45.7625 20.356C45.7475 20.1918 45.6692 20.0687 45.5049 20.0239C45.3333 19.9754 45.1915 20.0239 45.072 20.1583C44.9638 20.2814 44.9004 20.427 44.8593 20.5837C44.7623 20.9457 44.7362 21.3152 44.7287 21.6846C44.7212 21.9347 44.7362 22.1884 44.7026 22.4347C44.6205 23.0617 44.5906 23.6961 44.5757 24.3231C44.5608 24.9575 44.4861 25.5808 44.4376 26.2115C44.4264 26.3608 44.3704 26.3981 44.2323 26.3832C43.8927 26.3458 43.5531 26.316 43.2135 26.2936C43.0904 26.2861 43.0605 26.2227 43.0642 26.1182C43.0717 25.9689 43.0792 25.8196 43.0829 25.6666C43.1202 24.5956 43.165 23.5207 43.1949 22.4497C43.2135 21.819 43.221 21.1845 43.2285 20.5538C43.2322 20.3635 43.2098 20.1732 43.1464 19.9903C43.0792 19.8 42.9598 19.7141 42.7955 19.7141C42.4186 19.7141 42.1984 19.8858 42.1089 20.2553C42.0865 20.3411 42.079 20.4344 42.0641 20.524C42.0081 20.8113 42.0492 21.1062 42.0417 21.3935C42.0193 22.1437 41.9932 22.8975 42.0006 23.6476C42.0081 24.409 42.0454 25.1703 42.0678 25.9316C42.079 26.2824 42.0715 26.2861 41.7058 26.2787C41.2654 26.2675 40.8251 26.2376 40.3847 26.2264C40.1869 26.2227 39.9854 26.2451 39.7839 26.26C39.6532 26.2712 39.5749 26.2376 39.5674 26.0883C39.5599 25.8681 39.5264 25.648 39.5264 25.4278C39.5413 24.0843 39.5338 22.7408 39.5152 21.3973C39.5152 21.2853 39.5114 21.1771 39.5264 21.0651C39.5637 20.774 39.5301 20.4829 39.504 20.1956C39.4816 19.9455 39.336 19.7664 39.1196 19.6582C38.7874 19.4865 38.4254 19.6544 38.362 20.0164C38.2911 20.4195 38.2164 20.83 38.2015 21.2368C38.1567 22.4012 38.153 23.5618 38.2239 24.7262C38.25 25.1479 38.2538 25.5696 38.2575 25.9876C38.2612 26.2525 38.25 26.2525 38 26.2563C37.7611 26.26 37.5186 26.2563 37.276 26.2563C36.97 26.2563 36.9588 26.2563 36.9252 25.9652C36.858 25.3494 36.7946 24.7299 36.7423 24.1104C36.6639 23.1998 36.6938 22.2855 36.6527 21.3749C36.6378 21.0054 36.6453 20.6322 36.5594 20.2665C36.5072 20.0426 36.4064 19.9418 36.231 19.9269C36.0594 19.9119 35.925 19.9978 35.8317 20.1881C35.7571 20.3449 35.716 20.5091 35.7048 20.6807C35.6377 21.7219 35.5593 22.7632 35.6041 23.8044C35.6302 24.3866 35.6526 24.965 35.6489 25.5472C35.6489 25.9801 35.6899 26.4093 35.772 26.831C35.8392 27.1743 35.9997 27.4878 36.3729 27.5886C36.8655 27.7229 37.3581 27.8685 37.8768 27.8722C38.5075 27.8759 39.1382 27.9357 39.7652 28.0103C39.9107 28.029 40.0526 28.0476 40.1944 28.07C40.1011 30.7197 40.0488 33.3433 40.0339 36.0116C39.5338 35.7093 39.0711 35.6757 38.668 36.131C38.403 35.9668 38.153 35.8213 37.9104 35.6571C36.4139 34.6532 35.2383 33.3321 34.1785 31.8953C34.1374 31.8393 34.1076 31.7758 34.0628 31.7199C33.9956 31.6378 33.9993 31.5631 34.059 31.4773C34.1374 31.3616 34.1934 31.2347 34.212 31.0892C34.2531 30.7346 34.1076 30.4622 33.8389 30.2495C33.7493 30.1786 33.6784 30.1188 33.7232 29.9808C33.9359 29.2978 33.5739 28.7418 32.932 28.6746C32.82 28.6634 32.7864 28.6111 32.7827 28.4992C32.7566 27.708 32.626 26.9243 32.611 26.1331C32.5961 25.2897 32.5551 24.45 32.5774 23.6066C32.5849 23.3379 32.5774 23.0654 32.5513 22.7967C32.5252 22.5355 32.5215 22.278 32.5252 22.0168C32.5289 21.6548 32.5924 21.2965 32.5551 20.9345C32.4767 20.1545 32.4207 19.3783 32.4618 18.5908C32.4767 18.2997 32.4692 18.0086 32.4506 17.7176C32.3685 16.4785 32.2752 15.2433 32.1856 14.0005C32.2341 13.9595 32.2976 13.9669 32.3535 13.9632C33.1559 13.9259 33.9583 13.896 34.7569 13.8475C35.2757 13.8139 35.7981 13.7841 36.3094 13.6721C36.6639 13.5937 37.0036 13.4706 37.2648 13.1982C37.526 12.922 37.526 12.6496 37.2499 12.3846C37.0894 12.2316 36.914 12.101 36.7125 12.0002C36.1788 11.7352 35.6153 11.5524 35.0331 11.4479C34.0852 11.2799 33.1447 11.0672 32.1819 11.0262C32.0139 11.0187 31.9953 10.9814 32.0774 10.8246C32.152 10.6791 32.208 10.5335 32.2192 10.3693C32.249 9.91776 32.2789 9.46993 32.3125 9.01836C32.3871 7.9249 32.3871 6.83517 32.264 5.74544C32.2266 5.40583 32.1893 5.06995 32.0923 4.74154C32.0326 4.53628 31.9468 4.34595 31.8012 4.18921C31.6221 3.99515 31.4205 3.95036 31.1742 4.05486C30.9541 4.14816 30.7936 4.31236 30.648 4.49523C30.439 4.76393 30.2636 5.05876 30.0994 5.35731C29.98 5.57377 29.8643 5.79395 29.7486 6.01414C27.3452 4.8535 25.08 4.91694 22.9863 6.74933C22.7923 6.24179 22.546 5.80888 22.2847 5.38344C22.1429 5.15205 21.9862 4.93187 21.7921 4.74154C21.5533 4.50643 21.3107 4.52882 21.098 4.79006C20.9748 4.93933 20.9002 5.11474 20.8479 5.2976C20.6352 6.04399 20.512 6.80158 20.4896 7.57783C20.4635 8.60038 20.4784 9.62294 20.6576 10.6343C20.7136 10.959 20.8218 11.2687 20.9151 11.5934C20.7919 11.627 20.6874 11.6569 20.5829 11.6867C19.6425 11.933 18.7132 12.2129 17.8138 12.5861C17.4705 12.7279 17.1346 12.8884 16.8361 13.1123C16.4703 13.3848 16.4405 13.7878 16.7502 14.1237C16.8771 14.258 17.0301 14.3476 17.2018 14.411C17.5713 14.5491 17.9594 14.6051 18.3475 14.635C19.079 14.6909 19.8104 14.7133 20.5419 14.6909C20.8031 14.6835 20.7919 14.6648 20.7957 14.9223C20.8069 15.6762 20.8218 16.4263 20.8367 17.1764C20.8404 17.307 20.8442 17.4377 20.8591 17.5683C20.9263 18.1467 20.9375 18.7289 20.9599 19.3074C20.986 20.1097 20.9599 20.9121 21.0308 21.7107C21.0756 22.1884 21.1091 22.6699 21.083 23.155C21.0606 23.5394 21.0905 23.9163 21.1801 24.2895C21.2398 24.5358 21.2622 24.7784 21.2136 25.0322C21.1577 25.3195 21.1539 25.6144 21.2174 25.9017C21.2734 26.1518 21.2845 26.4055 21.2435 26.6481C21.1465 27.2303 21.1801 27.8088 21.236 28.3872C21.2435 28.4656 21.2435 28.5477 21.2547 28.6261C21.2696 28.7268 21.2435 28.7865 21.1427 28.8388C20.5382 29.156 20.3441 29.6785 20.4374 30.3241C20.4561 30.4473 20.4374 30.5294 20.3553 30.6189C20.0418 30.9735 19.9709 31.3802 20.1202 31.8244C20.1575 31.9326 20.1388 32.0035 20.0791 32.0968C19.7992 32.5222 19.5604 32.9775 19.329 33.4328C18.814 34.4516 18.2729 35.4593 17.6869 36.4408C16.7838 37.9485 16.0076 39.5196 15.2612 41.1057C14.9402 41.7887 14.6939 42.4977 14.5372 43.2367C14.4364 43.7069 14.358 44.1809 14.2498 44.6511C14.0184 45.6214 14.0744 46.5805 14.3394 47.5359C14.4513 47.9315 14.6006 48.3159 14.8059 48.6741C15.0037 49.0249 15.1529 49.0399 15.4216 48.7488C15.5373 48.6256 15.6418 48.4913 15.7463 48.3532C15.8993 48.1479 16.0934 48.0733 16.3472 48.1031C16.6569 48.1405 16.9629 48.2039 17.254 48.3084C17.8288 48.5099 18.3176 48.383 18.7468 47.9688C18.8028 47.9128 18.87 47.8643 18.9222 47.8046C19.2208 47.4575 19.6201 47.3791 20.053 47.3493C20.0679 47.6292 20.0754 47.8904 20.0903 48.1479C20.1426 49.0809 20.2732 50.0027 20.3628 50.932C20.4374 51.029 20.4225 51.141 20.4225 51.2492C20.4299 51.9135 20.5419 52.5628 20.6874 53.2047C20.7695 53.5667 20.8479 53.9287 20.8964 54.2945C21.0382 55.373 21.2957 56.4217 21.766 57.4032C21.9451 57.7726 22.0123 58.0936 21.8891 58.5041C21.7249 59.0527 22.0085 59.4558 22.5683 59.6162C22.7699 59.6759 22.9789 59.7058 23.1878 59.7207C23.8074 59.773 24.4045 59.6349 24.9978 59.4968C25.5576 59.3662 25.7741 58.9519 25.6845 58.3772C25.6248 58.004 25.595 57.6196 25.6174 57.2427C25.636 56.9441 25.6472 56.6419 25.6509 56.3433C25.6547 55.6417 25.7256 54.9438 25.845 54.2534C25.957 53.604 26.0876 52.9547 26.3078 52.3314C26.3414 52.2381 26.3525 52.1187 26.4645 52.0963C26.6996 52.0516 26.9198 51.9433 27.1661 51.962C27.2631 52.0329 27.3751 52.003 27.4796 52.0142C27.7184 52.0441 27.961 52.0441 28.1887 52.1374C28.2596 52.5218 28.3603 52.8987 28.4835 53.2682C28.5693 53.5369 28.6104 53.8093 28.6216 54.0929C28.629 54.3318 28.6664 54.5706 28.7111 54.8057C28.8343 55.4439 28.9798 56.0746 29.047 56.724C29.1067 57.28 29.1814 57.8361 29.3306 58.3772C29.409 58.6609 29.5732 58.8549 29.8307 58.9781C30.2151 59.1609 30.6219 59.2654 31.0473 59.2841C31.7788 59.3177 32.4132 59.0303 33.0104 58.6385C33.0663 58.6011 33.1149 58.5452 33.1634 58.4929C33.4283 58.1869 33.4321 57.8585 33.1634 57.5525C33.0999 57.4778 33.0589 57.4181 33.0887 57.3136C33.1223 57.1979 33.126 57.0785 33.1522 56.9591C33.35 56.0186 33.4694 55.067 33.6112 54.1191C33.6821 53.6339 33.6896 53.1413 33.7978 52.6636C33.7978 52.63 33.7978 52.5927 33.7978 52.5591C33.8426 52.4807 33.7941 52.3912 33.8389 52.3128C34.0292 50.7603 34.1523 49.2003 34.2494 47.6367C34.3203 46.5133 34.2531 45.39 34.1299 44.2742C34.0441 43.5166 34.0143 42.7553 33.921 41.9977C33.7717 40.8034 33.6299 39.6092 33.3985 38.4262C33.3462 38.1649 33.294 37.9 33.294 37.579C34.2382 38.3478 35.2085 38.9822 36.3617 39.2995C37.4962 39.6129 38.6381 39.8593 39.8062 39.7995C39.8772 39.8481 39.8622 39.9003 39.8585 39.9488C39.7055 41.9006 39.7764 43.8599 39.7391 45.8117C39.7055 47.6777 39.6682 49.5437 39.6085 51.4059C39.5898 51.9844 39.5935 52.5703 39.504 53.145C39.4853 54.2161 39.4666 55.2872 39.4517 56.362C39.4443 56.8434 39.4741 57.3285 39.4293 57.8025C39.4069 58.0563 39.4443 58.2727 39.5413 58.4929C39.642 58.7206 39.8062 58.8661 40.0712 58.8698C40.2354 58.8698 40.6459 58.5974 40.6982 58.4519C40.7094 58.4257 40.7131 58.3921 40.7094 58.3623C40.6907 57.8995 40.7616 57.4405 40.7616 56.9815C40.7579 55.7872 40.8213 54.5967 40.8325 53.4063C40.8325 53.3577 40.8437 53.3055 40.8475 53.257C40.8437 53.1562 40.8363 53.0555 40.8437 52.9584C40.8811 52.1187 40.952 51.2753 40.9445 50.4356C40.9258 48.5584 40.9967 46.685 41.0303 44.8116C41.0602 43.0762 41.1012 41.3408 41.1311 39.6092C41.1348 39.4823 41.1759 39.4114 41.2654 39.333C41.452 39.1726 41.6051 38.9785 41.6125 38.7247C41.6237 38.4225 41.6872 38.1314 41.7245 37.8328C41.773 37.4335 41.6685 37.0939 41.3513 36.8401C41.1945 36.7169 41.1386 36.5789 41.1423 36.3811C41.1609 35.0861 41.1498 33.7948 41.1833 32.4998C41.2169 31.0854 41.2393 29.671 41.258 28.2566C41.2617 28.1148 41.2953 28.0588 41.4446 28.0663C42.4634 28.1111 43.4822 27.9655 44.5048 28.0401C44.5757 28.0439 44.6466 28.0439 44.7138 28.0401C45.1392 28.0103 45.4191 27.7752 45.5348 27.3721C45.6692 26.9056 45.7065 26.4279 45.7139 25.9465C45.7214 25.286 45.7139 24.6217 45.7363 23.9611C45.7662 23.058 45.8483 22.1586 45.8408 21.2554C45.8296 20.9718 45.7923 20.6658 45.7625 20.356Z" fill="#010001"/>
<path d="M71.1333 52.4622C71.0438 52.6637 71.0736 52.8764 71.0774 53.0817C71.1035 54.1528 71.0326 55.2238 70.999 56.2949C70.9878 56.7129 70.9878 57.1346 70.9169 57.5526C70.8758 57.784 70.8124 57.8661 70.5736 57.881C70.3235 57.8959 70.0772 57.9332 69.8272 57.937C69.4166 57.9407 69.0061 57.9706 68.5956 57.9892C68.2747 58.0004 67.9575 57.9407 67.6365 57.9407C66.1139 57.9482 64.5912 57.9482 63.0686 57.9444C62.6879 57.9444 62.311 58.0153 61.9303 57.9482C61.5534 57.881 61.1765 57.9146 60.7958 57.9258C60.3032 57.937 59.8143 57.9034 59.3254 57.8922C58.7731 57.8773 58.2245 57.9146 57.6722 57.9146C56.2205 57.9109 54.7687 57.8549 53.3133 57.8735C52.9326 57.8773 52.5519 57.8773 52.1713 57.8773C52.0705 57.8773 51.9698 57.8661 51.8727 57.8437C51.604 57.7802 51.507 57.6496 51.507 57.3772C51.5107 56.3845 51.5182 55.3918 51.5219 54.3991C51.5219 54.2909 51.5107 54.1789 51.5033 54.0707C51.5107 54.0222 51.5294 53.9736 51.5294 53.9251C51.548 52.6936 51.5667 51.4583 51.5854 50.2268C51.5854 50.1857 51.5816 50.1484 51.5779 50.0961C51.4585 50.0812 51.3614 50.1409 51.2569 50.1521C50.9696 50.1782 50.839 50.0402 50.8464 49.7565C50.8614 49.2751 50.8763 48.7937 50.8987 48.316C50.9397 47.3196 51.0927 46.3493 51.4995 45.4237C51.8018 44.737 52.0668 44.0317 52.3467 43.3376C52.3989 43.2069 52.4773 43.0987 52.5706 42.9905C52.7684 42.7628 52.9475 42.5203 53.1267 42.2814C53.6305 41.6059 54.1268 40.9267 54.7015 40.3072C54.7724 40.2326 54.8322 40.1579 54.9404 40.143C55.3696 40.0833 55.7763 39.9527 56.1794 39.7959C56.3399 39.7325 56.5115 39.7213 56.6832 39.7213C57.0825 39.7138 57.4856 39.7026 57.8849 39.7026C60.6727 39.7026 63.4604 39.7064 66.2482 39.7101C66.6811 39.7101 67.1103 39.7101 67.5432 39.6989C67.7037 39.6952 67.8306 39.7512 67.95 39.8556C68.6068 40.4453 69.2077 41.0909 69.8122 41.7366C70.0847 42.0276 70.2451 42.3859 70.4094 42.7367C70.6818 43.3264 70.9356 43.9272 71.1893 44.5281C71.3685 44.9572 71.4468 45.4125 71.4953 45.8716C71.5849 46.7598 71.6558 47.648 71.6969 48.5399C71.7081 48.79 71.7678 49.0363 71.7267 49.29C71.6745 49.611 71.6782 49.6222 71.3535 49.6856C71.2378 49.708 71.249 49.7752 71.2453 49.8573C71.208 50.7194 71.1707 51.5889 71.1333 52.4622Z" fill="#010001"/>
<path d="M20.8179 32.6563C21.0083 32.7571 21.1911 32.8616 21.3777 32.9511C21.9786 33.2348 22.6167 33.4027 23.2736 33.5147C23.9976 33.6415 24.7216 33.7124 25.4568 33.6975C25.5277 33.6975 25.5986 33.6975 25.6658 33.6975C25.8262 33.6938 25.9867 33.649 26.1397 33.6453C26.2965 33.6415 26.3524 33.8617 26.498 33.9364C26.9384 34.1789 27.3675 34.123 27.7818 33.8767C27.9087 33.802 28.0132 33.7647 28.1662 33.7796C28.5356 33.8132 28.9051 33.7684 29.2746 33.7386C30.5173 33.6378 31.6481 33.1974 32.7565 32.6675C32.9767 32.563 33.1707 32.4212 33.3461 32.257C33.4469 32.1637 33.5514 32.0704 33.6708 31.9622C33.7902 32.1488 33.8873 32.3204 34.0029 32.4809C34.8314 33.6303 35.7308 34.7201 36.8392 35.6195C37.2833 35.9815 37.7648 36.2912 38.2611 36.5711C38.3955 36.6458 38.5335 36.6943 38.6903 36.6943C38.8134 36.6943 38.9067 36.6719 38.9963 36.5562C39.2277 36.2614 39.3732 36.2539 39.7315 36.4741C39.6009 36.5674 39.4553 36.642 39.3844 36.7913C39.2501 37.0675 39.209 37.3511 39.3844 37.6235C39.4628 37.7467 39.5001 37.8549 39.4815 38.0117C39.4479 38.2766 39.5636 38.5005 39.78 38.6648C39.8808 38.7394 39.9965 38.7879 40.1084 38.6871C40.2092 38.5938 40.1793 38.4819 40.1196 38.3849C40.0189 38.2132 39.9703 38.0415 40.0301 37.84C40.0674 37.7168 40.0077 37.6011 39.933 37.5041C39.8435 37.3884 39.8211 37.2615 39.8957 37.1384C39.9815 36.9966 40.1196 36.9891 40.2689 37.0264C40.3659 37.0488 40.4704 37.0488 40.5675 37.0712C40.8884 37.1496 41.0825 37.4407 41.0377 37.7728C41.019 37.9221 40.9929 38.0714 40.9332 38.2095C40.8959 38.2916 40.8585 38.3811 40.8735 38.4707C40.9145 38.6871 40.7876 38.773 40.6234 38.8551C40.1569 39.0902 39.6457 39.0977 39.1493 39.0715C37.7983 39.0006 36.481 38.7431 35.2569 38.1385C34.5366 37.784 33.8649 37.3399 33.2454 36.8286C33.1371 36.7391 33.0774 36.642 33.0476 36.5077C33.0065 36.3211 32.9468 36.1419 32.8946 35.9591C32.8759 35.9031 32.8535 35.8434 32.8274 35.7911C32.7826 35.7053 32.7117 35.6531 32.6109 35.6643C32.4878 35.6792 32.4393 35.765 32.4318 35.8733C32.4243 35.9815 32.4281 36.0934 32.443 36.2017C32.693 38.049 32.9207 39.9 33.2118 41.7436C33.3797 42.8072 33.4879 43.8708 33.5551 44.9419C33.6484 46.3339 33.5738 47.7297 33.4655 49.1217C33.3909 50.0808 33.3424 51.0437 33.1931 51.9953C32.9505 53.5403 32.8125 55.1003 32.5475 56.6416C32.5176 56.8207 32.5064 56.9999 32.4878 57.179C32.4728 57.332 32.484 57.4813 32.5885 57.6044C32.6968 57.7276 32.6482 57.8918 32.708 58.0299C32.7415 58.112 32.6333 58.1605 32.5661 58.1978C32.0138 58.4814 31.4466 58.6904 30.8047 58.5449C30.5882 58.4964 30.3718 58.4665 30.1516 58.4367C29.9538 58.4068 29.8232 58.321 29.797 58.1008C29.7373 57.6231 29.6478 57.1491 29.603 56.6714C29.5433 56.0109 29.4238 55.3615 29.3193 54.7084C29.2969 54.5592 29.2708 54.4099 29.2634 54.2606C29.2111 53.4918 28.9648 52.7715 28.726 52.0476C28.6252 51.7415 28.4349 51.5587 28.099 51.4728C27.4011 51.2974 26.748 51.428 26.1024 51.6781C25.9531 51.7378 25.8673 51.8423 25.815 51.999C25.468 53.0104 25.2552 54.0479 25.1246 55.104C25.0425 55.772 25.0574 56.4475 25.0089 57.1155C24.9828 57.4365 25.0015 57.7574 25.05 58.0747C25.0686 58.1829 25.0836 58.2911 25.0612 58.4031C24.994 58.7352 24.9604 58.7576 24.6245 58.7987C24.4454 58.8173 24.2663 58.8509 24.0909 58.892C23.7139 58.9778 23.337 58.9853 22.9526 58.9666C22.8929 58.9629 22.8332 58.9554 22.7735 58.9442C22.4973 58.892 22.4525 58.8285 22.4973 58.5561C22.5123 58.4665 22.5234 58.3769 22.5496 58.2911C22.6205 58.0747 22.5682 57.8806 22.4861 57.6791C22.21 56.9924 21.9338 56.302 21.7771 55.5742C21.374 53.7045 20.9747 51.8311 20.803 49.9203C20.6873 48.6104 20.6425 47.2968 20.65 45.9831C20.6537 45.5614 20.6873 45.1434 20.7097 44.7217C20.7134 44.6545 20.6911 44.5762 20.747 44.5202C20.9262 44.3373 20.9262 44.1022 20.9262 43.8708C20.9224 43.3409 21.012 42.8147 21.0717 42.2922C21.2322 40.8591 21.4785 39.4335 21.7808 38.0229C21.8256 37.8064 21.8517 37.5862 21.8778 37.3698C21.889 37.2802 21.8853 37.1906 21.8778 37.1011C21.8704 37.0264 21.8293 36.9704 21.7509 36.9481C21.6763 36.9294 21.6128 36.9592 21.5643 37.0152C21.4897 37.1011 21.4636 37.2093 21.43 37.3138C21.1314 38.3065 20.9448 39.3178 20.7918 40.3404C20.7209 40.7957 20.6612 41.2547 20.594 41.71C20.5791 41.8071 20.5754 41.8966 20.4373 41.9302C20.2955 41.9638 20.3029 42.1094 20.2992 42.2325C20.2955 42.643 20.3589 43.0535 20.4037 43.4603C20.4298 43.6805 20.4634 43.897 20.4298 44.1283C20.2917 44.1246 20.2432 44.0164 20.1872 43.9305C20.0827 43.7701 20.0193 43.5872 19.9521 43.4118C19.9185 43.326 19.8961 43.2401 19.8626 43.158C19.829 43.0722 19.7767 42.9901 19.6648 43.0125C19.5491 43.0349 19.523 43.1319 19.5416 43.2215C19.6274 43.673 19.6797 44.1433 20.0902 44.4493C20.1499 44.4941 20.1947 44.5389 20.176 44.621C20.135 44.8225 20.1014 45.0277 20.0566 45.2629C19.7954 45.0203 19.5939 44.7665 19.4782 44.4717C19.2057 43.7701 18.9296 43.0685 18.8773 42.3071C18.8176 41.4563 18.8176 40.6054 18.9482 39.7545C19.1983 38.1162 19.5827 36.5114 20.0827 34.9328C20.3179 34.1715 20.553 33.4176 20.8179 32.6563Z" fill="white"/>
<path d="M31.5325 13.1983C30.8682 13.3923 30.2226 13.5827 29.5769 13.7618C28.9201 13.9447 28.282 14.1872 27.6624 14.4709C27.543 14.5231 27.4273 14.5866 27.3191 14.6575C27.2407 14.706 27.1736 14.7806 27.2258 14.8814C27.2706 14.9672 27.3602 14.9598 27.4385 14.9336C27.6102 14.8814 27.7781 14.8217 27.9797 14.7545C27.9946 15.0381 28.0468 15.2994 28.1364 15.5457C28.4051 16.2921 28.9164 16.7548 29.7113 16.8444C30.2935 16.9116 30.7898 16.6765 31.2115 16.2846C31.4392 16.0719 31.6109 15.8144 31.7564 15.527C31.8348 15.5643 31.8236 15.6278 31.8236 15.6763C31.846 16.2062 31.9281 16.7324 31.9094 17.2661C31.8758 18.2588 31.9318 19.2515 31.9766 20.2405C31.9803 20.3487 32.0027 20.4607 32.0176 20.5689C32.0624 20.9085 32.0736 21.2481 32.0064 21.5877C31.943 21.9049 31.9542 22.2259 31.9953 22.5468C32.0475 22.9461 32.0811 23.3417 32.0512 23.7448C32.0251 24.1441 32.0363 24.5472 32.055 24.9465C32.096 25.8459 32.1072 26.749 32.1744 27.6521C32.1968 27.932 32.1669 28.2119 32.1669 28.4956C32.1669 28.615 32.152 28.7419 32.1893 28.8538C32.2826 29.1412 32.1557 29.3241 31.9467 29.492C31.1854 30.119 30.3905 30.6937 29.5135 31.1453C29.0694 31.3729 28.6402 31.6379 28.1961 31.8655C27.9871 31.97 27.7931 32.0073 27.543 31.9327C27.1064 31.8021 26.666 31.8394 26.3227 32.2051C26.2592 32.2723 26.2033 32.2611 26.1361 32.2275C26.0726 32.1977 26.0092 32.1678 25.9495 32.1342C24.9568 31.5856 24.0051 30.9736 23.1281 30.2533C22.7661 29.9548 22.4079 29.645 22.0496 29.339C21.9414 29.2457 21.8816 29.1561 21.8928 28.9882C21.9078 28.7419 21.8593 28.4918 21.8518 28.2418C21.8406 27.7193 21.8219 27.2006 21.8593 26.6781C21.8705 26.499 21.8518 26.3198 21.8294 26.137C21.7921 25.8086 21.7585 25.4764 21.7995 25.148C21.8518 24.7636 21.8294 24.3867 21.751 24.0135C21.6391 23.4985 21.6577 22.976 21.6241 22.4573C21.5607 21.4459 21.4749 20.4383 21.501 19.4232C21.5196 18.6283 21.4898 17.8408 21.3965 17.0534C21.3554 16.6951 21.3778 16.3331 21.3405 15.9525C21.8891 16.6877 22.5721 17.1541 23.5162 16.9452C24.4679 16.7324 24.8859 16.0122 25.0799 15.1128C25.1994 15.1389 25.3039 15.1687 25.4121 15.1874C25.5315 15.2061 25.6397 15.1799 25.6882 15.0605C25.7442 14.9299 25.6547 14.8478 25.5576 14.7918C25.4606 14.7396 25.3561 14.7023 25.2553 14.6649C24.3447 14.3216 23.408 14.0716 22.4526 13.885C22.1392 13.8215 21.8257 13.7506 21.5085 13.6984C21.3778 13.676 21.3517 13.6312 21.3592 13.5006C21.3965 13.0229 21.4077 13.0117 21.8816 12.9744C23.3408 12.8587 24.8038 12.8176 26.2667 12.7243C27.6177 12.6385 28.9686 12.575 30.3233 12.631C30.6219 12.6422 30.9242 12.6609 31.2227 12.687C31.4616 12.7057 31.4616 12.7131 31.4914 12.952C31.5101 13.0229 31.5213 13.1012 31.5325 13.1983Z" fill="white"/>
<path d="M20.1835 32.9587C20.0343 33.4364 19.8887 33.9141 19.732 34.3881C19.5491 34.9404 19.3886 35.5002 19.1983 36.0488C18.9706 36.7131 18.6907 37.355 18.4183 38.0043C18.06 38.8627 17.6719 39.7098 17.3771 40.5981C16.9815 41.8035 16.7128 43.0313 16.6494 44.3039C16.6382 44.5054 16.6643 44.7032 16.6904 44.9047C16.7016 44.9906 16.7165 45.0876 16.8397 45.1175C16.974 44.8786 17.0002 44.6099 17.0487 44.3449C17.1681 43.6545 17.2539 42.9604 17.4032 42.2737C17.6719 41.0272 18.0377 39.8106 18.5079 38.6239C18.5265 38.5791 18.5527 38.5343 18.5825 38.4746C18.6236 38.5641 18.5788 38.6313 18.5676 38.6985C18.4183 39.6501 18.2504 40.5943 18.2466 41.5646C18.2466 41.9341 18.1907 42.3036 18.1645 42.673C18.1347 43.1134 18.1459 43.5538 18.2541 43.9867C18.2952 44.1472 18.3437 44.3114 18.534 44.4158C18.5975 44.1919 18.4706 44.0016 18.5265 43.7889C18.6422 43.9232 18.6348 44.0912 18.6646 44.2367C18.7766 44.7741 19.0416 45.2257 19.4185 45.6138C19.5304 45.7295 19.6499 45.834 19.8141 45.8713C19.9633 45.9049 20.0305 45.9907 20.0231 46.1512C20.0156 46.2818 20.0343 46.4124 20.0417 46.5431C20.0529 46.767 20.0529 46.767 19.8178 46.7968C19.3028 46.864 18.8512 47.0469 18.493 47.4387C18.4519 47.4835 18.4071 47.5246 18.3623 47.5656C18.0675 47.8343 17.7503 47.9575 17.3472 47.7895C17.0338 47.6589 16.6942 47.6067 16.3508 47.5731C15.9776 47.5395 15.6828 47.6552 15.4551 47.95C15.3544 48.0844 15.2536 48.2187 15.1379 48.3717C14.9663 47.9911 14.9065 47.6067 14.8244 47.226C14.6192 46.2744 14.7386 45.3414 14.8953 44.3935C15.1529 42.8484 15.7313 41.4303 16.418 40.042C17.0263 38.8104 17.6943 37.6088 18.3661 36.4108C18.952 35.3696 19.5155 34.3209 20.0119 33.2349C20.0566 33.1416 20.0678 33.0185 20.1798 32.9662C20.1873 32.9625 20.1835 32.9587 20.1835 32.9587Z" fill="#31C77F"/>
<path d="M31.2003 9.74243C29.5731 9.59688 27.9833 9.5521 26.3898 9.6342C24.7962 9.7163 23.2176 9.8917 21.6875 10.2798C21.6091 10.2238 21.6278 10.1716 21.639 10.1268C22.0122 9.00723 22.4488 7.92123 23.337 7.09274C24.2364 6.25305 25.2889 5.77536 26.5316 5.76416C26.6995 5.76416 26.8712 5.78655 27.0391 5.81268C27.7109 5.92837 28.3826 6.0254 29.0208 6.29037C29.394 6.44711 29.6814 6.67849 29.9277 6.99944C30.5285 7.77568 30.9204 8.6415 31.1667 9.58195C31.1779 9.61927 31.1853 9.66032 31.2003 9.74243Z" fill="#DCB98B"/>
<path d="M36.1825 20.3185C36.19 20.4118 36.2012 20.4491 36.1975 20.4902C36.1751 21.3523 36.2348 22.2143 36.2721 23.0727C36.3057 23.8415 36.3094 24.614 36.4773 25.3716C36.5408 25.6552 36.5893 25.9426 36.6005 26.2299C36.6117 26.4912 36.7572 26.6255 36.97 26.6815C37.4327 26.8084 37.903 26.7972 38.3694 26.6964C38.5784 26.6516 38.6344 26.5471 38.6605 26.3046C38.7464 25.6067 38.7203 24.9051 38.7389 24.2035C38.7538 23.584 38.7538 22.9607 38.7128 22.345C38.6867 21.9232 38.6755 21.5053 38.6605 21.0836C38.6531 20.7925 38.668 20.5014 38.724 20.2177C38.7426 20.1282 38.7538 20.0274 38.8733 20.0237C38.989 20.0237 39.0524 20.1058 39.0785 20.2103C39.0897 20.2588 39.0897 20.311 39.0934 20.3596C39.1009 21.0201 39.142 21.6769 39.1158 22.3412C39.0673 23.5317 39.0972 24.7259 39.0972 25.9202C39.0972 26.0956 39.183 26.2598 39.1718 26.4464C39.1644 26.5733 39.3024 26.6404 39.4219 26.6778C39.5935 26.73 39.7689 26.7636 39.9518 26.7673C40.3026 26.7711 40.6497 26.7599 41.0005 26.8121C41.3699 26.8644 41.7394 26.7897 42.1089 26.7524C42.3403 26.73 42.4037 26.633 42.4 26.3867C42.3701 24.8118 42.3029 23.2406 42.344 21.6657C42.3552 21.2739 42.3776 20.8858 42.4 20.4976C42.4037 20.4305 42.4224 20.3596 42.4447 20.2924C42.4895 20.1618 42.6164 20.1692 42.7209 20.1543C42.8403 20.1356 42.8217 20.2551 42.8478 20.3222C42.8851 20.4267 42.8739 20.5387 42.8739 20.6507C42.8777 21.3933 42.8926 22.136 42.8739 22.8786C42.8627 23.4384 42.803 23.9982 42.7806 24.558C42.7657 24.9685 42.7732 25.379 42.7694 25.7896C42.7694 25.9985 42.7657 26.2113 42.762 26.4203C42.7582 26.7188 42.8627 26.8532 43.1613 26.8681C43.5009 26.8867 43.8442 26.883 44.1838 26.8718C44.2883 26.8681 44.3592 26.8532 44.4339 26.9539C44.5384 27.092 44.6653 27.0696 44.7324 26.9129C44.781 26.7935 44.822 26.6703 44.8108 26.5359C44.7772 26.0732 44.8369 25.6179 44.9041 25.1589C44.9452 24.8715 44.9601 24.5804 44.9713 24.293C45.0011 23.6623 45.0608 23.0354 45.0497 22.4009C45.0385 21.8598 45.143 21.3261 45.1765 20.785C45.184 20.6544 45.2064 20.5051 45.3407 20.423C45.4191 20.4342 45.4191 20.4976 45.4228 20.5387C45.449 20.9156 45.546 21.2888 45.4938 21.6732C45.4863 21.7329 45.4826 21.7926 45.4826 21.8523C45.4452 23.2257 45.3295 24.5916 45.3333 25.9687C45.3333 26.3568 45.2922 26.7487 45.2176 27.1331C45.1504 27.4689 44.8966 27.6854 44.5757 27.5921C44.1838 27.4764 43.8032 27.5324 43.4151 27.5398C42.8329 27.5548 42.2507 27.551 41.6685 27.551C41.5043 27.551 41.3476 27.5809 41.1945 27.6182C41.049 27.6518 40.9594 27.7376 40.9333 27.9056C40.896 28.1556 40.896 28.4057 40.8923 28.6557C40.8811 29.8089 40.8139 30.9583 40.8251 32.1115C40.8251 32.1525 40.8251 32.1899 40.8213 32.2309C40.8176 32.3205 40.8288 32.4212 40.6945 32.4212C40.5676 32.425 40.4743 32.3839 40.478 32.2384C40.4817 31.9062 40.4817 31.5778 40.5004 31.2457C40.5079 31.1151 40.5228 30.9882 40.5228 30.8576C40.5265 29.9432 40.5303 29.0326 40.534 28.1183C40.534 27.719 40.4743 27.6705 40.0861 27.5996C39.1233 27.4242 38.1418 27.3607 37.179 27.2002C36.9737 27.1666 36.761 27.1517 36.552 27.1405C36.2982 27.1256 36.1863 27.0398 36.1452 26.7935C36.1153 26.6143 36.093 26.4352 36.0855 26.256C35.9959 24.4722 36.0071 22.6883 36.022 20.9044C36.022 20.6469 36.0556 20.5462 36.1825 20.3185Z" fill="#585858"/>
<path d="M36.3093 12.7282C36.2869 12.5192 36.2533 12.4744 36.0481 12.4446C35.8615 12.4147 35.6711 12.3923 35.4808 12.3886C34.8203 12.3699 34.1597 12.3251 33.4954 12.3625C33.4544 12.3662 33.4133 12.3699 33.376 12.3662C33.2491 12.3587 33.1894 12.4744 33.0961 12.508C33.014 12.5379 32.9543 12.3774 32.8423 12.3774C32.7901 12.3774 32.7341 12.3811 32.7042 12.4222C32.6221 12.5379 32.5512 12.5341 32.4393 12.452C32.29 12.3401 32.0922 12.3587 31.9168 12.3363C30.7151 12.1684 29.5097 12.0938 28.2893 12.1684C27.4384 12.2207 26.5838 12.2169 25.7367 12.2654C24.2663 12.3513 22.7959 12.4184 21.3292 12.5938C20.3925 12.7058 19.4707 12.8961 18.5527 13.1051C18.2765 13.1686 17.9779 13.2245 17.7764 13.4597C17.6757 13.594 17.5413 13.706 17.5562 13.9038C17.5674 14.0605 17.4592 14.0493 17.351 14.0083C17.295 13.9859 17.2353 13.9747 17.183 13.9448C16.8882 13.7731 16.877 13.6015 17.1494 13.3962C17.392 13.2134 17.6645 13.0902 17.9444 12.9708C19.2692 12.3998 20.6612 12.0639 22.0682 11.7803C23.3296 11.5265 24.6059 11.4145 25.8897 11.3735C27.0727 11.3324 28.2557 11.2765 29.4388 11.3026C30.6143 11.3287 31.7787 11.4481 32.9431 11.5713C34.0925 11.6907 35.1823 12.0079 36.2571 12.3998C36.4735 12.4782 36.6788 12.5827 36.8728 12.7095C37.0706 12.8402 37.0744 12.8737 36.899 13.0454C36.8728 13.0715 36.8318 13.0865 36.7982 13.1089C36.5519 13.0902 36.4175 12.9297 36.3093 12.7282Z" fill="#DCB98B"/>
<path d="M25.0948 33.131C23.7961 33.1608 22.6019 32.8697 21.445 32.4256C21.1912 32.3286 20.9673 32.1718 20.762 31.9927C20.4709 31.7352 20.4038 31.3471 20.5792 31.0411C20.6352 30.9403 20.6911 30.8769 20.8068 30.9701C20.8367 30.9963 20.8777 31.0112 20.9151 31.0187C21.0419 31.0485 21.1166 30.9925 21.0905 30.8619C21.0681 30.7238 21.0195 30.5895 20.9785 30.4589C20.9262 30.2835 20.8927 30.1118 20.9001 29.9252C20.9113 29.7349 20.9897 29.5744 21.1017 29.4326C21.2771 29.2161 21.3368 29.2236 21.5122 29.44C21.6204 29.5707 21.7398 29.6938 21.8667 29.8095C22.4414 30.3283 23.0423 30.8097 23.6879 31.2351C24.3074 31.6419 24.8933 32.1047 25.5613 32.4293C25.6434 32.4704 25.7218 32.5114 25.8039 32.545C26.0577 32.657 26.0465 32.657 26.0278 32.9294C26.0166 33.1198 26.0054 33.1571 25.7927 33.1198C25.5464 33.075 25.2964 33.1571 25.0948 33.131Z" fill="#31C77F"/>
<path d="M31.4802 10.9327C31.413 10.9924 31.3533 10.9812 31.2936 10.9738C30.786 10.9029 30.2785 10.8842 29.7672 10.8805C29.0171 10.8767 28.2632 10.8543 27.5131 10.8842C26.1622 10.9364 24.8112 10.97 23.4714 11.1753C22.9191 11.2611 22.3668 11.3544 21.8107 11.4403C21.7696 11.4477 21.7323 11.4552 21.6913 11.4589C21.4524 11.4888 21.4338 11.4738 21.4785 11.2499C21.5233 11.0372 21.4674 10.7722 21.6241 10.623C21.7696 10.4849 22.0197 10.5073 22.2249 10.4625C23.3632 10.2199 24.5164 10.093 25.677 10.0109C27.1586 9.90269 28.6402 9.96613 30.1218 10.037C30.4427 10.052 30.7599 10.0856 31.0809 10.093C31.2488 10.0968 31.3421 10.1527 31.3682 10.3207C31.4018 10.5334 31.4466 10.7386 31.4802 10.9327Z" fill="#31C77F"/>
<path d="M32.7901 29.1147C33.1148 29.2454 33.238 29.4767 33.1633 29.8052C33.1074 30.0515 32.9991 30.2754 32.8163 30.4582C32.6819 30.5926 32.5438 30.727 32.4132 30.8613C32.3311 30.9471 32.2527 31.0367 32.2378 31.1673C32.4095 31.242 32.5438 31.1599 32.6782 31.1001C32.9096 30.9994 33.1074 30.8426 33.294 30.6784C33.3798 30.6001 33.4358 30.6075 33.5179 30.6896C33.7717 30.9546 33.794 31.1748 33.5627 31.4584C33.3835 31.6749 33.1783 31.8689 32.917 31.9884C32.3647 32.2459 31.8049 32.4922 31.2339 32.7086C30.6779 32.9176 30.1031 33.0445 29.5135 33.1191C29.1776 33.1602 28.838 33.2124 28.5021 33.2498C28.211 33.2833 28.2409 33.2311 28.2521 33.0258C28.2596 32.8766 28.2745 32.7235 28.2185 32.578C28.1663 32.4474 28.2409 32.4063 28.3417 32.3578C29.0619 32.007 29.7897 31.6711 30.4801 31.2644C31.1406 30.8762 31.7489 30.4209 32.2901 29.8835C32.514 29.6671 32.6819 29.4096 32.7901 29.1147Z" fill="#31C77F"/>
<path d="M40.7467 39.6765C40.7915 39.9415 40.7169 40.1766 40.7169 40.4154C40.7206 40.9678 40.7169 41.5201 40.6982 42.0687C40.6683 43.0913 40.6273 44.1101 40.59 45.1326C40.5862 45.2633 40.5825 45.3939 40.5825 45.5245C40.5601 46.5359 40.5676 47.5509 40.5116 48.5586C40.4556 49.5699 40.3996 50.5776 40.3996 51.5927C40.3996 51.8725 40.4071 52.1524 40.3996 52.4361C40.381 53.44 40.3773 54.4401 40.3325 55.4403C40.2952 56.2837 40.284 57.1234 40.2802 57.9631C40.2802 58.0228 40.2802 58.0825 40.2802 58.1422C40.284 58.2355 40.2466 58.2952 40.1459 58.3064C40.0414 58.3176 39.9667 58.2803 39.9406 58.1758C39.922 58.0975 39.9145 58.0153 39.9145 57.937C39.9406 57.1757 39.9033 56.4143 39.9667 55.653C39.9817 55.4851 39.9779 55.3134 39.9779 55.1417C39.9854 54.3394 40.0488 53.5407 40.0302 52.7384C40.0041 51.4359 40.0078 50.1335 40.06 48.831C40.0936 47.9391 40.0899 47.0471 40.116 46.1552C40.1421 45.2147 40.1757 44.2743 40.2354 43.3338C40.3026 42.2702 40.2877 41.2103 40.2877 40.1467C40.2877 39.7885 40.2877 39.7885 40.6273 39.6914C40.6646 39.6877 40.6945 39.6877 40.7467 39.6765Z" fill="#8F6037"/>
<path d="M17.351 14.0041C17.4107 13.9818 17.504 14.034 17.489 13.8847C17.4629 13.6086 17.5077 13.5675 17.7764 13.4593C17.8436 13.5899 17.9518 13.6086 18.0824 13.5712C18.8848 13.3399 19.7095 13.2428 20.5306 13.1159C20.5604 13.1122 20.5903 13.1085 20.6201 13.1047C20.8963 13.0749 20.8926 13.0824 20.8702 13.3697C20.8478 13.6384 20.8478 13.9108 20.8441 14.1795C20.8403 14.2915 20.7993 14.3475 20.6799 14.3326C20.2022 14.2766 19.7207 14.3139 19.2393 14.2952C18.6273 14.2728 18.0264 14.1758 17.4256 14.0489C17.3995 14.0452 17.3771 14.0191 17.351 14.0041Z" fill="#977D58"/>
<path d="M36.3093 12.7281C36.4735 12.8512 36.6377 12.9744 36.8019 13.0975C36.4922 13.3028 36.1264 13.3252 35.7756 13.3886C35.2681 13.4819 34.7568 13.4633 34.2455 13.4633C33.585 13.467 32.9244 13.4856 32.2639 13.5566C32.1556 13.5678 32.0885 13.5416 32.0586 13.4371C32.0362 13.3588 32.0176 13.2804 31.9877 13.2095C31.9355 13.0789 31.9317 12.9557 32.0325 12.8475C32.0847 12.7915 32.3236 12.8288 32.4243 12.9035C32.4654 12.9333 32.4952 12.9744 32.5363 13.0042C32.5848 13.0415 32.6669 13.0826 32.7005 13.049C32.8946 12.8773 33.1745 13.0304 33.376 12.8288C33.4917 12.7131 33.7081 12.7206 33.891 12.7243C34.5329 12.7318 35.1711 12.7728 35.813 12.8027C35.9846 12.8064 36.16 12.8438 36.3093 12.7281Z" fill="#977D58"/>
<path d="M30.4539 6.79034C30.327 6.61494 30.1441 6.46193 30.1143 6.28652C30.0807 6.10366 30.2673 5.93199 30.3606 5.75285C30.5173 5.45057 30.6927 5.15947 30.8868 4.87958C30.9726 4.75642 31.0697 4.64073 31.1928 4.55116C31.3496 4.43174 31.4242 4.44294 31.5287 4.61461C31.6556 4.8236 31.6817 5.06617 31.7451 5.29756C32.025 6.32384 31.9355 7.36133 31.8496 8.40254C31.8161 8.79067 31.8123 9.18252 31.7937 9.57438C31.7004 9.58184 31.7078 9.5072 31.6966 9.45869C31.6108 9.14147 31.5586 8.82425 31.5623 8.48838C31.5772 7.73826 31.5996 6.9844 31.5026 6.23801C31.4876 6.11112 31.469 5.97677 31.4279 5.85735C31.3608 5.65582 31.2003 5.61477 31.0249 5.73046C30.9204 5.80137 30.8607 5.90586 30.8122 6.01409C30.6927 6.26413 30.577 6.51791 30.4539 6.79034Z" fill="#FEFEFE"/>
<path d="M21.0382 10.3135C20.971 9.56338 20.9262 8.81326 20.9001 8.06313C20.874 7.21598 20.9785 6.38375 21.2099 5.56645C21.2546 5.40225 21.3106 5.24177 21.4226 5.10742C21.5233 5.11115 21.5569 5.19326 21.6017 5.25297C21.9674 5.71946 22.2772 6.21955 22.5272 6.76068C22.628 6.98086 22.6579 7.16746 22.4451 7.3354C22.4078 7.36526 22.3929 7.42124 22.3108 7.43616C22.1727 7.08536 22.0197 6.73082 21.8294 6.39495C21.7696 6.28672 21.7435 6.12251 21.5756 6.14864C21.3927 6.17476 21.3591 6.33524 21.333 6.48825C21.2472 6.95474 21.2808 7.4287 21.2397 7.89519C21.1987 8.36915 21.2658 8.83565 21.2733 9.30587C21.277 9.52979 21.2696 9.74624 21.1949 9.95523C21.1539 10.0709 21.1427 10.1903 21.1389 10.3098C21.1054 10.362 21.0718 10.362 21.0382 10.3135Z" fill="#FDFDFD"/>
<path d="M27.084 32.358C27.1325 32.3617 27.1922 32.3617 27.2519 32.3692C27.7632 32.4401 27.9199 32.6827 27.7781 33.1828C27.7632 33.2387 27.7408 33.2985 27.7109 33.347C27.487 33.6642 26.8712 33.7015 26.5988 33.4291C26.3637 33.194 26.4309 32.9365 26.5316 32.6789C26.6249 32.4214 26.7667 32.3468 27.084 32.358Z" fill="#31C67E"/>
<path d="M40.784 34.1716C40.8026 34.8732 40.7019 35.571 40.7019 36.2726C40.7019 36.3622 40.7093 36.463 40.5712 36.4555C40.4556 36.4481 40.3436 36.4443 40.3511 36.2801C40.3548 36.1793 40.3511 36.0786 40.3585 35.9816C40.4182 35.3434 40.3958 34.7015 40.4182 34.0596C40.4294 33.72 40.4481 33.3804 40.4668 33.0408C40.4705 32.9736 40.4556 32.899 40.5339 32.8579C40.6534 32.7982 40.7765 32.8616 40.7765 32.9997C40.7877 33.3916 40.784 33.7797 40.784 34.1716Z" fill="#8E5F36"/>
<path d="M21.5943 8.77974C21.5308 8.04454 21.5234 7.31681 21.5868 6.55176C21.7174 6.64132 21.7398 6.75328 21.7883 6.84285C21.8443 6.94735 21.8742 7.06677 21.9301 7.17126C22.1279 7.54446 22.1391 7.89526 21.8592 8.24607C21.7398 8.39908 21.6838 8.6006 21.5943 8.77974Z" fill="#FCFCFC"/>
<path d="M31.1219 6.05518C31.2264 6.42837 31.2749 7.41734 31.2152 7.95474C31.1293 7.94355 31.1219 7.86144 31.0883 7.8092C31.0062 7.67111 30.9502 7.51437 30.8457 7.39495C30.6367 7.1561 30.6628 6.91353 30.786 6.65229C30.883 6.45076 30.9502 6.23058 31.1219 6.05518Z" fill="#F6F6F6"/>
<path d="M30.4054 15.1801C30.1703 15.1801 29.98 14.9785 29.9725 14.7322C29.9688 14.4673 30.1815 14.2359 30.4316 14.2433C30.6704 14.2471 30.8458 14.4449 30.8421 14.7024C30.8383 14.9711 30.6443 15.1801 30.4054 15.1801Z" fill="#FCFCFC"/>
<path d="M23.5872 15.5941C23.3521 15.5904 23.1431 15.3665 23.1431 15.1164C23.1468 14.8813 23.3707 14.691 23.6357 14.6985C23.8745 14.7059 24.0425 14.8888 24.0387 15.1276C24.0313 15.3889 23.8297 15.5979 23.5872 15.5941Z" fill="#FCFCFC"/>
<path d="M20.1873 32.9626C20.2321 32.7088 20.3142 32.5259 20.4896 32.3281C20.415 32.5931 20.3254 32.7872 20.1799 32.9588C20.1836 32.9588 20.1873 32.9626 20.1873 32.9626Z" fill="#31C77F"/>
<path d="M21.0382 10.3135C21.0718 10.3135 21.1017 10.3135 21.1354 10.3135C21.1578 10.392 21.1653 10.4668 21.0905 10.5453C21.0082 10.4817 21.0232 10.3995 21.0382 10.3135Z" fill="#606060"/>
<path d="M30.3879 52.3423C30.4066 52.4283 30.4029 52.5143 30.3468 52.5891C30.3169 52.4993 30.3206 52.4133 30.3879 52.3423Z" fill="#527853"/>
<path d="M59.8404 42.4941C59.9599 42.4493 60.0606 42.4642 60.1614 42.4642C62.9491 42.4605 65.7369 42.4605 68.5247 42.4605C68.6964 42.4605 68.8643 42.4344 69.0322 42.412C69.0957 42.4045 69.1517 42.3784 69.1517 42.3038C69.1517 42.2328 69.0957 42.1955 69.036 42.1843C68.9277 42.1694 68.8158 42.1657 68.7076 42.1657C65.8004 42.1657 62.8894 42.1619 59.9822 42.1657C59.7882 42.1657 59.6314 42.1395 59.471 41.994C58.7917 41.3857 58.0603 40.8408 57.2803 40.3594C57.2542 40.3445 57.2318 40.3258 57.2131 40.3146C57.2505 40.2101 57.3214 40.2474 57.3736 40.2474C60.7846 40.2474 64.1919 40.2474 67.6029 40.2437C67.7484 40.2437 67.8492 40.2885 67.9425 40.3893C68.5657 41.0573 69.1703 41.7365 69.76 42.4306C69.8048 42.4829 69.8346 42.5501 69.8607 42.6135C70.1108 43.2367 70.3608 43.86 70.6146 44.4795C70.7377 44.7743 70.8049 45.0878 70.9393 45.3826C71.0139 45.5468 71.0027 45.7558 71.0139 45.9424C71.04 46.3007 71.0662 46.6627 71.0774 47.0209C71.096 47.6404 71.1184 48.26 71.193 48.8795C71.2229 49.1258 71.2005 49.1407 70.8982 49.1407C68.2523 49.1407 65.6026 49.137 62.9566 49.137C62.5461 49.137 62.1356 49.137 61.7213 49.1444C61.5646 49.1482 61.5198 49.0885 61.5086 48.9354C61.4377 47.9278 61.3332 46.9239 61.1727 45.9275C61.1429 45.7334 61.1503 45.7185 61.3817 45.7185C62.3744 45.7148 63.3671 45.7409 64.3598 45.6998C66.1549 45.6289 67.95 45.6662 69.7413 45.6439C70.01 45.6401 70.2787 45.6103 70.5511 45.5879C70.6258 45.5841 70.7004 45.5655 70.7004 45.4722C70.7004 45.3863 70.6258 45.3602 70.5511 45.3565C70.4019 45.349 70.2489 45.349 70.0996 45.3453C68.9651 45.3192 67.8343 45.4125 66.7035 45.4087C66.6923 45.4087 66.6848 45.4087 66.6736 45.4087C64.9196 45.3864 63.1656 45.461 61.4116 45.4759C61.0832 45.4796 61.1391 45.5095 61.016 45.196C60.6988 44.3974 60.3405 43.6137 59.9785 42.83C59.93 42.7329 59.8516 42.6359 59.8404 42.4941Z" fill="#585858"/>
<path d="M58.2022 52.9512C58.2022 52.2682 58.2022 51.589 58.2022 50.906C58.2022 50.7568 58.2059 50.6038 58.1984 50.4545C58.1835 50.1895 58.0379 50.0477 57.7767 50.0514C56.7542 50.0589 55.7316 50.0664 54.709 50.0738C54.4478 50.0776 54.1866 50.0925 53.9291 50.1074C53.6492 50.1223 53.5895 50.1895 53.5596 50.4731C53.4924 51.1337 53.5297 51.7943 53.4962 52.4548C53.4626 52.4921 53.4215 52.5257 53.373 52.5295C52.9326 52.563 52.496 52.5369 52.0668 52.41C52.0444 51.0367 52.0146 49.6633 51.9959 48.29C51.9922 47.9093 52.0108 47.5286 52.0183 47.148C52.022 47.0173 52.0295 46.8905 52.0855 46.7673C52.5258 45.7895 52.8916 44.7819 53.2498 43.7706C53.3096 43.6063 53.3842 43.4645 53.5036 43.3339C54.1157 42.6547 54.6643 41.927 55.2054 41.1918C55.2838 41.0873 55.3733 41.0313 55.4965 40.9977C55.9107 40.8857 56.3287 40.7701 56.7392 40.6432C56.8624 40.6058 56.9482 40.6357 57.049 40.6954C57.8588 41.203 58.6164 41.7777 59.2658 42.483C59.3255 42.5465 59.3665 42.6323 59.4076 42.7107C59.8703 43.625 60.2435 44.5766 60.6317 45.5208C60.6914 45.6664 60.6764 45.8157 60.6951 45.9649C60.8108 46.8196 60.9078 47.6742 60.9227 48.5363C60.9265 48.7042 60.9526 48.8759 60.9675 49.0438C60.975 49.1334 60.9638 49.2192 60.9227 49.305C60.8332 49.514 60.8854 49.6223 61.0944 49.6969C61.1616 49.7193 61.2288 49.7342 61.2997 49.7417C61.5758 49.7753 61.5796 49.7715 61.5758 50.0328C61.5572 50.9844 61.5348 51.9361 61.5161 52.8877C61.1504 53.0557 60.7511 52.9922 60.3704 53.0221C59.7546 53.0706 59.1314 53.037 58.5156 53.0333C58.4037 53.0333 58.288 53.0333 58.2022 52.9512Z" fill="#B44035"/>
<path d="M70.7265 53.3017C70.7377 53.9846 70.6743 54.6601 70.6295 55.3393C70.5922 55.8693 70.6034 56.3992 70.5959 56.9329C70.5922 57.3284 70.5922 57.3284 70.2003 57.3322C69.5883 57.3359 68.98 57.3732 68.3679 57.3844C66.7744 57.4143 65.1808 57.3994 63.5873 57.4031C63.1581 57.4031 62.7252 57.3994 62.296 57.3956C62.0534 57.3919 62.0497 57.3919 62.0497 57.1419C62.046 56.2611 62.0348 55.3766 62.0497 54.4959C62.0572 54.0928 61.9751 53.6973 62.0124 53.2979C62.3968 53.1561 62.7961 53.2308 63.188 53.227C63.3186 53.3576 63.2738 53.5219 63.285 53.6786C63.3037 53.9958 63.3596 54.0555 63.6806 54.0667C63.9194 54.0742 64.1583 54.0742 64.3971 54.0667C64.7181 54.0593 64.8114 53.966 64.8561 53.6413C64.8711 53.5331 64.8636 53.4211 64.9233 53.3241C64.9718 53.2681 65.0353 53.2345 65.1062 53.2345C65.6436 53.2233 66.181 53.1748 66.7147 53.2643C66.8042 53.3129 66.8304 53.4062 66.8266 53.4957C66.8154 53.7607 66.9684 53.8204 67.1961 53.8577C67.4834 53.9062 67.7521 53.854 68.032 53.8241C68.1477 53.8129 68.2074 53.7458 68.2261 53.6301C68.241 53.5219 68.241 53.4062 68.3306 53.3241C68.4388 53.2382 68.5657 53.2233 68.6963 53.2196C69.271 53.2121 69.8458 53.2121 70.4242 53.2196C70.5287 53.2121 70.6407 53.2121 70.7265 53.3017Z" fill="#963127"/>
<path d="M62.005 52.9287C61.9976 52.0965 61.9901 51.2643 61.9826 50.4358C61.9789 50.2678 61.964 50.0962 61.949 49.9282C61.9416 49.82 61.9752 49.7528 62.0983 49.7566C62.1692 49.7603 62.2401 49.7566 62.3073 49.7566C64.33 49.7566 66.3565 49.7715 68.3792 49.7454C69.1069 49.7342 69.8384 49.6931 70.5699 49.7043C70.9207 49.708 70.9057 49.6633 70.8908 50.0551C70.8572 51.0142 70.8124 51.9733 70.7714 52.9324C70.6408 53.0034 70.4952 52.9772 70.3571 52.9772C69.8048 52.981 69.2562 52.981 68.7039 52.9772C68.5733 52.9772 68.4426 52.9847 68.3232 52.9138C68.2113 52.8018 68.2299 52.6563 68.2262 52.5182C68.2225 52.089 68.2299 51.6561 68.2225 51.2269C68.2113 50.7866 68.118 50.6933 67.6925 50.6895C66.9088 50.6783 66.8416 50.7455 66.8416 51.5367C66.8416 51.8688 66.8454 52.1973 66.8416 52.5294C66.8416 52.66 66.8491 52.7906 66.7633 52.9026C66.7148 52.9399 66.655 52.966 66.5991 52.9623C66.0841 52.9287 65.5653 52.9735 65.0503 52.966C64.9906 52.966 64.9346 52.9436 64.8824 52.9101C64.7816 52.7906 64.7965 52.6488 64.7965 52.5107C64.7928 52.0517 64.804 51.5889 64.7928 51.1299C64.7853 50.7978 64.692 50.7082 64.3562 50.6933C64.1882 50.6858 64.0165 50.6895 63.8449 50.6895C63.3821 50.6933 63.2963 50.7791 63.2925 51.2307C63.2888 51.671 63.2926 52.1114 63.2888 52.5518C63.2888 52.6824 63.3 52.813 63.2254 52.9324C62.8186 53.0071 62.4118 52.9922 62.005 52.9287Z" fill="#963127"/>
<path d="M61.5123 53.3051C61.5123 54.3351 61.5086 55.3689 61.5086 56.3989C61.5086 56.6079 61.5086 56.8206 61.5086 57.0296C61.5086 57.3468 61.5086 57.3468 61.1727 57.3468C60.3629 57.3468 59.5493 57.3468 58.7395 57.3468C58.6275 57.3468 58.5193 57.3505 58.4073 57.3468C58.1983 57.3393 58.1946 57.3356 58.1983 57.1191C58.2021 56.5892 58.2095 56.0555 58.2095 55.5256C58.2095 54.7643 58.2058 54.003 58.2021 53.2416C58.4782 53.0625 58.788 53.1297 59.0753 53.1558C59.7658 53.2155 60.4524 53.1969 61.1428 53.208C61.2735 53.2118 61.4078 53.208 61.5123 53.3051Z" fill="#B44035"/>
<path d="M57.8029 53.9961C57.7543 55.0486 57.7394 56.101 57.7805 57.1534C57.7879 57.3624 57.7842 57.3624 57.5715 57.3661C57.0714 57.3698 56.5676 57.3736 56.0675 57.3736C55.8697 57.3736 55.8697 57.3698 55.8697 57.1795C55.8734 55.1344 55.8734 53.0855 55.8734 51.0404C55.8734 50.9098 55.8697 50.7792 55.8585 50.6486C55.8473 50.5404 55.8958 50.5105 55.9966 50.5105C56.5377 50.5142 57.0789 50.518 57.62 50.5142C57.7917 50.5142 57.8066 50.6038 57.8066 50.7419C57.8029 51.8316 57.8029 52.9139 57.8029 53.9961Z" fill="#FDFCFC"/>
<path d="M53.9254 57.3885C53.9254 57.1944 53.9254 57.0227 53.9254 56.8548C53.9142 55.1306 53.903 53.4102 53.8918 51.686C53.8881 51.3464 53.8769 51.0031 53.8657 50.6635C53.8619 50.5478 53.8731 50.4769 54.0224 50.4806C54.4926 50.4955 54.9629 50.503 55.4331 50.503C55.5712 50.503 55.6309 50.5403 55.6197 50.6896C55.6048 50.8799 55.6122 51.0703 55.6122 51.2606C55.6122 53.2236 55.6122 55.1866 55.6122 57.1533C55.6122 57.3773 55.6122 57.3847 55.3846 57.3885C54.8994 57.3885 54.4105 57.3885 53.9254 57.3885Z" fill="#FDFDFD"/>
<path d="M53.4999 52.7196C53.4999 53.6825 53.526 54.6453 53.4924 55.6044C53.4738 56.1269 53.4887 56.6457 53.4999 57.1644C53.5036 57.3809 53.4999 57.3883 53.2909 57.3883C52.9401 57.392 52.5893 57.3883 52.2385 57.3846C52.0444 57.3809 52.0258 57.3585 52.0146 57.1532C52.0108 57.045 52.0108 56.933 52.0146 56.8211C52.0818 55.5597 52.0444 54.2945 52.0556 53.0331C52.0556 52.9436 52.0594 52.854 52.0631 52.7644C52.1228 52.7047 52.1974 52.6711 52.2795 52.6749C52.6863 52.6898 53.0968 52.6151 53.4999 52.7196Z" fill="#B44035"/>
<path d="M51.5667 49.633C51.5107 49.6666 51.4622 49.6368 51.4137 49.633C51.2569 49.6218 51.2159 49.536 51.2308 49.3867C51.2719 48.9687 51.2831 48.5508 51.3428 48.1365C51.4585 47.3491 51.5182 46.5579 51.8466 45.8115C52.1899 45.0353 52.44 44.2217 52.8169 43.4566C52.9214 43.2439 53.0707 43.076 53.205 42.8931C53.7648 42.1131 54.3694 41.3705 55.0262 40.6689C55.168 40.5159 55.3285 40.4188 55.5338 40.3815C55.7502 40.3405 55.9629 40.2919 56.1794 40.2509C56.2242 40.2434 56.2802 40.2322 56.3137 40.3255C56.1495 40.3778 55.9853 40.43 55.8174 40.4785C55.6942 40.5159 55.5674 40.542 55.4405 40.5756C55.0747 40.6726 54.8844 40.9861 54.668 41.2511C54.1641 41.8706 53.6902 42.5125 53.1976 43.1432C52.9065 43.5201 52.746 43.9418 52.5706 44.3598C52.2534 45.1136 51.9586 45.8787 51.6861 46.6512C51.6488 46.7594 51.6413 46.8639 51.6413 46.9759C51.6413 47.5767 51.6339 48.1776 51.6376 48.7784C51.6451 49.0695 51.6189 49.3531 51.5667 49.633Z" fill="#313131"/>
<path d="M61.5125 53.3054C60.4078 53.2867 59.3069 53.2643 58.2022 53.2457C58.1537 53.1486 58.1575 53.0479 58.2022 52.9508C59.3069 52.9322 60.4116 52.9098 61.5162 52.8911C61.5498 53.0292 61.5498 53.1673 61.5125 53.3054Z" fill="#FDFAFA"/>
<path d="M68.3158 52.865C69.0659 52.8874 69.8198 52.9023 70.5699 52.8874C70.6408 52.8874 70.7117 52.8874 70.7714 52.9322C70.7602 53.0553 70.7975 53.1859 70.7266 53.3016C70.081 53.3016 69.4354 53.3016 68.7897 53.2979C68.6293 53.2979 68.4763 53.3389 68.3195 53.3613C68.1964 53.1971 68.1964 53.0329 68.3158 52.865Z" fill="#F9F6F5"/>
<path d="M62.005 52.9286C62.4006 52.8727 62.7962 52.8913 63.1917 52.9286C63.2888 53.0369 63.2888 53.1451 63.1917 53.2533C62.7999 53.3242 62.4043 53.2906 62.0087 53.2906C61.9863 53.1712 61.9901 53.0481 62.005 52.9286Z" fill="#F3ECEB"/>
<path d="M53.4998 52.7192C53.0221 52.7789 52.5407 52.749 52.063 52.7714C52.0369 52.6483 52.0369 52.5288 52.0668 52.4094C52.5445 52.4244 53.0184 52.4393 53.4961 52.4579C53.5185 52.54 53.511 52.6296 53.4998 52.7192Z" fill="#FCF9F8"/>
<path d="M28.4275 17.0645C28.3753 17.3817 28.2447 17.74 27.8341 17.9154C27.7371 17.9564 27.7035 18.0124 27.6886 18.1132C27.6662 18.2699 27.6214 18.4266 27.5916 18.5834C27.558 18.7513 27.502 18.9118 27.4236 19.0648C27.1176 19.6507 26.3973 19.6843 25.9868 19.2253C25.789 19.0051 25.6509 18.7439 25.6136 18.449C25.5875 18.2512 25.5241 18.143 25.3225 18.0684C24.9493 17.9378 24.7329 17.5459 24.7665 17.1615C24.7889 16.9189 24.8747 16.7137 25.1098 16.6017C25.2292 16.5457 25.274 16.486 25.274 16.333C25.2628 15.7695 25.8152 15.4 26.3376 15.609C26.4496 15.6538 26.513 15.6277 26.6026 15.5717C27.0467 15.2993 27.6065 15.3702 27.7707 16.0195C27.7968 16.124 27.8416 16.1688 27.9349 16.2024C28.267 16.3367 28.435 16.6054 28.4275 17.0645Z" fill="#010101"/>
<path d="M56.7541 44.9795C56.7541 45.3079 56.7541 45.64 56.7541 45.9684C56.7541 46.0767 56.7504 46.1886 56.7205 46.2968C56.6645 46.4872 56.6011 46.5618 56.4145 46.5656C55.9928 46.573 55.5748 46.5767 55.1531 46.5618C54.8993 46.5544 54.8023 46.4573 54.7575 46.1961C54.6866 45.7893 54.7127 45.3788 54.7351 44.9683C54.7538 44.6287 54.7575 44.2891 54.7762 43.9495C54.7799 43.8599 54.7874 43.7703 54.8023 43.6808C54.8209 43.5725 54.8769 43.5016 55.0001 43.4979C55.489 43.4867 55.9741 43.427 56.463 43.4904C56.6571 43.5165 56.7504 43.6136 56.7541 43.8375C56.7616 44.2182 56.7578 44.5988 56.7578 44.9795C56.7578 44.9795 56.7578 44.9795 56.7541 44.9795Z" fill="#010101"/>
<path d="M63.1954 53.2568C63.1954 53.1486 63.1954 53.0404 63.1954 52.9321C63.1992 52.3313 63.1992 51.7304 63.2066 51.1296C63.2104 50.7079 63.2999 50.6109 63.7142 50.5959C63.9754 50.5885 64.2366 50.5922 64.4942 50.6034C64.7666 50.6183 64.8897 50.7452 64.8935 51.0214C64.9009 51.5214 64.8935 52.0253 64.8972 52.5253C64.8972 52.6448 64.9047 52.7642 64.9084 52.8836C64.998 53.0254 64.9569 53.1784 64.942 53.3277C64.942 53.4583 64.9495 53.589 64.9383 53.7158C64.9121 54.0144 64.7741 54.1413 64.4718 54.1413C64.1732 54.145 63.8709 54.145 63.5724 54.1376C63.2626 54.1264 63.2104 54.0666 63.2066 53.7644C63.2029 53.5927 63.1992 53.4247 63.1954 53.2568Z" fill="#010001"/>
<path d="M68.3158 52.865C68.2859 53.0292 68.2897 53.1934 68.3195 53.3614C68.3195 53.4621 68.3158 53.5592 68.3232 53.6599C68.3307 53.8055 68.271 53.8876 68.1254 53.9062C67.7299 53.9548 67.3305 53.966 66.935 53.9062C66.8043 53.8876 66.7446 53.8167 66.7446 53.6861C66.7446 53.5554 66.7372 53.4286 66.7297 53.2979C66.6476 53.1599 66.6476 53.0218 66.7334 52.8874C66.7782 52.2978 66.7521 51.7081 66.7521 51.1185C66.7521 50.7602 66.9275 50.6296 67.2372 50.6109C67.4761 50.5997 67.7187 50.5997 67.9575 50.6109C68.1777 50.6184 68.2561 50.6968 68.2934 50.9207C68.3083 51.0177 68.3083 51.1185 68.3083 51.2192C68.3083 51.7678 68.312 52.3164 68.3158 52.865Z" fill="#020102"/>
<path d="M66.7334 52.8877C66.7334 53.0258 66.7297 53.1639 66.7297 53.2982C66.252 53.3281 65.7743 53.3355 65.2966 53.3206C65.1772 53.3169 65.0578 53.3243 64.9384 53.3281C64.8675 53.1825 64.9085 53.0332 64.9048 52.884C65.5131 52.869 66.1251 52.8205 66.7334 52.8877Z" fill="#FEFDFD"/>
<path d="M57.3811 57.0974C56.9706 57.0974 56.6012 57.0974 56.2317 57.0974C56.1309 57.0974 56.0899 57.0527 56.0899 56.9556C56.0899 56.7354 56.0861 56.5227 56.1571 56.3063C56.3287 55.7838 56.4743 55.2539 56.6273 54.7277C56.6459 54.6605 56.6459 54.5896 56.7355 54.5261C56.9557 55.377 57.1012 56.2279 57.3811 57.0974Z" fill="#B44036"/>
<path d="M56.0823 50.7755C56.5488 50.7606 56.9743 50.7382 57.4146 50.7793C57.1907 51.619 56.9743 52.44 56.7541 53.2573C56.7392 53.2573 56.7242 53.2536 56.7093 53.2536C56.5041 52.44 56.2988 51.6264 56.0823 50.7755Z" fill="#B44136"/>
<path d="M57.5005 56.0634C57.2616 55.3655 57.0526 54.6676 56.8884 53.9548C56.8735 53.8839 56.881 53.8167 56.9034 53.7458C57.0974 53.1375 57.2915 52.5292 57.5079 51.9209C57.5639 53.3055 57.5117 54.6863 57.5005 56.0634Z" fill="#B44238"/>
<path d="M56.0524 55.4664C56.0524 54.3244 56.0524 53.1862 56.0524 52.0442C56.1233 52.0591 56.1196 52.1375 56.1308 52.186C56.2726 52.7271 56.407 53.272 56.5488 53.8169C56.5637 53.8766 56.5824 53.9363 56.5637 53.9923C56.4182 54.4886 56.2726 54.985 56.1271 55.4813C56.1009 55.4739 56.0748 55.4701 56.0524 55.4664Z" fill="#B5463B"/>
<path d="M54.791 53.0668C54.6082 52.3055 54.4216 51.5479 54.2387 50.7903C54.2835 50.7082 54.3619 50.7306 54.4253 50.7306C54.6977 50.7306 54.9664 50.738 55.2389 50.7455C55.3135 50.7455 55.3881 50.7642 55.362 50.8649C55.1904 51.5852 55.015 52.3055 54.8396 53.0257C54.8396 53.0444 54.8134 53.0518 54.791 53.0668Z" fill="#B44237"/>
<path d="M54.8695 54.9028C55.0412 55.6156 55.2166 56.3247 55.3957 57.0599C55.1979 57.1196 55.0225 57.0823 54.8508 57.086C54.6717 57.0898 54.4926 57.086 54.2836 57.086C54.4403 56.3247 54.5784 55.6007 54.8695 54.9028Z" fill="#B44237"/>
<path d="M54.1491 56.2127C54.1193 54.7647 54.1081 53.3241 54.0633 51.8799C54.1641 51.8985 54.1566 51.9769 54.1715 52.0404C54.3171 52.6225 54.4589 53.2085 54.6007 53.7906C54.6194 53.869 54.638 53.9437 54.6194 54.0258C54.4477 54.6751 54.3618 55.3431 54.2163 55.9962C54.1976 56.0671 54.1715 56.138 54.1491 56.2127Z" fill="#B44237"/>
<path d="M55.351 55.4141C55.2428 54.9588 55.1308 54.5035 55.0226 54.0482C55.0188 54.0295 55.0188 54.0072 55.0226 53.9885C55.142 53.466 55.2353 52.9361 55.4144 52.4248C55.4144 53.4175 55.4144 54.4139 55.4144 55.4066C55.3958 55.4066 55.3734 55.4104 55.351 55.4141Z" fill="#B84D43"/>
<path d="M27.1921 17.6242C27.0428 17.6391 26.9234 17.5495 26.7965 17.4674C26.483 17.2584 26.4345 17.2622 26.1359 17.4935C26.0576 17.557 25.9829 17.6242 25.9008 17.6839C25.7441 17.7996 25.5687 17.8369 25.3933 17.751C25.203 17.6615 25.1171 17.4935 25.1097 17.2883C25.1022 17.0606 25.3597 16.8703 25.5799 16.9449C25.6732 16.9785 25.7627 17.0308 25.856 17.0569C25.9493 17.083 26.0426 17.0532 26.0837 16.9599C26.1285 16.8554 26.0688 16.7919 25.968 16.7583C25.9195 16.7434 25.871 16.7285 25.8299 16.6986C25.7105 16.6091 25.565 16.5307 25.6023 16.3441C25.6359 16.1687 25.7366 16.0269 25.9046 15.956C26.0352 15.9 26.1621 15.9298 26.2628 16.0343C26.3113 16.0829 26.3412 16.15 26.3897 16.1985C26.5054 16.318 26.595 16.2993 26.6659 16.1463C26.6771 16.1202 26.6808 16.0866 26.692 16.0605C26.7778 15.8328 26.9607 15.7358 27.1548 15.8104C27.3712 15.8925 27.4832 16.1388 27.3899 16.3553C27.3376 16.4747 27.2555 16.5792 27.1884 16.6874C27.1622 16.7285 27.1361 16.777 27.1884 16.8181C27.2219 16.8442 27.2705 16.8367 27.3003 16.8143C27.3675 16.7695 27.4309 16.721 27.4906 16.6688C27.6437 16.5344 27.722 16.5232 27.8825 16.6053C28.0168 16.6762 28.0878 16.8218 28.0392 16.9897C27.9646 17.2472 27.8452 17.4711 27.5578 17.5532C27.4421 17.5943 27.3302 17.6167 27.1921 17.6242Z" fill="#FEFEFE"/>
<path d="M27.2519 18.0722C27.2444 18.2775 27.1996 18.4715 27.1437 18.6656C27.1175 18.7589 27.0728 18.8559 27.0168 18.9343C26.7966 19.2366 26.4607 19.2366 26.248 18.9343C26.1062 18.7365 26.0203 18.5126 25.9382 18.2849C25.9084 18.1991 25.9009 18.1319 26.0054 18.0909C26.1547 18.0274 26.2779 17.9229 26.3935 17.811C26.4644 17.7438 26.5204 17.7326 26.5988 17.7998C26.6884 17.8781 26.7929 17.9453 26.9086 17.9826C27.0168 18.0162 27.1325 18.0423 27.2519 18.0722Z" fill="#E58274"/>
<path d="M56.3809 44.9872C56.3809 45.2783 56.3735 45.5694 56.3847 45.8605C56.3921 46.0247 56.3287 46.0658 56.1757 46.062C55.8958 46.0546 55.6159 46.062 55.3323 46.0695C55.2427 46.0695 55.1718 46.0658 55.1755 45.9501C55.1942 45.3194 55.1457 44.6887 55.1307 44.0542C55.127 43.9609 55.1457 43.905 55.2576 43.9087C55.5898 43.9162 55.9182 43.9423 56.2503 43.9087C56.3623 43.8975 56.3809 43.9647 56.3809 44.058C56.3809 44.3677 56.3809 44.6775 56.3809 44.9872Z" fill="#FCFCFC"/>
<path d="M63.5762 52.3725C63.5762 51.9918 63.5799 51.6112 63.5725 51.2305C63.5687 51.1036 63.606 51.0551 63.7404 51.0626C63.9606 51.0701 64.1808 51.0589 64.401 51.0477C64.4905 51.0439 64.5577 51.0439 64.5577 51.1634C64.5465 51.9359 64.5913 52.7047 64.5428 53.4772C64.5278 53.7011 64.5166 53.7123 64.2927 53.7123C64.0651 53.716 63.8374 53.6936 63.6098 53.6824C63.5351 53.4697 63.5799 53.2495 63.5725 53.0331C63.5613 52.8129 63.5687 52.5927 63.5687 52.3725C63.5725 52.3725 63.5762 52.3725 63.5762 52.3725Z" fill="#FAFAFA"/>
<path d="M67.9911 51.0029C68.0471 51.1 68.0247 51.1821 68.0247 51.2567C68.0284 51.8874 68.0322 52.5218 68.0285 53.1525C68.0247 53.5743 68.021 53.4959 67.6926 53.4884C67.5321 53.4847 67.3716 53.4884 67.2112 53.4959C67.1104 53.4996 67.0693 53.466 67.0693 53.3615C67.0731 53.1899 67.0581 53.0219 67.0544 52.8503C67.0469 52.3091 67.0469 51.768 67.0357 51.2268C67.032 51.0888 67.0432 51.0104 67.2261 51.0216C67.4836 51.0328 67.7411 51.0514 67.9911 51.0029Z" fill="#FEFEFE"/>
<path d="M26.3198 16.5611C26.3012 16.6621 26.2413 16.7107 26.1329 16.7069C25.9796 16.6957 25.8151 16.5087 25.8263 16.3592C25.8375 16.2395 25.9123 16.1834 26.0282 16.1872C26.1553 16.1872 26.3273 16.419 26.3198 16.5611Z" fill="#111111"/>
<path d="M26.9051 16.5316C26.7929 16.5204 26.7555 16.4344 26.7555 16.326C26.7555 16.1615 26.8639 16.0306 26.9873 16.0269C27.1032 16.0269 27.1817 16.1166 27.1705 16.2475C27.1631 16.397 27.0434 16.5354 26.9051 16.5316Z" fill="#101010"/>
</g>
<defs>
<clipPath id="clip0_10513_50722">
<rect width="88" height="62" fill="white"/>
</clipPath>
</defs>
</svg>
