<svg width="74" height="62" viewBox="0 0 74 62" fill="none" xmlns="http://www.w3.org/2000/svg">
<g clip-path="url(#clip0_12951_2589)">
<circle cx="36" cy="30" r="35" fill="#F9F9F9"/>
<circle cx="36" cy="30" r="28" fill="#EDEDED"/>
<circle cx="36" cy="30" r="22" fill="#E0E0E0"/>
<path d="M47.5924 52.7337C47.5458 51.9188 47.5954 51.1024 47.5368 50.2878C47.5144 49.9751 47.3736 49.7575 47.0922 49.6313C46.8978 49.5442 46.6989 49.4667 46.5013 49.386C46.1931 49.2602 45.8866 49.243 45.5725 49.3767C45.4125 49.4446 45.2406 49.4839 45.0754 49.5399C44.819 49.627 44.8219 49.6273 44.6894 49.3729C44.6495 49.2963 44.6043 49.2159 44.5417 49.1591C44.4589 49.0842 44.4519 49.0049 44.4534 48.9015C44.4583 48.5338 44.4784 48.1609 44.2724 47.827C44.2541 47.797 44.2538 47.7527 44.2544 47.7151C44.259 47.385 44.252 47.0543 44.2742 46.7254C44.3301 45.9017 44.368 45.0777 44.3823 44.2526C44.3931 43.6317 44.3671 43.0103 44.414 42.3894C44.4446 41.9833 44.4598 41.5748 44.4554 41.1675C44.449 40.5856 44.3834 40.0061 44.3797 39.4234C44.3735 38.4908 44.2707 37.5637 44.1949 36.6354C44.1206 35.7264 44.0402 34.8182 43.961 33.9095C43.9307 33.5616 43.8867 33.2146 43.866 32.8664C43.85 32.5969 43.831 32.3277 43.8905 32.0553C43.9519 31.7741 43.903 31.5009 43.7451 31.2456C43.5333 30.9033 43.3145 30.5743 42.9307 30.4004C42.9045 30.3885 42.8725 30.3756 42.8585 30.3535C42.709 30.1175 42.4643 29.9823 42.2708 29.7929C41.747 29.2804 41.1608 28.8548 40.5212 28.4973C40.2211 28.3294 39.9461 28.1427 39.7573 27.8216C39.6247 27.5958 39.5228 27.4021 39.5481 27.1328C39.5726 26.8735 39.5866 26.5845 39.419 26.3736C39.2853 26.2052 39.2917 26.0408 39.287 25.8599C39.2836 25.7241 39.276 25.5884 39.271 25.4526C39.2503 24.8804 39.1725 24.3122 39.1699 23.7383C39.1658 22.8645 39.1312 21.9913 39.1242 21.1175C39.1192 20.5062 39.0394 19.8982 39.0647 19.2852C39.0714 19.1232 39.1213 19.0416 39.2594 18.9746C39.4074 18.9032 39.5446 18.8094 39.6486 18.6754C39.7016 18.6069 39.7343 18.5332 39.6588 18.4703C39.4893 18.3287 39.3459 18.1355 39.1315 18.0752C39.0111 18.0414 39.003 17.9974 39.0015 17.9059C38.9913 17.2072 38.9689 16.5083 38.973 15.8096C38.9753 15.4023 39.0103 14.995 39.0004 14.5871C38.9972 14.4519 38.9465 14.3062 38.982 14.1841C39.0269 14.0291 39.2302 14.0757 39.3453 13.9909C39.496 13.8802 39.6632 13.7885 39.6947 13.556C39.5761 13.5417 39.4919 13.6087 39.3902 13.5685C39.1682 13.4814 39.0781 13.322 39.0735 13.0982C39.0656 12.7186 39.1003 12.3422 39.1609 11.9678C39.2247 11.5741 39.2696 11.1794 39.2416 10.7793C39.2256 10.5503 39.1725 10.3228 39.0143 10.1628C38.8165 9.96295 38.7999 9.76424 38.8299 9.49357C38.9252 8.63524 38.9514 7.7702 38.9488 6.90633C38.947 6.40054 38.8847 5.89649 38.7204 5.41576C38.5135 4.81207 38.08 4.73981 37.6546 5.2188C37.0506 5.89883 36.5745 6.6613 36.1821 7.47885C36.1558 7.53333 36.1605 7.61899 36.0571 7.62627C35.7156 7.14583 35.1947 6.93256 34.6653 6.73006C34.2542 6.57302 33.8337 6.55816 33.4043 6.6278C32.696 6.7423 32.1284 7.12077 31.6008 7.57733C31.5443 7.62627 31.5084 7.70552 31.4056 7.71048C31.3246 7.54062 31.2421 7.36755 31.1591 7.19448C30.8232 6.49523 30.5062 5.78636 30.1093 5.1177C29.906 4.77507 29.7011 4.43097 29.3874 4.17487C29.0602 3.9077 28.763 3.9482 28.5142 4.28588C28.4457 4.37882 28.39 4.48284 28.3408 4.58743C28.217 4.8514 28.1235 5.12673 28.0564 5.4108C27.666 7.06658 27.5673 8.74858 27.6121 10.4422C27.6162 10.5966 27.5949 10.6943 27.4624 10.7776C27.1139 10.9964 26.9435 11.3396 27.0329 11.7224C27.1203 12.0974 26.9676 12.318 26.7284 12.5391C26.6789 12.5849 26.6387 12.6411 26.597 12.6947C26.107 13.3258 26.1358 14.2925 26.6676 14.8944C26.7226 14.9568 26.762 14.9999 26.7317 15.0931C26.5414 15.677 26.706 16.1991 27.0163 16.6976C27.201 16.9942 27.3575 17.3074 27.4909 17.6303C27.5638 17.8062 27.6649 17.9825 27.6567 18.1769C27.6249 18.9262 27.6928 19.6698 27.7584 20.4145C27.8213 21.1297 27.8717 21.8462 27.9183 22.5626C27.9859 23.5984 28.1372 24.6283 28.1357 25.6694C28.1351 26.0773 28.1444 26.4892 28.2359 26.8866C28.3848 27.5323 28.4661 28.1841 28.5013 28.844C28.5066 28.941 28.5182 29.0162 28.4358 29.1047C28.1718 29.3885 27.9253 29.6889 27.6765 29.9864C27.6215 30.0525 27.5579 30.1294 27.5451 30.209C27.5238 30.3427 27.4338 30.4042 27.3452 30.4794C26.8872 30.8692 26.4313 31.2614 25.9747 31.6529C25.9074 31.7106 25.8491 31.7782 25.8197 31.8613C25.7571 32.039 25.6481 32.187 25.5298 32.3283C25.2061 32.7143 25.0762 33.1692 25.121 33.6569C25.163 34.114 25.1333 34.5682 25.1359 35.0236C25.1417 36.1028 25.2501 37.175 25.3527 38.2475C25.3795 38.5272 25.4293 38.8086 25.3629 39.0878C25.316 39.2847 25.3264 39.475 25.3984 39.6594C25.4369 39.7582 25.4363 39.8415 25.3902 39.9365C25.269 40.187 25.2699 40.4464 25.3809 40.6978C25.4439 40.8403 25.443 40.9772 25.4156 41.1232C25.3961 41.2278 25.3838 41.3341 25.3739 41.4405C25.2979 42.2615 25.1633 43.0758 25.1216 43.9013C25.0872 44.5787 24.9722 45.2511 25.0062 45.9337C25.0173 46.1528 25.0491 46.3227 25.2737 46.4311C25.4508 46.5165 25.5549 46.6653 25.5464 46.8958C25.5385 47.1161 25.5878 47.3392 25.6219 47.5598C25.7271 48.2381 26.0799 48.7442 26.6859 49.0702C26.7372 49.0979 26.787 49.1282 26.8397 49.1524C26.9126 49.1856 26.9676 49.2293 27.0023 49.3074C27.0912 49.5069 27.2374 49.6649 27.407 49.7963C27.5119 49.8773 27.5431 49.9629 27.5308 50.0931C27.4816 50.615 27.4379 51.1374 27.4024 51.6601C27.2922 53.2774 27.169 54.8938 27.1541 56.5167C27.1495 57.0172 27.2057 57.5017 27.3374 57.9828C27.7272 59.4043 28.115 60.8264 28.4932 62.2511C28.6797 62.9539 28.8524 63.6607 29.0147 64.3693C29.1074 64.774 29.2973 65.0849 29.6892 65.2568C29.7746 65.2941 29.8713 65.3279 29.9299 65.4281C29.5502 66.0699 29.154 66.6999 28.5372 67.1555C28.3574 67.2884 28.1943 67.4416 28.0532 67.6165C27.9181 67.7843 27.8554 67.9702 27.9122 68.1864C27.9417 68.2988 27.9664 68.4124 27.9958 68.5249C28.0521 68.7411 28.2056 68.8495 28.4163 68.8681C28.5701 68.8818 28.7269 68.8748 28.8816 68.8635C30.1134 68.7729 31.2235 68.3527 32.2205 67.6255C32.5031 67.4192 32.7991 67.2333 33.1292 67.1098C33.5368 66.9571 33.9162 66.7476 34.2918 66.5306C34.3588 66.5303 34.3745 66.4784 34.3949 66.4304C34.3829 66.5049 34.325 66.558 34.2996 66.6267C34.2099 66.752 34.1286 66.8843 34.0292 67.0014C33.6592 67.4381 33.302 67.8868 32.8679 68.2653C32.6645 68.4427 32.5177 68.6653 32.5072 68.9418C32.4798 69.6568 32.6115 69.7151 33.1963 69.8156C33.4637 69.8614 33.7356 69.8815 34.0042 69.9208C35.3182 70.1128 36.5754 69.9721 37.7557 69.3183C38.0771 69.1403 38.399 68.9625 38.7393 68.8157C39.0004 68.7029 39.1798 68.4806 39.1848 68.161C39.1918 67.7132 39.1501 67.2689 39.1009 66.8251C39.0828 66.6614 39.0444 66.5041 39.1443 66.3499C39.1874 66.2835 39.1728 66.2002 39.1527 66.123C39.0822 65.85 39.0598 65.5711 39.0339 65.2909C38.9785 64.6912 38.9185 64.0931 38.9392 63.4894C38.9482 63.2275 38.9657 62.962 38.9348 62.7036C38.8934 62.3557 38.9415 62.0248 39.0522 61.7019C39.1568 61.398 39.1798 61.0924 39.1012 60.7868C39.0476 60.5782 39.1758 60.4115 39.1871 60.2204C39.1906 60.1592 39.2562 60.1633 39.3034 60.165C39.8132 60.1828 40.2768 59.9914 40.7374 59.8204C42.7559 59.0707 44.7943 58.3808 46.8521 57.7474C47.0464 57.6876 47.2335 57.6049 47.4258 57.5382C47.5942 57.4796 47.6717 57.3587 47.6857 57.1888C47.6903 57.1308 47.6927 57.0726 47.693 57.0143C47.6985 55.5858 47.6743 54.1587 47.5924 52.7337ZM33.913 63.0288C33.6315 62.1937 33.355 61.357 33.0745 60.5216C33.0098 60.3291 32.9358 60.1394 32.8627 59.95C32.7819 59.7411 32.7211 59.5293 32.7053 59.3035C32.6899 59.0788 32.6345 58.8627 32.5022 58.6747C32.4486 58.5984 32.4262 58.5192 32.4451 58.4285C32.5043 58.1421 32.4399 57.8683 32.3487 57.6014C32.3059 57.4761 32.2957 57.3569 32.3207 57.2314C32.4935 56.3573 32.6666 55.4832 32.8402 54.6095C32.8458 54.5815 32.8574 54.555 32.8661 54.5276C32.8839 54.5261 32.9017 54.5247 32.9195 54.5232C32.9643 54.7953 33.0144 55.0666 33.0526 55.3396C33.1013 55.686 33.1805 56.0246 33.2773 56.3602C33.3932 56.7623 33.4413 57.1746 33.4754 57.5912C33.5316 58.2765 33.6024 58.9609 33.7472 59.6345C33.9008 60.3477 33.9596 61.0714 33.9934 61.7975C34.0164 62.2908 33.9978 62.7858 34.052 63.2936C33.948 63.2231 33.9427 63.117 33.913 63.0288ZM40.5026 48.8365C40.4449 49.1591 40.3735 49.4769 40.2477 49.7805C40.2392 49.9842 40.2308 50.1881 40.3619 50.3647C40.4006 50.4168 40.3933 50.469 40.3756 50.5284C40.3508 50.6115 40.3359 50.6977 40.3222 50.7834C40.2727 51.0896 40.2736 51.0896 39.912 51.165C39.9956 50.6907 40.0842 50.2336 40.183 49.7779C40.2398 49.3875 40.2966 48.9974 40.354 48.6029C40.5099 48.6288 40.5247 48.7139 40.5026 48.8365Z" fill="#010101"/>
<path d="M40.7753 22.6482C40.6844 22.64 40.5184 22.6371 40.3572 22.6077C40.1851 22.5765 40.1588 22.5238 40.1635 22.3452C40.1684 22.1614 40.1816 21.9763 40.1679 21.7937C40.1428 21.4592 40.037 21.1509 39.8267 20.8823C39.6653 20.6763 39.5129 20.4633 39.3873 20.2329C39.2845 20.0444 39.2865 20.0033 39.4398 19.855C39.6431 19.6583 39.8812 19.5083 40.1329 19.3807C40.5469 19.1709 40.5478 19.1712 40.9059 19.4628C41.3659 19.8372 41.7936 20.2419 42.1363 20.7314C42.4096 21.1221 42.5634 21.5559 42.6193 22.0235C42.663 22.3886 42.5718 22.5101 42.2085 22.5436C41.756 22.5859 41.3059 22.6686 40.7753 22.6482Z" fill="#020202"/>
<path d="M44.4234 25.9687C43.4788 25.8617 42.6724 25.4891 42.0562 24.7467C41.8385 24.4845 41.6389 24.2103 41.495 23.9C41.3986 23.6923 41.4364 23.5979 41.6622 23.583C42.2869 23.5414 42.8827 23.3718 43.482 23.213C43.603 23.181 43.6921 23.2081 43.7906 23.3051C44.0916 23.602 44.4721 23.7404 44.887 23.7887C45.0988 23.8135 45.3126 23.8231 45.5239 23.8514C45.6809 23.8724 45.7234 23.9327 45.6972 24.0885C45.6797 24.1928 45.648 24.2963 45.6119 24.3959C45.4178 24.93 45.1471 25.4171 44.7506 25.8323C44.6533 25.9343 44.5574 25.9835 44.4234 25.9687Z" fill="#020202"/>
<path d="M47.52 21.4821C48.373 21.5063 49.1116 21.8288 49.7468 22.3987C49.9411 22.5729 49.9367 22.6117 49.7908 22.8378C49.5388 23.2288 49.2081 23.5609 48.9587 23.9548C48.8867 24.0685 48.7527 24.0824 48.621 24.0379C48.4995 23.9968 48.4001 23.919 48.2958 23.8491C47.6065 23.3896 46.8641 23.0872 46.0215 23.0755C45.8024 23.0726 45.7648 22.9968 45.8881 22.8098C45.9621 22.6973 46.055 22.5968 46.1442 22.4951C46.3933 22.2116 46.6744 21.9567 46.8982 21.6508C46.9594 21.5669 47.0346 21.5191 47.1377 21.5074C47.2624 21.4929 47.3865 21.4696 47.52 21.4821Z" fill="#020302"/>
<path d="M46.0902 20.6329C46.0684 20.7798 45.9848 20.8887 45.9006 20.9939C45.6445 21.3147 45.3272 21.5685 44.9936 21.803C44.9621 21.8252 44.9263 21.8418 44.8948 21.8639C44.6294 22.051 44.6329 22.046 44.3715 21.8828C43.8821 21.5772 43.5132 21.1664 43.26 20.6492C43.0692 20.2597 42.7976 19.9363 42.4509 19.6758C42.3982 19.6362 42.3186 19.6106 42.3315 19.5284C42.3451 19.4395 42.4296 19.4171 42.5019 19.3932C42.5471 19.3781 42.5963 19.3702 42.6438 19.3684C43.0217 19.353 43.3967 19.3064 43.769 19.2434C44.005 19.2035 44.1682 19.27 44.3095 19.4757C44.5347 19.8031 44.7963 20.0989 45.1806 20.2614C45.4155 20.3608 45.6587 20.4156 45.9061 20.459C46.0151 20.4779 46.0888 20.5173 46.0902 20.6329Z" fill="#020202"/>
<path d="M44.9559 17.5193C44.9615 17.3191 44.9422 16.9986 44.9918 16.6799C45.011 16.5558 45.0582 16.4986 45.1972 16.4957C45.7895 16.4835 46.2484 16.1968 46.6234 15.7612C46.7559 15.6074 46.8634 15.432 46.9896 15.2723C47.0968 15.1369 47.172 15.1191 47.2699 15.2528C47.5909 15.6916 47.9959 16.0613 48.2931 16.5185C48.3523 16.6097 48.3531 16.6857 48.2791 16.7801C47.9257 17.2308 47.5607 17.6679 47.1373 18.0583C46.7513 18.4143 46.281 18.5352 45.7886 18.6057C45.6342 18.6279 45.4859 18.6687 45.3335 18.6952C45.0311 18.7482 44.9647 18.6969 44.9574 18.3954C44.951 18.1436 44.9559 17.891 44.9559 17.5193Z" fill="#030403"/>
<path d="M40.6467 17.6569C40.6467 17.4728 40.6545 17.2883 40.6443 17.1048C40.6353 16.9472 40.7014 16.8653 40.8526 16.8525C40.989 16.8408 41.1178 16.8003 41.2489 16.7665C41.6192 16.6707 41.8843 16.4492 42.0472 16.104C42.1174 15.9554 42.1836 15.8048 42.2581 15.6585C42.3345 15.5093 42.3587 15.5038 42.4889 15.6055C42.8642 15.8989 43.1815 16.2532 43.5168 16.5885C43.6185 16.6902 43.6354 16.8076 43.5707 16.9341C43.3673 17.3318 43.1482 17.723 42.8277 18.0371C42.585 18.2752 42.2512 18.3451 41.9295 18.4141C41.7223 18.4587 41.5091 18.4756 41.2981 18.503C41.2311 18.5117 41.1626 18.5231 41.0962 18.5182C40.6863 18.4864 40.6248 18.4141 40.6397 18.0057C40.644 17.8897 40.6402 17.7734 40.6402 17.6572C40.6423 17.6569 40.6443 17.6569 40.6467 17.6569Z" fill="#030403"/>
<path d="M49.3678 20.7446C49.2787 20.7688 49.2172 20.7315 49.1642 20.693C48.7434 20.3903 48.254 20.3323 47.7595 20.302C47.548 20.2892 47.3353 20.2522 47.1229 20.2878C47.0125 20.3061 46.9373 20.2656 46.8779 20.177C46.6777 19.879 46.523 19.557 46.3808 19.2287C46.3537 19.166 46.3785 19.1197 46.4068 19.067C46.4572 18.972 46.5452 18.9289 46.6384 18.907C47.3056 18.7509 47.9606 18.7412 48.582 19.0868C49.1146 19.3831 49.6414 19.9393 49.3678 20.7446Z" fill="#030303"/>
<path d="M36.3029 16.5778C36.2248 16.5303 36.1543 16.4811 36.0779 16.4424C35.853 16.3281 35.6266 16.3241 35.4154 16.4703C35.212 16.611 35.1307 16.8138 35.1867 17.0548C35.21 17.1556 35.182 17.1827 35.0946 17.222C34.6975 17.4015 34.6488 17.5242 34.6969 17.976C34.7298 18.2837 34.7147 18.5958 34.7566 18.9043C34.8301 19.4445 34.9309 19.9768 35.1785 20.4692C35.3449 20.8002 35.5765 21.0647 35.9401 21.1909C36.2539 21.2995 36.5316 21.2611 36.7644 21.0082C36.8022 20.9671 36.8267 20.9068 36.9065 20.9007C37.003 21.0971 36.9794 21.3106 36.9838 21.5207C36.989 21.7785 37.0479 21.8316 37.3028 21.7777C37.6349 21.7074 37.9618 21.6154 38.2832 21.5044C38.3922 21.4668 38.5049 21.4406 38.6159 21.4091C38.6867 21.4816 38.6617 21.5626 38.6628 21.6343C38.6698 22.1488 38.6547 22.6645 38.6806 23.1782C38.7322 24.1971 38.6366 25.2162 38.7033 26.234C38.7191 26.4743 38.5664 26.629 38.4225 26.7502C38.0574 27.0582 37.7325 27.4058 37.3954 27.7403C36.8127 28.3186 36.1336 28.7714 35.4841 29.2635C35.136 29.5274 34.789 29.7932 34.4493 30.0676C33.7153 30.6611 32.922 31.1689 32.1365 31.6881C31.8125 31.9023 31.4876 32.1147 31.1561 32.3166C30.9504 32.4419 30.9419 32.4343 30.8175 32.2472C30.4038 31.6246 29.9912 31.0014 29.5807 30.3767C29.3931 30.0912 29.2701 29.79 29.2276 29.438C29.1614 28.8897 29.0755 28.3445 29.0303 27.7921C28.9951 27.3592 28.8774 26.9332 28.799 26.5037C28.7063 25.9968 28.6539 25.4852 28.6469 24.97C28.6373 24.2399 28.5149 23.5208 28.4444 22.7968C28.3908 22.2465 28.3445 21.6955 28.2996 21.1443C28.2265 20.2448 28.151 19.3457 28.089 18.4457C28.0598 18.0212 28.0339 17.5973 28.1003 17.1696C28.202 16.5117 28.5082 15.9628 28.9275 15.464C29.2896 15.0331 29.6197 14.5753 30.0145 14.1715C30.1255 14.0582 30.2176 13.9285 30.1174 13.7569C30.1078 13.7406 30.0929 13.7147 30.099 13.7042C30.2598 13.4291 30.1975 13.0784 30.3959 12.8176C30.6074 12.5393 30.8239 12.2649 31.0378 11.9884C31.2936 11.6583 31.6359 11.5595 32.0357 11.7078C32.1627 11.755 32.2824 11.8223 32.4098 11.8684C32.5648 11.9243 32.7288 11.9864 32.8812 11.8719C32.966 11.8083 33.0242 11.864 33.095 11.8841C33.2436 11.9263 33.396 11.9884 33.5306 11.8497C33.5621 11.8171 33.5988 11.8162 33.6372 11.8264C33.8193 11.8745 33.9971 11.8838 34.1803 11.8147C34.2302 11.7958 34.3082 11.8439 34.3706 11.8684C34.641 11.9747 34.9067 12.1084 35.2071 11.9636C35.2359 11.9496 35.284 11.9665 35.3198 11.9788C35.6164 12.0799 35.9232 11.9112 36.2224 12.0155C36.2749 12.0338 36.3568 11.9948 36.4147 11.9633C36.5674 11.8803 36.6968 11.8541 36.8159 12.0248C36.8704 12.1029 36.9753 12.0834 37.0613 12.0618C37.1647 12.0362 37.2649 11.996 37.3692 11.9744C37.6486 11.917 37.831 12.0566 37.8526 12.3418C37.8666 12.5257 37.8741 12.7101 37.8852 12.8939C37.8974 13.0993 37.9493 13.2951 38.0216 13.4871C38.0997 13.6937 38.2197 13.8592 38.4143 13.9752C38.5993 14.0853 38.5982 14.1243 38.4452 14.2671C38.0122 14.6712 37.5787 15.0744 37.1463 15.4788C37.047 15.5718 36.9447 15.6627 36.8559 15.7649C36.7099 15.9334 36.7425 16.0257 36.9628 16.0624C37.0251 16.0726 37.0496 16.0881 37.0476 16.1437C37.0458 16.1918 37.0109 16.2069 36.968 16.2052C36.6732 16.1921 36.4832 16.3707 36.3029 16.5778Z" fill="#D0C7C0"/>
<path d="M38.6 33.8054C39.0055 33.6894 39.0047 33.6894 39.0172 33.2363C39.0449 32.2332 39.2456 31.258 39.5 30.2922C39.606 29.8895 39.7179 29.4886 39.8292 29.0877C39.8572 28.9866 39.893 28.8873 39.9344 28.7588C40.307 29.0193 40.6511 29.2762 40.9973 29.532C41.4028 29.8319 41.7909 30.1541 42.1869 30.465C42.5187 30.7254 42.8567 30.9912 43.1096 31.3449C43.2928 31.601 43.3837 31.8754 43.38 32.1857C43.3703 32.9913 43.4175 33.792 43.5396 34.59C43.5892 34.9137 43.583 35.2467 43.6037 35.5751C43.6649 36.5415 43.7407 37.5065 43.838 38.47C43.8409 38.4988 43.8409 38.5282 43.842 38.5571C43.8846 39.6908 43.9356 40.8247 43.9114 41.959C43.8962 42.6655 43.8435 43.3715 43.8083 44.0777C43.8039 44.1648 43.8016 44.2522 43.8016 44.3396C43.7998 45.2906 43.7884 46.2419 43.8039 47.1929C43.8088 47.495 43.6629 47.6704 43.4274 47.7849C42.975 48.0052 42.5158 48.2085 42.0208 48.3263C41.6677 48.4102 41.3329 48.4043 40.9949 48.2767C40.8929 48.2383 40.8437 48.1849 40.8192 48.0745C40.6619 47.3642 40.5725 46.646 40.5241 45.9205C40.4798 45.2545 40.4078 44.5902 40.3668 43.9242C40.3434 43.5463 40.2986 43.1725 40.2368 42.7998C40.2211 42.7045 40.21 42.6064 40.1791 42.5157C40.0938 42.2666 40.0486 42.0292 40.1118 41.755C40.1774 41.4706 40.0224 41.2084 39.8752 40.9649C39.7368 40.7356 39.7354 40.7213 39.9012 40.52C39.9804 40.4235 40.0212 40.3218 39.9664 40.1986C39.9114 40.0748 39.868 39.9442 39.8009 39.8274C39.7083 39.6654 39.6754 39.5066 39.7453 39.328C39.7887 39.2167 39.7939 39.0955 39.7494 38.9857C39.6631 38.7727 39.664 38.5513 39.6556 38.3281C39.6378 37.8535 39.6113 37.3794 39.5883 36.9051C39.5681 36.762 39.5352 36.6207 39.5201 36.4771C39.7823 35.5051 39.8898 34.495 40.2348 33.5423C40.437 32.984 40.6872 32.4497 41.0016 31.9468C41.221 31.596 41.4896 31.295 41.9313 31.1971C41.7318 31.0666 41.584 31.0789 41.3652 31.2607C41.0267 31.5418 40.747 31.8728 40.5389 32.2647C40.1051 33.0825 39.7403 33.9245 39.6043 34.8496C39.5915 34.937 39.5606 35.0183 39.5175 35.0955C39.3336 35.4608 39.1853 35.8417 39.0819 36.235C38.8208 37.2276 38.5158 38.2118 38.4406 39.245C38.417 39.5704 38.452 39.8877 38.5595 40.1907C38.894 41.1321 38.8771 42.1143 38.9178 43.0903C38.9228 43.2074 38.9132 43.324 38.8331 43.4207C38.1865 43.747 37.5648 44.1229 36.8941 44.4017C36.7962 44.4425 36.7018 44.4929 36.6106 44.5474C36.541 44.589 36.4876 44.6514 36.529 44.7397C36.571 44.8291 36.647 44.8259 36.7266 44.7927C36.8778 44.7289 37.0307 44.6686 37.1796 44.6001C37.7326 44.346 38.2841 44.0894 38.8363 43.8335C38.8954 43.7928 38.963 43.8079 38.9799 43.8638C39.0813 44.1957 39.2284 44.5261 39.0685 44.8816C38.6192 45.1426 38.1903 45.4442 37.6822 45.5904C37.4311 45.6627 37.4008 45.6522 37.2557 45.4322C37.1607 45.2883 37.1044 45.1173 36.9611 45.0068C36.9127 44.9695 36.8612 44.943 36.8052 44.9876C36.7644 45.0202 36.7475 45.0663 36.7697 45.1164C36.9159 45.4479 37.0071 45.818 37.3772 45.9948C37.5939 46.1755 37.841 46.167 38.0918 46.0997C38.3724 46.0245 38.6384 45.9103 38.9018 45.7865C39.1544 45.6676 39.2159 45.7073 39.2838 45.98C39.3333 46.1784 39.3377 46.3829 39.3534 46.5837C39.3834 46.9668 39.4198 47.3488 39.4703 47.7293C39.2366 47.9286 38.9423 48.0148 38.6696 48.1322C37.8422 48.4885 37.0307 48.8836 36.1803 49.1849C35.3493 49.4792 34.505 49.7309 33.656 49.9686C33.4803 50.0179 33.4284 49.9593 33.348 49.8227C32.8506 48.9777 32.4561 48.0786 31.969 47.2287C31.7327 46.8167 31.4909 46.408 31.2511 45.9977C31.1631 45.8474 31.0652 45.7017 31.0212 45.5298C31.0693 45.3771 31.0801 45.3661 31.201 45.4634C31.3467 45.5808 31.495 45.6822 31.6838 45.7122C31.7508 45.723 31.8169 45.7384 31.8851 45.7294C31.9527 45.7204 32.0381 45.711 32.0483 45.635C32.0602 45.5447 31.9626 45.5511 31.9046 45.5249C31.7502 45.4552 31.5261 45.4826 31.4985 45.235C31.5078 45.2181 31.5183 45.2015 31.5261 45.184C31.6482 44.9153 31.6459 44.7464 31.4996 44.6249C31.3193 44.4754 31.1267 44.5066 30.9306 44.6202C30.8546 44.4157 30.8639 44.203 30.8592 43.9932C30.8496 43.5585 30.8624 43.1229 30.7456 42.6973C30.7284 42.6343 30.7433 42.5627 30.7433 42.4951C30.7721 42.4429 30.8021 42.3931 30.8726 42.4412C30.944 42.6372 30.949 42.8706 31.1759 42.979C31.4349 43.1885 31.5623 43.2156 31.8303 43.1078C31.7473 42.9743 31.55 42.9601 31.5072 42.796C31.527 42.5527 31.5081 42.322 31.3003 42.1513C31.2517 41.9965 31.3636 41.9205 31.4568 41.8383C32.0888 41.281 32.751 40.7606 33.4118 40.2385C33.8756 39.872 34.306 39.4658 34.7334 39.0597C35.3012 38.5201 35.8775 37.9878 36.4011 37.4027C36.7184 37.0482 36.987 36.6566 37.2781 36.2819C37.4322 36.0835 37.4281 35.8489 37.4328 35.6161C37.7035 35.2085 37.5826 34.8219 37.3696 34.4402C37.3509 34.407 37.3364 34.3718 37.3198 34.3377C37.2592 34.1693 37.3932 34.1632 37.4908 34.1495C37.6443 34.1279 37.797 34.0909 37.9517 34.0877C38.2096 34.0827 38.422 33.986 38.6 33.8054Z" fill="#585858"/>
<path d="M38.6072 51.4703C38.4813 51.5502 38.3316 51.5426 38.1941 51.5808C37.9799 51.6405 37.771 51.7093 37.5694 51.8045C37.3235 51.9208 37.2061 52.1134 37.204 52.3773C37.2014 52.7345 37.2069 53.0917 37.209 53.4489C37.1178 54.9943 37.1044 56.5411 37.114 58.0888C37.1166 58.492 37.0665 58.5223 36.6752 58.464C36.5225 58.4413 36.3034 58.3481 36.2434 58.5471C36.1881 58.7315 36.4089 58.8011 36.5482 58.8792C36.762 58.999 36.9724 59.1187 37.0435 59.3783C37.1082 59.614 37.0248 59.7221 36.7851 59.6819C36.5284 59.6385 36.2764 59.5671 36.0191 59.5255C35.9885 59.522 35.9579 59.515 35.9285 59.5059C35.7904 59.4611 35.6505 59.4179 35.504 59.4127C35.3973 59.4089 35.2753 59.401 35.2321 59.5275C35.1905 59.6502 35.2834 59.7285 35.3688 59.7923C35.5649 59.9392 35.7898 60.0307 36.0188 60.1134C36.3655 60.2387 36.7268 60.3206 37.0659 60.4692C37.278 60.5621 37.4409 60.6932 37.5336 60.9187C37.6469 61.1949 37.6274 61.421 37.387 61.6215C37.2075 61.7712 37.086 61.9758 36.9325 62.1509C36.8649 62.2278 36.8139 62.3373 36.679 62.3029C36.6373 62.2759 36.5872 62.2508 36.5479 62.2933C36.327 62.5323 36.064 62.7423 35.9943 63.0867C35.9865 63.1866 35.9538 63.2799 35.8801 63.3466C35.5739 63.6237 35.3609 63.9981 34.9824 64.2006C34.8676 64.262 34.77 64.3538 34.814 64.5024C34.8566 64.6457 34.9804 64.6807 35.1141 64.6792C35.2578 64.6778 35.4046 64.704 35.5424 64.6399C35.9649 64.4322 36.2026 64.0403 36.4855 63.6942C36.57 63.5907 36.6315 63.4687 36.739 63.3836C36.8623 63.2857 36.9334 63.1429 37.0452 63.0351C37.174 62.9107 37.2914 62.9136 37.426 63.029C37.6967 63.2609 37.7343 63.5779 37.7497 63.8993C37.7678 64.2766 37.6798 64.6487 37.6897 65.028C37.699 65.3884 37.7104 65.7421 37.8424 66.0839C37.8736 66.1643 37.956 66.2849 37.7859 66.3318C37.1557 66.1739 36.5394 65.9723 35.9419 65.7174C35.6272 65.5833 35.3271 65.574 35.0183 65.7284C34.8487 65.8132 34.8327 65.8053 34.7697 65.627C34.6561 65.3057 34.597 64.9721 34.5906 64.6315C34.5818 64.1758 34.6043 63.7184 34.571 63.2647C34.5212 62.5899 34.5492 61.9102 34.4268 61.2392C34.375 60.9546 34.4093 60.66 34.3805 60.3698C34.3231 59.7894 34.1407 59.2353 34.0419 58.6639C34.0271 58.5783 34.0049 58.4944 34.0052 58.4067C34.0064 57.6969 33.8817 57.002 33.7582 56.3066C33.6198 55.5263 33.4916 54.7443 33.3599 53.9629C33.2637 53.3913 33.1693 52.8193 33.0732 52.2477C33.0636 52.1906 33.051 52.1335 33.0324 52.079C32.9529 51.8465 32.8678 51.827 32.66 51.991C32.4762 52.1728 32.2338 52.2491 32.0062 52.3511C31.7245 52.4776 31.4407 52.6002 31.1942 52.7905C31.1106 52.8552 31.0051 52.9362 31.0535 53.0501C31.1135 53.1923 31.2432 53.1395 31.3539 53.1005C31.478 53.0378 31.5957 52.9612 31.7312 52.9222C31.7589 52.9134 31.7868 52.905 31.8154 52.9015C31.9284 52.8881 32.0654 52.7409 32.1478 52.9003C32.2163 53.0329 32.0648 53.1203 31.9818 53.2071C31.8154 53.3811 31.6479 53.5535 31.499 53.7429C31.2709 54.018 30.9856 54.2411 30.7785 54.5357C30.6951 54.654 30.5996 54.7641 30.5495 54.9028C30.5722 55.2093 30.3589 55.4165 30.2325 55.6609C30.1727 55.7763 30.0273 55.9389 30.143 56.0184C30.3009 56.1271 30.3732 55.908 30.4542 55.8063C30.6115 55.6093 30.77 55.415 30.9611 55.2498C31.0698 55.156 31.1928 55.1044 31.3352 55.1575C31.4897 55.2151 31.5098 55.3529 31.5121 55.4922C31.5188 55.9467 31.5182 56.4012 31.5124 56.8558C31.5112 56.9534 31.4964 57.0504 31.4515 57.1372C31.3344 57.3627 31.3157 57.6002 31.3661 57.8432C31.4075 58.0419 31.3379 58.1616 31.1409 58.2077C30.872 58.2884 30.6686 58.4751 30.4658 58.6523C30.1955 58.8888 29.9277 59.1251 29.6087 59.2967C29.4781 59.367 29.3945 59.4678 29.4711 59.6289C29.5746 59.7888 29.7083 59.7029 29.8345 59.6746C29.9096 59.6577 29.9924 59.6231 30.0463 59.7055C30.0882 59.7696 30.044 59.8343 30.0212 59.8981C29.9752 60.0283 29.7881 60.1787 29.9067 60.2789C30.0262 60.3797 30.1815 60.2011 30.3146 60.1321C30.488 60.042 30.6264 59.9019 30.7817 59.7853C31.0459 59.5872 31.1846 59.6164 31.3081 59.9261C31.4486 60.2774 31.5774 60.6338 31.7306 60.9802C32.0293 61.6541 32.371 62.3094 32.5822 63.0203C32.697 63.4069 32.6799 63.4462 32.2784 63.5138C32.0575 63.5511 31.8361 63.5759 31.6161 63.5045C31.3201 63.3303 31.0098 63.2382 30.666 63.3428C30.5162 63.388 30.3682 63.36 30.2188 63.3384C30.1005 63.3215 29.9749 63.2831 29.8735 63.3888C29.7721 63.6024 29.9606 63.668 30.0757 63.7434C30.4291 63.9756 30.8236 64.1038 31.2441 64.1563C31.4935 64.1874 31.7423 64.2539 31.9826 64.1181C32.1164 64.0849 32.2524 64.0895 32.3876 64.0965C32.4742 64.1009 32.5747 64.1003 32.6155 64.1927C32.6627 64.2996 32.5814 64.3751 32.517 64.4462C32.3646 64.6154 32.1697 64.7227 31.9628 64.8089C31.8655 64.8494 31.7641 64.88 31.6706 64.9298C31.2577 65.1046 30.8484 65.1096 30.4309 64.933C30.1972 64.8342 29.9871 64.6944 29.7605 64.5846C29.5891 64.5015 29.565 64.3235 29.5265 64.1679C29.4149 63.7166 29.3013 63.2662 29.1632 62.8219C28.9246 62.0533 28.8124 61.2555 28.6277 60.4744C28.3958 59.4937 28.1321 58.522 27.8567 57.5533C27.7816 57.289 27.7504 57.0239 27.751 56.75C27.7527 55.9156 27.7667 55.0814 27.8331 54.2496C27.9104 53.2834 27.9669 52.3167 28.0068 51.3488C28.0147 51.1557 28.0426 50.9634 28.0616 50.7705C28.1831 50.6875 28.2644 50.7868 28.3448 50.8433C28.8503 51.1994 29.4496 51.3083 30.0244 51.4765C30.3056 51.5586 30.46 51.4703 30.6004 51.2128C30.7916 50.8617 30.9139 50.4818 31.0398 50.1048C31.1721 49.7088 31.3081 49.3146 31.487 48.9367C31.5322 48.8414 31.5809 48.7214 31.7044 48.731C31.8093 48.7392 31.8451 48.8543 31.8845 48.9425C32.1458 49.5276 32.4162 50.1056 32.8048 50.6234C33.0295 50.9226 33.2996 51.0648 33.6748 51.0426C34.6835 50.9829 35.6435 50.7306 36.5779 50.3556C37.2527 50.0849 37.9563 49.8894 38.6165 49.5777C38.8266 49.4783 38.9105 49.529 38.9076 49.7662C38.9003 50.3489 38.84 50.9258 38.6072 51.4703Z" fill="#585858"/>
<path d="M47.0759 50.2544C47.0948 50.31 47.1068 50.3284 47.1062 50.3462C47.0814 51.1124 47.1962 51.8752 47.1653 52.6415C47.1581 52.8247 47.1085 53.0089 47.1219 53.1895C47.1945 54.1871 47.1502 55.1868 47.1831 56.1847C47.1913 56.4343 47.2192 56.6858 47.2312 56.9369C47.2385 57.0922 47.1688 57.1697 47.0313 57.2128C45.9518 57.5531 44.8724 57.8932 43.7938 58.2367C42.9264 58.5129 42.071 58.8235 41.2258 59.1617C40.7217 59.3633 40.2005 59.5105 39.6816 59.6643C39.4919 59.7205 39.4482 59.6961 39.4086 59.4939C39.3177 59.03 39.2364 58.565 39.1831 58.0942C39.1364 57.6822 39.1216 57.2659 39.0345 56.8583C38.9919 56.6596 38.9846 56.453 38.9718 56.2537C38.9488 55.8869 38.8754 55.5236 38.8937 55.1535C38.9238 54.5522 38.8127 53.9546 38.8366 53.353C38.8378 53.3238 38.8384 53.2941 38.8328 53.2658C38.8145 53.1714 38.8052 53.0535 38.6802 53.0529C38.5479 53.0523 38.5546 53.1706 38.5397 53.2673C38.4675 53.7396 38.4797 54.2101 38.5295 54.685C38.5639 55.0119 38.5429 55.3444 38.5485 55.6742C38.5566 56.1482 38.6041 56.6191 38.6502 57.0908C38.6776 57.3693 38.7012 57.6502 38.7122 57.9293C38.7285 58.3471 38.8025 58.7547 38.8704 59.1641C38.8897 59.2806 38.8932 59.3931 38.8958 59.5443C38.5931 59.3963 38.3658 59.1891 38.1356 58.9922C38.0401 58.9103 38.0436 58.7597 38.0307 58.6376C38.0144 58.4837 37.9821 58.3293 37.9768 58.1784C37.9661 57.8585 37.8938 57.545 37.9034 57.2233C37.9168 56.7679 37.853 56.3172 37.8003 55.8656C37.7668 55.5778 37.7633 55.2861 37.7473 54.9974C37.7245 54.5822 37.6677 54.1673 37.677 53.751C37.6843 53.4293 37.6164 53.1155 37.599 52.7965C37.5896 52.6289 37.6048 52.4949 37.7242 52.3423C37.9349 52.5608 38.2239 52.6423 38.4838 52.7796C38.6493 52.867 38.8014 52.8644 38.9841 52.8131C40.5778 52.3661 42.1459 51.8391 43.7201 51.331C44.7424 51.0009 45.7654 50.6734 46.788 50.345C46.8792 50.3165 46.9698 50.2879 47.0759 50.2544Z" fill="#363636"/>
<path d="M27.7084 34.3949C27.6393 34.4716 27.577 34.5561 27.4995 34.6231C27.3538 34.7489 27.2783 34.899 27.2967 35.0924C27.1184 35.5502 27.1897 36.0149 27.2943 36.4677C27.5676 37.6514 27.8878 38.823 28.4341 39.9164C28.7135 40.4761 29.0955 40.9671 29.5194 41.4245C29.6843 41.6025 29.8565 41.7741 30.034 41.9396C30.214 42.1074 30.2397 42.298 30.1738 42.5232C30.1348 42.6569 30.0657 42.7199 29.9235 42.7047C29.7108 42.682 29.4967 42.6829 29.2834 42.6957C29.2182 42.6998 29.1375 42.7027 29.1243 42.7904C29.1124 42.8696 29.1721 42.9156 29.2336 42.9459C29.4492 43.0529 29.6829 43.0511 29.9165 43.0593C30.0593 43.0642 30.2866 43.0054 30.2889 43.2195C30.2915 43.4366 30.0628 43.3687 29.9206 43.3865C29.8012 43.4013 29.6703 43.3673 29.5474 43.4858C29.7237 43.6277 29.9087 43.584 30.0803 43.5598C30.3148 43.5266 30.4049 43.6277 30.4049 43.8468C30.4049 43.9342 30.406 44.0219 30.392 44.1085C30.2595 44.9353 30.4384 45.7077 30.7915 46.4527C30.9436 46.7738 31.1563 47.0753 31.1545 47.4532C31.0435 47.8568 30.8757 48.2393 30.6953 48.614C30.4296 49.1652 30.191 49.7267 29.9739 50.298C29.897 50.5005 29.8857 50.504 29.7068 50.4236C29.0326 50.1215 28.4041 49.7342 27.7631 49.3703C27.5341 49.2404 27.4514 49.0711 27.4712 48.8031C27.5172 48.1848 27.5545 47.5663 27.6381 46.9515C27.6431 46.9151 27.6399 46.8749 27.6941 46.8408C27.7751 46.8927 27.8613 46.9527 27.9519 47.0054C28.2471 47.1773 28.4499 47.1412 28.6658 46.8766C28.784 46.7318 28.8589 46.5637 28.9085 46.3842C28.9268 46.3178 28.9501 46.2371 28.8869 46.1952C28.8018 46.1392 28.7427 46.2187 28.6926 46.2741C28.5885 46.3892 28.488 46.5075 28.3916 46.629C28.289 46.7583 28.1815 46.7682 28.037 46.6893C27.8065 46.5634 27.646 46.4207 27.7054 46.1188C27.7518 45.8849 27.7561 45.6427 27.7827 45.3671C28.0198 45.5422 28.2462 45.6864 28.4909 45.7983C28.6244 45.8592 28.7628 45.9044 28.9076 45.9181C29.0093 45.9277 29.0445 45.8554 28.9932 45.766C28.9321 45.6593 28.8251 45.6063 28.7269 45.546C28.4956 45.4038 28.2628 45.2637 28.0256 45.1314C27.8476 45.0321 27.7567 44.9219 27.8007 44.69C27.8529 44.4153 27.8363 44.1291 27.7462 43.8559C27.6839 43.6668 27.6702 43.4701 27.7168 43.281C27.764 43.0881 27.7317 42.913 27.6527 42.7455C27.556 42.5404 27.5277 42.3358 27.5175 42.1054C27.4907 41.497 27.4301 40.8881 27.3413 40.2856C27.211 39.4051 27.0534 38.5284 26.8891 37.6535C26.8069 37.2164 26.6904 36.7855 26.5785 36.3546C26.4902 36.0146 26.4654 35.6655 26.4366 35.32C26.3961 34.8375 26.3466 34.3539 26.3608 33.8682C26.3652 33.7207 26.3265 33.5797 26.2953 33.4381C26.2828 33.3807 26.2399 33.3297 26.1764 33.3236C26.094 33.3155 26.0607 33.3813 26.0339 33.4445C26.0232 33.4708 26.0191 33.5014 26.0194 33.5302C26.0199 33.9652 25.9375 34.3958 25.9958 34.8361C26.0503 35.248 26.0191 35.6676 26.061 36.0842C26.0951 36.4234 26.1522 36.7549 26.2283 37.0853C26.376 37.7269 26.5266 38.3679 26.6738 39.0097C26.7434 39.3127 26.7055 39.6262 26.7859 39.9424C26.6516 39.9566 26.5884 39.8745 26.5091 39.8314C26.4273 39.7868 26.3369 39.6941 26.251 39.7932C26.1473 39.9126 26.281 39.9802 26.3434 40.0569C26.4628 40.2034 26.6359 40.2748 26.7952 40.3686C26.6216 40.3852 26.4957 40.269 26.3489 40.2145C26.2784 40.1883 26.2003 40.1297 26.1452 40.2247C26.1004 40.3019 26.1417 40.3733 26.1983 40.4339C26.3361 40.5822 26.5153 40.6585 26.7046 40.7045C26.8588 40.7421 26.929 40.8281 26.9476 40.9816C26.9782 41.2313 27.0254 41.479 27.0563 41.7287C27.0741 41.8723 27.0796 42.0151 27.0356 42.1607C26.9631 42.4008 26.9727 42.6403 27.1044 42.8638C27.1874 43.0042 27.2232 43.1575 27.1705 43.3113C27.0764 43.5858 27.1606 43.8305 27.285 44.0639C27.3439 44.1743 27.3692 44.2792 27.35 44.3969C27.2515 45.002 27.2407 45.6121 27.2346 46.2234C27.2326 46.425 27.1953 46.6264 27.1728 46.8414C27.0009 46.8492 26.8693 46.7648 26.7326 46.705C26.404 46.5614 26.08 46.4075 25.7507 46.2654C25.6065 46.2033 25.557 46.1098 25.5532 45.9516C25.5331 45.1166 25.5593 44.2839 25.6552 43.4541C25.7397 42.7234 25.8265 41.9929 25.899 41.2607C25.9328 40.9199 25.9742 40.5912 25.8649 40.2608C25.8376 40.1781 25.8658 40.1116 25.918 40.0467C26.0106 39.9313 26.0132 39.804 25.9789 39.6618C25.9218 39.4264 25.9165 39.1848 25.9052 38.9418C25.8612 38.0127 25.7944 37.0844 25.7385 36.1559C25.7099 35.6816 25.7041 35.2055 25.6555 34.7335C25.5928 34.1263 25.7347 33.5392 25.7869 32.9431C25.7974 32.8242 25.8475 32.7106 25.9206 32.6244C26.1828 32.3152 26.3521 31.9339 26.6793 31.6748C26.9223 31.4826 27.1487 31.2702 27.3855 31.0117C27.4438 31.2725 27.4147 31.4986 27.3981 31.7215C27.3718 32.0688 27.3296 32.4152 27.2984 32.7622C27.2777 32.9932 27.2652 33.2249 27.2489 33.4562C27.3054 33.7289 27.3975 33.9821 27.6145 34.175C27.6754 34.2286 27.7398 34.2947 27.7084 34.3949Z" fill="#585858"/>
<path d="M39.1223 27.8477C39.2919 28.0548 39.4245 28.2186 39.5591 28.3805C39.6313 28.4674 39.5739 28.5452 39.546 28.6247C39.3397 29.2097 39.1637 29.8038 38.988 30.3985C38.8091 31.0039 38.7328 31.6292 38.6025 32.2439C38.5437 32.5216 38.5568 32.8033 38.5192 33.081C38.4848 33.3359 38.4776 33.3359 38.2066 33.3383C37.7602 33.3418 37.3139 33.3435 36.8672 33.3467C36.7993 33.3473 36.7303 33.3435 36.6639 33.3546C36.5103 33.3799 36.4491 33.4583 36.4523 33.6148C36.455 33.7441 36.508 33.8595 36.5584 33.9749C36.6947 34.2872 36.8722 34.5762 37.0537 34.8635C37.1597 35.0313 37.1886 35.0651 37.0324 35.2653C36.3874 36.0924 35.677 36.8616 34.9699 37.6337C34.6555 37.9769 34.3167 38.2968 33.9752 38.6144C33.713 38.8586 33.4723 39.126 33.2273 39.388C32.7029 39.9485 32.1347 40.4628 31.5672 40.9779C31.5468 40.9965 31.5188 41.0073 31.4766 41.0082C31.8848 40.2769 32.4293 39.6388 32.894 38.9469C33.3701 38.2377 33.8106 37.5067 34.2535 36.7774C34.6914 36.0566 35.1074 35.3224 35.5287 34.5914C35.95 33.8604 36.3588 33.1224 36.7859 32.3946C37.218 31.6583 37.6501 30.9226 38.0376 30.1619C38.4187 29.4134 38.7849 28.6568 39.1223 27.8477Z" fill="#585858"/>
<path d="M35.5136 11.1996C35.5518 10.8992 35.3819 10.6781 35.2129 10.4683C34.745 9.88762 34.1282 9.60996 33.3835 9.62832C32.8652 9.64113 32.434 9.8681 32.0546 10.2049C31.4206 10.7681 30.9131 11.4426 30.4035 12.113C30.1384 12.4618 29.8488 12.7857 29.5271 13.0809C29.3025 13.2869 29.0306 13.4157 28.7422 13.5095C28.6693 13.5331 28.5956 13.5465 28.4951 13.5004C28.7468 13.3638 28.9601 13.2027 29.1751 13.0427C29.6029 12.7243 29.8796 12.2966 30.1197 11.8444C30.6074 10.9257 31.1677 10.0572 31.841 9.26558C32.1289 8.92702 32.4462 8.61411 32.8742 8.43725C33.2183 8.29507 33.558 8.2974 33.889 8.44133C34.4749 8.69569 34.9755 9.07241 35.3921 9.55839C35.4172 9.58753 35.4346 9.62657 35.4649 9.64696C35.5145 9.68018 35.5561 9.66707 35.5684 9.60151C35.5853 9.51119 35.5558 9.43136 35.522 9.34891C35.3533 8.93897 35.0559 8.64091 34.6934 8.40433C34.5072 8.28313 34.3062 8.18436 34.1104 8.07859C33.9918 8.0145 33.8802 7.95593 33.7917 7.83852C33.6789 7.68905 33.4945 7.63573 33.3133 7.58678C32.9939 7.50054 32.6831 7.55066 32.3704 7.61621C32.3442 7.62175 32.316 7.61679 32.2489 7.61679C32.3728 7.4717 32.5231 7.42916 32.6533 7.36157C32.931 7.21764 33.2291 7.15937 33.5397 7.11362C34.1553 7.02301 34.6864 7.24007 35.1916 7.52647C35.5975 7.75635 35.8632 8.13512 36.0409 8.56516C36.1295 8.7793 36.1945 9.00336 36.2662 9.2245C36.2901 9.2985 36.3072 9.37367 36.3818 9.42903C36.5724 9.32968 36.4689 9.12048 36.5395 8.95528C36.7347 9.14467 36.6886 9.38562 36.7277 9.5916C36.7702 9.81624 36.7728 10.0476 36.5109 10.1962C36.3944 10.2623 36.3221 10.4126 36.2405 10.5321C36.2015 10.5892 36.1957 10.6687 36.2633 10.7142C36.318 10.7512 36.3751 10.7192 36.4191 10.6757C36.5094 10.5875 36.5919 10.4901 36.6895 10.4112C37.0141 10.1484 37.341 9.92637 37.7975 9.90714C38.2992 9.88587 38.6599 10.292 38.796 10.6481C38.9356 11.0131 38.9309 11.3971 38.8776 11.7675C38.8181 12.1783 38.7858 12.592 38.7372 13.0031C38.7109 13.2254 38.7622 13.4663 38.9306 13.679C38.7666 13.7402 38.662 13.6592 38.562 13.5776C38.3097 13.3717 38.2267 13.0762 38.2051 12.7773C38.1839 12.4807 38.192 12.1812 38.2378 11.8796C38.3124 11.3884 38.044 10.9359 37.5461 10.822C37.2646 10.7576 37.0053 10.8648 36.7711 10.9942C36.5354 11.1238 36.3102 11.285 36.1123 11.4671C35.9445 11.6218 35.7531 11.6241 35.557 11.6477C35.5445 11.6492 35.5287 11.6244 35.5145 11.6119C35.4795 11.4743 35.4792 11.3368 35.5136 11.1996Z" fill="#382A1C"/>
<path d="M37.7857 66.3321C37.8483 66.2887 37.8312 66.2389 37.8041 66.1815C37.6479 65.8525 37.6138 65.5044 37.6071 65.1425C37.5992 64.7171 37.6837 64.2981 37.6683 63.8748C37.6569 63.5648 37.6156 63.2621 37.342 63.0462C37.2534 62.9763 37.2091 62.9766 37.1281 63.0506C36.9862 63.1799 36.9259 63.3845 36.7377 63.4689C36.6605 63.3477 36.7593 63.2679 36.812 63.1837C36.9405 62.9789 37.083 62.7828 37.2039 62.4859C36.8971 62.7024 36.7377 62.9634 36.5469 63.191C36.2669 63.5249 36.0457 63.906 35.7249 64.2078C35.6046 64.3212 35.4968 64.4491 35.3051 64.4293C35.2477 64.4234 35.1784 64.4377 35.1833 64.5161C35.1877 64.5848 35.2535 64.6009 35.3106 64.6157C35.4015 64.639 35.509 64.6096 35.5781 64.7011C35.3677 64.8036 35.1411 64.7745 34.9319 64.7331C34.6877 64.6851 34.6341 64.3771 34.8212 64.2093C34.8561 64.1778 34.903 64.1592 34.9447 64.1356C35.1215 64.0362 35.278 63.922 35.3995 63.7486C35.5085 63.5931 35.662 63.4681 35.7998 63.3335C35.8788 63.2563 35.9403 63.175 35.9295 63.0576C36.1518 62.916 36.3012 62.7117 36.4315 62.488C36.4898 62.388 36.5238 62.2534 36.6762 62.2429C36.7086 62.2855 36.7447 62.2747 36.7709 62.2412C36.997 61.9536 37.2164 61.6602 37.4856 61.4096C37.5296 61.3689 37.5663 61.3164 37.5515 61.2564C37.4842 60.9866 37.4378 60.7101 37.1337 60.5752C36.7887 60.4222 36.4251 60.3296 36.0696 60.2107C35.8394 60.1338 35.6201 60.0359 35.4097 59.9182C35.1836 59.7917 35.0761 59.6257 35.1218 59.4975C35.1725 59.3553 35.3797 59.283 35.6317 59.348C35.7284 59.3731 35.8473 59.36 35.9222 59.4532C35.9082 59.5039 35.7485 59.545 35.8674 59.5922C36.5404 59.8585 37.1698 60.2203 37.8457 60.4866C37.71 60.2588 37.4821 60.1629 37.263 60.0642C36.9009 59.9007 36.5323 59.7515 36.1541 59.6268C36.0641 59.5971 35.9306 59.6018 35.9231 59.4529C36.199 59.434 36.4542 59.5388 36.7182 59.5898C36.8134 59.6082 36.9023 59.6481 37.0104 59.5884C36.9658 59.327 36.9 59.0878 36.5981 58.9981C36.5067 58.971 36.4251 58.9119 36.338 58.8696C36.266 58.8349 36.2138 58.7781 36.1605 58.7219C36.0845 58.6415 36.083 58.5439 36.1145 58.4498C36.148 58.3492 36.2412 58.3501 36.331 58.3417C36.5189 58.3239 36.6975 58.3702 36.8732 58.4189C36.9955 58.453 37.0331 58.4165 37.0323 58.3012C37.0308 58.0491 37.0317 57.7971 37.032 57.5451C37.0323 56.8665 37.0375 56.188 37.0317 55.5094C37.0276 55.0062 37.1051 54.5077 37.1031 54.0037C37.1022 53.8257 37.0999 53.6191 37.2094 53.4492C37.2444 53.5197 37.2636 53.5934 37.2618 53.6736C37.2516 54.1488 37.2735 54.6231 37.3259 55.0948C37.3898 55.6708 37.3935 56.2524 37.4836 56.826C37.4941 56.8928 37.4935 56.9615 37.4932 57.0294C37.49 57.5235 37.5005 58.0151 37.6019 58.5031C37.6383 58.6791 37.6077 58.8687 37.6077 59.0674C37.3959 59.0261 37.2289 58.8944 37.0288 58.8585C36.9635 58.8469 36.8971 58.7973 36.8437 58.8696C36.7773 58.9599 36.8566 59.0156 36.9105 59.0636C37.2001 59.3227 37.5573 59.4613 37.9215 59.5528C38.2219 59.6283 38.4019 59.8733 38.6673 59.9881C38.7309 60.0155 38.7143 60.086 38.6912 60.1428C38.6621 60.2148 38.6327 60.2865 38.6035 60.3581C38.5359 60.5257 38.5287 60.6912 38.582 60.868C38.6373 61.0513 38.6356 61.2383 38.628 61.4359C38.593 62.344 38.3457 63.2335 38.4206 64.1522C38.459 64.6245 38.5263 65.0924 38.5762 65.5626C38.5989 65.7762 38.6015 66.0014 38.4838 66.1733C38.304 66.4352 38.112 66.4585 37.7857 66.3321Z" fill="#383737"/>
<path d="M38.9371 27.0303C38.9927 27.1547 38.9668 27.2255 38.896 27.2957C38.7151 27.476 38.5959 27.6989 38.4776 27.9227C38.3139 28.2324 38.1114 28.5185 37.8996 28.7962C36.8987 30.1084 35.9093 31.4297 34.8345 32.684C34.2465 33.3705 33.6251 34.0251 32.9762 34.6542C32.915 34.7136 32.8632 34.7882 32.7525 34.8121C32.3437 34.1612 31.9372 33.5025 31.4326 32.9189C31.4434 32.8134 31.5363 32.8047 31.5961 32.765C32.8416 31.9393 34.1175 31.1579 35.2677 30.195C35.5949 29.9211 35.9379 29.6627 36.2942 29.4287C37.0963 28.9014 37.7775 28.2403 38.4371 27.5524C38.5976 27.3851 38.7573 27.2182 38.9371 27.0303Z" fill="white"/>
<path d="M29.8031 63.352C29.9057 63.174 30.0779 63.2247 30.2162 63.2567C30.3698 63.2922 30.519 63.2963 30.6719 63.2928C30.8782 63.4461 31.1116 63.4732 31.3587 63.4449C31.4426 63.4353 31.5311 63.405 31.6083 63.4711C31.8886 63.4679 32.1683 63.4758 32.4466 63.417C32.5742 63.3901 32.6132 63.3552 32.5701 63.227C32.425 62.7958 32.2968 62.357 32.0981 61.9479C31.7849 61.3026 31.4848 60.6531 31.2532 59.9734C31.2345 59.9186 31.2095 59.8645 31.1774 59.8167C31.0874 59.6812 31.028 59.6739 30.9018 59.7829C30.6673 59.9857 30.4251 60.1794 30.1489 60.3207C30.0365 60.3781 29.8905 60.4964 29.7818 60.3924C29.6761 60.2913 29.8142 60.1643 29.8541 60.05C29.894 59.9352 29.9969 59.8499 30.0251 59.6931C29.8535 59.7272 29.7224 59.8205 29.5619 59.805C29.4348 59.7928 29.3876 59.7441 29.3978 59.6247C30.1935 59.5533 30.6405 58.9822 31.1066 58.4359C31.199 58.3278 31.1699 58.2466 31.0833 58.1621C31.1168 58.1449 31.1495 58.1157 31.1841 58.1131C31.3021 58.1038 31.3386 58.0371 31.3088 57.936C31.2203 57.6338 31.2374 57.3457 31.3997 57.0709C31.4411 57.001 31.4344 56.9215 31.4344 56.844C31.435 56.3889 31.4364 55.9338 31.4359 55.4787C31.4356 55.3744 31.4568 55.2535 31.3222 55.2106C31.2013 55.1722 31.1008 55.2097 31.0082 55.3018C30.8019 55.5063 30.6026 55.7158 30.4432 55.96C30.3896 56.0424 30.3278 56.117 30.2422 56.1651C30.1795 56.2004 30.1087 56.196 30.0493 56.154C29.9864 56.1097 29.9814 56.0477 29.9998 55.9734C30.0572 55.7423 30.1991 55.555 30.3214 55.3604C30.4135 55.2141 30.4951 55.0667 30.549 54.9035C30.6102 55.0967 30.6142 55.1008 30.7322 54.9904C30.8808 54.8514 31.0251 54.7072 31.1664 54.5606C31.6486 54.0595 32.1835 53.6169 32.7091 53.1426C32.7312 53.2702 32.7347 53.3835 32.6936 53.494C32.3414 54.4394 32.1782 55.4323 31.9615 56.4116C31.8968 56.7035 31.8324 56.9958 31.7604 57.2859C31.7365 57.3827 31.7147 57.4791 31.7546 57.5706C31.8711 57.8392 31.8563 58.1207 31.8423 58.401C31.8318 58.6128 31.8569 58.803 32.0224 58.9592C32.1095 59.0417 32.1409 59.1602 32.1325 59.2803C32.1173 59.4997 32.1771 59.7039 32.2578 59.9012C32.4926 60.4754 32.6505 61.073 32.8096 61.6709C33.0063 62.4097 33.2764 63.125 33.5237 63.8476C33.6062 64.0885 33.6111 64.0807 33.3909 64.1923C33.2012 64.2884 33.0136 64.3907 32.8329 64.5034C32.4745 64.7272 32.0862 64.8641 31.671 64.9305C31.8307 64.7919 32.0294 64.7164 32.2056 64.6042C32.3606 64.5055 32.4923 64.3912 32.5995 64.2129C32.3804 64.1319 32.1712 64.1899 31.9685 64.1736C31.4321 63.9085 30.8211 63.8633 30.2833 63.6034C30.1201 63.525 29.9365 63.4863 29.8031 63.352Z" fill="#383737"/>
<path d="M28.6909 11.1948C28.7891 11.3183 28.8736 11.2061 28.9386 11.163C29.2611 10.95 29.581 10.7318 29.891 10.5008C30.2718 10.217 30.6267 9.90175 30.9562 9.55853C30.9955 9.51774 31.0349 9.47258 31.0964 9.47345C31.1418 9.51162 31.1229 9.54804 31.0987 9.57747C30.7097 10.0512 30.4079 10.5806 30.1066 11.1115C29.8724 11.5237 29.7107 11.9826 29.4004 12.3453C29.0694 12.732 28.7305 13.1209 28.2017 13.2622C28.0365 13.3065 27.8751 13.2905 27.7117 13.299C27.6222 13.3036 27.5307 13.3019 27.4923 13.4027C27.453 13.5064 27.527 13.5722 27.5951 13.6224C28.0287 13.9408 28.4972 14.06 29.0132 13.8406C29.1813 13.7692 29.343 13.6824 29.5373 13.5883C29.5359 13.7605 29.4866 13.9076 29.5466 14.053C29.5699 14.1089 29.4866 14.1395 29.447 14.18C28.8695 14.7674 28.3142 15.372 27.929 16.1117C27.804 16.3518 27.7627 16.6169 27.6674 16.9019C27.2965 16.4322 26.9914 15.9745 27.0681 15.3618C27.092 15.1718 27.1721 15.0089 27.2886 14.865C27.4346 14.6846 27.5934 14.5148 27.7466 14.3403C27.7851 14.2966 27.8323 14.2578 27.8594 14.208C27.8976 14.1369 27.98 14.0579 27.8789 13.9781C27.8014 13.9169 27.7149 13.928 27.6374 13.9866C27.4518 14.127 27.2729 14.2753 27.1135 14.4463C27.0809 14.4813 27.0433 14.5113 27.0075 14.5442C26.6427 14.0617 26.525 13.3581 26.8158 12.9225C26.9148 12.7742 27.0416 12.6568 27.1639 12.5341C27.3769 12.3212 27.5715 12.0942 27.7417 11.846C27.7842 11.7839 27.8606 11.7198 27.7874 11.6438C27.7251 11.5788 27.6452 11.6085 27.5747 11.6525C27.5523 11.6662 27.5238 11.6703 27.4969 11.679C27.4608 11.3166 27.5106 11.2306 27.8326 11.0506C28.2889 10.7953 28.7477 10.543 29.1571 10.2141C29.4586 9.97196 29.7558 9.72402 30.0481 9.47054C30.5673 9.02069 31.069 8.54723 31.6919 8.23752C32.0873 8.04086 32.4847 7.83924 32.9937 7.89314C32.8127 8.03707 32.6146 8.06883 32.4611 8.18187C32.2775 8.31706 32.0951 8.43943 31.86 8.5044C31.6249 8.56908 31.4195 8.74186 31.2394 8.9225C30.9652 9.19754 30.6934 9.47491 30.4149 9.74558C30.0259 10.1238 29.6014 10.4609 29.1807 10.802C29.1411 10.8341 29.0977 10.8504 29.0475 10.8519C28.9974 10.7974 28.8981 10.8623 28.8614 10.7746C28.8847 10.5794 29.0977 10.5692 29.1682 10.4501C29.0286 10.5678 28.8585 10.6805 28.6807 10.8035C28.6557 10.8128 28.7046 10.8539 28.6892 10.8184C28.6851 10.8093 28.6924 10.8044 28.7055 10.7962C28.7568 10.7639 28.8089 10.7476 28.8657 10.7816C28.9167 10.9428 28.7699 10.9801 28.6903 11.0578C28.6402 11.1071 28.5831 11.1493 28.6909 11.1948Z" fill="#372A1C"/>
<path d="M38.6071 51.4704C38.5812 51.1831 38.7347 50.9291 38.7554 50.6482C38.7811 50.2968 38.8831 49.9501 38.8163 49.5626C38.6249 49.6544 38.4574 49.7511 38.2785 49.8172C37.435 50.1302 36.5915 50.4428 35.7419 50.7391C35.2493 50.911 34.7371 51.0057 34.217 51.0654C33.9862 51.0919 33.7575 51.1149 33.525 51.1216C33.2249 51.1304 33.0023 50.9958 32.8231 50.7755C32.403 50.2595 32.1221 49.6631 31.8506 49.0623C31.804 48.9592 31.7725 48.8499 31.6822 48.7427C31.5045 49.0116 31.4092 49.2951 31.3069 49.5731C31.1065 50.1176 30.9392 50.6735 30.7 51.205C30.559 51.5182 30.3277 51.6618 29.9469 51.5418C29.5515 51.4174 29.1532 51.3008 28.7613 51.1662C28.5693 51.1004 28.4024 50.9777 28.2381 50.8583C28.183 50.818 28.1376 50.7662 28.0618 50.7706C28.0612 50.6735 28.0557 50.5765 28.0606 50.4798C28.0703 50.2892 28.1052 50.2686 28.2643 50.3635C28.5137 50.5124 28.7625 50.6619 29.0274 50.7837C29.2651 50.8926 29.5037 50.9978 29.7563 51.0692C30.0372 51.1487 30.1639 51.087 30.2781 50.8201C30.6997 49.8327 31.1289 48.8482 31.5814 47.8745C31.5884 47.859 31.6102 47.8506 31.6312 47.834C31.709 47.8914 31.7539 47.9744 31.7964 48.0586C32.1676 48.7949 32.63 49.4772 33.0507 50.1844C33.3199 50.6371 33.4044 50.6665 33.9012 50.5194C35.8334 49.9466 37.7304 49.2823 39.5167 48.3328C39.6487 48.2626 39.7629 48.1489 39.9558 48.123C39.8909 48.4348 39.8285 48.7244 39.7708 49.0148C39.6432 49.6579 39.5179 50.3015 39.3915 50.9451C39.3859 50.9733 39.376 51.0016 39.3754 51.0302C39.3734 51.1141 39.4483 51.1962 39.3842 51.2813C39.3108 51.3789 39.1884 51.3646 39.0908 51.3844C38.9308 51.4165 38.7744 51.478 38.6071 51.4704Z" fill="#383737"/>
<path d="M29.6726 40.5105C28.9037 39.6329 28.3277 38.7061 28.1161 37.5835C27.9996 36.9656 27.8679 36.3502 27.7429 35.734C27.7353 35.6961 27.7269 35.6583 27.7181 35.6207C27.638 35.2687 27.6176 34.9453 27.9836 34.7102C28.1054 34.6318 28.1671 34.4637 28.265 34.3434C28.3664 34.2187 28.3577 34.0969 28.2822 33.9672C28.1298 33.7053 27.9506 33.4626 27.7132 33.2738C27.6136 33.1945 27.587 33.1159 27.6066 33.0005C27.7391 32.2176 27.8388 31.431 27.8857 30.6379C27.8912 30.5458 27.911 30.466 27.983 30.4051C28.1549 30.2594 28.2776 30.0709 28.4244 29.8984C28.5156 29.9366 28.4722 30.0144 28.4725 30.0709C28.4733 30.3331 28.4629 30.5951 28.4634 30.8573C28.4652 31.7794 28.5374 32.6955 28.7146 33.6019C28.7239 33.6491 28.7434 33.6968 28.7414 33.7435C28.6881 34.9494 28.8454 36.1378 29.0348 37.3239C29.1018 37.7444 29.1574 38.1665 29.2055 38.5896C29.2682 39.1429 29.4366 39.6676 29.6085 40.1929C29.6367 40.2812 29.6959 40.3666 29.6726 40.5105Z" fill="#585858"/>
<path d="M30.4721 8.61041C30.3046 8.12123 30.0729 7.70604 29.8602 7.28212C29.7819 7.12595 29.6924 6.9759 29.5814 6.84013C29.494 6.73321 29.399 6.63181 29.2423 6.65396C29.0791 6.67726 29.0328 6.81216 28.9902 6.94152C28.911 7.18306 28.8819 7.4345 28.8769 7.68652C28.8641 8.35518 28.8527 9.02472 28.9031 9.69222C28.9139 9.83352 28.8912 9.92676 28.7615 10.0016C28.5209 10.1406 28.2892 10.295 28.0477 10.4465C28.0477 10.138 28.0407 9.86149 28.0489 9.58529C28.0888 8.25671 28.2184 6.93715 28.4623 5.62955C28.5177 5.33207 28.6127 5.04888 28.7432 4.77675C28.7936 4.67128 28.8463 4.56814 28.9576 4.51074C29.1138 4.59174 29.2026 4.73217 29.2935 4.86882C29.8203 5.66131 30.2649 6.49954 30.6769 7.35612C30.7902 7.59154 30.8966 7.83103 31.0239 8.05917C31.081 8.16172 31.0641 8.2165 30.9776 8.2736C30.8168 8.37995 30.6571 8.48717 30.4721 8.61041Z" fill="#D0C7C0"/>
<path d="M35.8745 32.9452C35.3635 33.8677 34.8516 34.7895 34.3417 35.7125C33.7316 36.8171 33.0545 37.8802 32.3637 38.9352C32.1385 38.9996 32.1857 38.8047 32.172 38.7094C32.0793 38.0676 31.975 37.4272 31.8899 36.7841C31.8389 36.4004 31.797 36.0153 31.739 35.6324C31.7244 35.5363 31.7061 35.4401 31.7276 35.344C31.76 35.2003 31.7996 35.0421 31.9459 34.9868C32.1108 34.9244 32.1717 35.0946 32.2602 35.1878C32.3203 35.2507 32.3765 35.3183 32.4257 35.3903C32.5793 35.6149 32.7838 35.6234 33.0169 35.5418C33.5384 35.3591 33.9236 34.9891 34.2837 34.5961C34.7481 34.0894 35.2024 33.5731 35.6222 33.0277C35.6755 32.9581 35.7341 32.7932 35.8745 32.9452Z" fill="white"/>
<path d="M39.5872 36.4247C39.5875 36.585 39.5881 36.7452 39.5884 36.9055C39.5109 36.8524 39.5732 36.7301 39.4634 36.675C39.2769 36.8047 39.267 37.022 39.2548 37.2093C39.2192 37.7562 39.1951 38.3066 39.3387 38.8456C39.3751 38.9823 39.3565 39.1116 39.3099 39.243C39.205 39.5382 39.1991 39.8283 39.3658 40.1078C39.4625 40.27 39.4468 40.4553 39.4031 40.617C39.3064 40.9751 39.3938 41.2848 39.5849 41.5803C39.6231 41.6394 39.6571 41.6933 39.6359 41.7673C39.5383 42.1038 39.584 42.4409 39.6673 42.7678C39.7093 42.9322 39.6539 42.9951 39.5266 43.0586C39.2935 43.1749 39.0645 43.2999 38.8338 43.4213C38.8775 42.7437 38.7743 42.0706 38.7624 41.3941C38.7563 41.0375 38.6153 40.6785 38.5063 40.3298C38.4195 40.0512 38.356 39.7672 38.3391 39.4825C38.3268 39.2768 38.3423 39.0565 38.3822 38.8514C38.5911 37.7731 38.8113 36.6966 39.1866 35.6605C39.2647 35.4449 39.3413 35.2252 39.4768 35.0347C39.5875 35.1477 39.5412 35.282 39.5301 35.4128C39.5016 35.7523 39.452 36.0937 39.5872 36.4247Z" fill="#383737"/>
<path d="M31.1372 35.625C31.215 36.3959 31.298 37.1663 31.3685 37.9378C31.4242 38.5461 31.4854 39.153 31.6168 39.7503C31.6404 39.8575 31.6529 39.9508 31.5795 40.051C31.2744 40.4656 31.0145 40.9087 30.7669 41.3595C30.7494 41.3912 30.7217 41.4175 30.6999 41.4451C30.6745 41.4314 30.6486 41.4265 30.6442 41.414C30.4391 40.8394 30.2392 40.2625 30.03 39.6894C29.9709 39.5274 29.9651 39.3686 29.9919 39.204C30.137 38.3151 30.3342 37.4361 30.5076 36.5527C30.6678 36.5812 30.6244 36.7243 30.6562 36.8225C30.6943 36.9405 30.6841 37.0693 30.7398 37.2406C30.8686 36.909 30.9064 36.604 30.9446 36.3007C30.9662 36.1291 30.9903 35.958 31.018 35.7876C31.0291 35.7188 31.023 35.6238 31.1372 35.625Z" fill="#A1A09E"/>
<path d="M31.1558 47.4531C30.9641 46.9039 30.6384 46.412 30.4673 45.8541C30.2928 45.2845 30.1975 44.7079 30.3208 44.1121C30.3362 44.0372 30.3313 43.9574 30.3316 43.8799C30.3324 43.6185 30.3324 43.6238 30.0676 43.652C29.933 43.6663 29.7961 43.6576 29.6603 43.6587C29.5405 43.6596 29.4493 43.6083 29.4208 43.4909C29.3998 43.405 29.5251 43.317 29.6746 43.3106C29.8296 43.3042 29.9851 43.3085 30.1404 43.305C30.2005 43.3036 30.2622 43.2899 30.2546 43.2098C30.2488 43.1503 30.1975 43.1366 30.1471 43.136C30.0114 43.134 29.8747 43.1267 29.7395 43.1366C29.57 43.1489 29.4144 43.0918 29.255 43.0565C29.1807 43.0402 29.1125 42.9974 29.0575 42.9388C28.9989 42.8764 28.9779 42.8062 29.0027 42.7252C29.0298 42.6364 29.1012 42.6099 29.1845 42.6113C29.4741 42.6163 29.7649 42.5813 30.0466 42.6469C30.0644 42.6233 30.0793 42.6096 30.0865 42.5927C30.2139 42.2864 30.0903 42.0758 29.8572 41.8678C29.3937 41.454 29.0082 40.9704 28.6569 40.4553C28.3527 40.0092 28.1642 39.5116 27.9608 39.0215C27.6155 38.1891 27.4256 37.3072 27.1992 36.4384C27.1115 36.1013 27.1153 35.7487 27.1226 35.3991C27.1255 35.2572 27.1712 35.1558 27.2977 35.0923C27.3895 35.3519 27.3667 35.6278 27.4084 35.895C27.5646 36.8984 27.7149 37.8998 28.1114 38.8473C28.3652 39.4533 28.725 39.9909 29.1283 40.4999C29.5187 40.9928 29.8599 41.5257 30.3091 41.9706C30.3881 42.0487 30.4094 42.1422 30.3785 42.2375C30.2646 42.5912 30.345 42.9301 30.4603 43.2607C30.5387 43.4851 30.5684 43.7086 30.5649 43.9443C30.558 44.4198 30.5696 44.8955 30.5606 45.371C30.5565 45.5916 30.6049 45.7926 30.7025 45.9861C30.8645 46.3063 31.0133 46.6341 31.1928 46.9441C31.3047 47.1366 31.3289 47.2946 31.1558 47.4531Z" fill="#383737"/>
<path d="M35.8745 32.9455C35.8023 32.8767 35.7725 32.9522 35.7425 32.9907C35.3268 33.5273 34.8891 34.0448 34.432 34.5471C34.1695 34.8355 33.8784 35.0902 33.5836 35.3405C33.3817 35.5115 33.1276 35.5966 32.8759 35.6691C32.6807 35.7253 32.5163 35.6662 32.3931 35.4934C32.2704 35.3215 32.1373 35.1572 31.9974 34.9748C31.8302 35.1866 31.7638 35.376 31.8116 35.6341C31.9045 36.1376 31.9488 36.6501 32.0187 37.1582C32.0953 37.7141 32.1787 38.2689 32.2573 38.8245C32.2667 38.8912 32.2914 38.9335 32.3637 38.9352C32.2725 39.0695 32.181 39.2038 32.0723 39.3638C31.9928 39.2548 31.9858 39.152 31.9677 39.0558C31.7818 38.0728 31.7032 37.0769 31.6195 36.0817C31.5968 35.8113 31.5656 35.5415 31.5275 35.2729C31.5147 35.182 31.4995 35.0989 31.57 35.029C31.716 34.8839 31.8083 34.6995 31.9453 34.5159C32.1408 34.7534 32.3363 34.9777 32.5169 35.2134C32.6576 35.3973 32.7474 35.4328 32.956 35.3212C33.1891 35.1962 33.3814 35.0162 33.5681 34.8323C34.3507 34.062 35.0736 33.2374 35.7743 32.3931C36.1213 31.975 36.4601 31.5499 36.8045 31.1292C36.8654 31.0549 36.9138 30.9678 37.0006 30.9165C37.0463 30.964 37.0102 31.0033 36.9881 31.0424C36.632 31.6656 36.2757 32.2888 35.9185 32.9111C35.9101 32.926 35.8897 32.9341 35.8745 32.9455Z" fill="#A1A09E"/>
<path d="M35.5136 11.1998C35.5955 11.337 35.5949 11.4743 35.5142 11.6118C35.4131 11.5803 35.3111 11.5503 35.2109 11.5165C35.1337 11.4906 35.0536 11.4778 34.9904 11.534C34.8762 11.6357 34.7622 11.608 34.6393 11.5593C34.5405 11.5206 34.4368 11.4949 34.3366 11.4594C34.2608 11.4326 34.1661 11.4072 34.1119 11.4518C33.9552 11.5803 33.8098 11.522 33.6527 11.4667C33.5123 11.4171 33.3704 11.3918 33.2644 11.5456C33.2143 11.6182 33.1458 11.5905 33.0831 11.557C32.9672 11.4946 32.8483 11.4684 32.721 11.5206C32.7035 11.5279 32.6802 11.5389 32.6659 11.5331C32.3725 11.4093 32.0657 11.3324 31.7549 11.2677C31.6852 11.2534 31.6698 11.1887 31.7196 11.1328C32.2193 10.5684 32.765 10.0836 33.5921 10.1567C33.8727 10.1815 34.1416 10.2753 34.3733 10.4417C34.6314 10.627 34.8767 10.8307 35.1334 11.0186C35.2465 11.1019 35.349 11.2193 35.5136 11.1998Z" fill="#281C0F"/>
<path d="M38.1492 5.375C38.5959 6.78953 38.4173 8.17697 38.3063 9.57431C38.2489 9.56907 38.2026 9.56266 38.1559 9.56062C38.0111 9.55421 37.9578 9.49128 37.9735 9.33744C38.0216 8.8634 37.9954 8.38733 37.9858 7.91184C37.9823 7.73731 37.9782 7.56163 37.9121 7.39614C37.818 7.16014 37.6708 7.12459 37.4978 7.30844C37.2489 7.5727 37.0776 7.88882 36.9238 8.21455C36.8743 8.31944 36.8279 8.42608 36.7711 8.55194C36.6062 8.43511 36.4078 8.37567 36.3481 8.1525C36.3268 8.07354 36.316 8.00769 36.3644 7.93281C36.7965 7.26532 37.1417 6.54334 37.6318 5.91226C37.7743 5.72958 37.9185 5.54807 38.1492 5.375Z" fill="#CFC6BF"/>
<path d="M46.6745 50.0188C45.3998 50.4267 44.1927 50.8122 42.9859 51.1991C42.0644 51.4945 41.1419 51.787 40.2227 52.0898C39.8367 52.2168 39.4573 52.3645 39.0768 52.5081C38.9405 52.5597 38.8289 52.5548 38.698 52.47C38.4798 52.3287 38.2427 52.2162 37.9746 52.0705C38.7473 51.7596 39.5491 51.681 40.2903 51.4135C40.454 51.6859 40.6667 51.7958 40.919 51.7538C41.2224 51.7031 41.3016 51.6009 41.3759 51.1638C41.3948 51.165 41.4187 51.1595 41.4321 51.1688C41.7069 51.3587 41.9851 51.2981 42.261 51.1772C42.3522 51.1373 42.442 51.1082 42.5416 51.1187C42.8397 51.1498 43.0867 51.0336 43.2496 50.7996C43.3874 50.6018 43.617 50.5945 43.7845 50.4678C43.8428 50.4238 43.8894 50.4914 43.936 50.5205C44.1056 50.6254 44.2938 50.6085 44.4745 50.5837C44.6729 50.5563 44.8253 50.3944 44.8378 50.1916C44.8468 50.045 44.9176 49.9888 45.0409 49.9518C45.2078 49.9014 45.3797 49.8586 45.5353 49.7828C45.9592 49.5762 46.2841 49.7956 46.6745 50.0188Z" fill="#353535"/>
<path d="M43.9574 48.7903C43.9815 49.0519 43.9775 49.3092 43.9125 49.5685C43.8437 49.8438 43.6931 50.0507 43.4341 50.1471C43.2336 50.2217 43.085 50.347 42.9408 50.4912C42.8863 50.5457 42.8275 50.5976 42.7634 50.6398C42.7194 50.669 42.6681 50.7033 42.6212 50.6226C42.5364 50.4772 42.4143 50.5105 42.2949 50.5763C42.2357 50.6089 42.1815 50.6509 42.1224 50.6838C41.8066 50.8612 41.6367 50.8234 41.3928 50.5099C41.4773 50.4201 41.5219 50.2879 41.6889 50.4504C41.7978 50.5568 41.9397 50.4729 41.9686 50.2899C42.0018 50.079 41.9884 49.8648 41.952 49.6539C41.9403 49.5871 41.9298 49.5193 41.9062 49.4563C41.878 49.3806 41.8246 49.3203 41.7349 49.3238C41.6597 49.3267 41.6117 49.3745 41.5892 49.4456C41.5219 49.6562 41.3468 49.7899 41.2218 49.9592C41.1755 50.0219 41.1047 50.0577 41.0301 50.0851C40.8066 50.1675 40.6601 50.0516 40.7055 49.8162C40.7329 49.6743 40.7865 49.5379 40.8232 49.3975C40.8501 49.2946 40.869 49.1897 40.8914 49.0857C40.9686 49.0097 41.0549 49.0525 41.1362 49.0715C42.0027 49.2722 42.8182 49.1128 43.6048 48.732C43.7286 48.6723 43.8816 48.5205 43.9574 48.7903Z" fill="#D0C7C0"/>
<path d="M37.4331 35.6162C37.5488 35.7992 37.5141 35.9804 37.4296 36.1631C37.3143 36.4131 37.1135 36.6016 36.9594 36.8236C36.7155 37.175 36.4038 37.4681 36.1261 37.7894C35.6806 38.3051 35.1644 38.746 34.6725 39.2095C34.0409 39.8047 33.406 40.402 32.6805 40.893C32.3621 41.1083 32.0871 41.388 31.7954 41.6417C31.7004 41.7242 31.6145 41.8145 31.5078 41.8853C31.4228 41.9418 31.3269 42.0068 31.326 42.1324C31.1661 42.2242 31.039 42.3661 30.8634 42.4342C30.8234 42.4546 30.7835 42.475 30.7436 42.4954C30.7151 42.3468 30.7722 42.2381 30.8849 42.14C31.3657 41.7207 31.8429 41.2974 32.3187 40.8723C32.5567 40.6596 32.7927 40.4437 33.0223 40.2231C33.8466 39.4321 34.6967 38.6658 35.4758 37.8296C36.1346 37.1228 36.8003 36.4206 37.3854 35.6486C37.3967 35.6343 37.4171 35.627 37.4331 35.6162Z" fill="#383737"/>
<path d="M39.4707 47.73C39.3268 47.5208 39.3079 47.2801 39.3055 47.0389C39.3012 46.6147 39.2423 46.1986 39.1607 45.7659C38.9894 45.8082 38.8638 45.9026 38.7228 45.96C38.3918 46.0943 38.0664 46.2461 37.6932 46.2275C37.5277 46.2193 37.4097 46.1727 37.3779 45.9952C37.8027 46.0375 38.1777 45.8973 38.5317 45.68C38.9606 45.4163 39.3886 45.1518 39.8192 44.8907C39.8661 44.8625 39.9028 44.8062 39.9844 44.8193C40.0354 45.0588 39.9996 45.3085 40.047 45.5547C40.1511 46.0961 40.1202 46.652 40.1776 47.1994C40.1965 47.3792 40.1391 47.4902 39.9509 47.5403C39.7851 47.5843 39.6537 47.7236 39.4707 47.73Z" fill="#383737"/>
<path d="M30.4608 32.6589C30.0313 33.0709 29.7333 33.5668 29.4032 34.1029C29.0264 32.8751 28.9772 31.6595 28.9355 30.437C29.3938 31.2103 29.8711 31.964 30.4608 32.6589Z" fill="#FEFEFE"/>
<path d="M36.9178 17.3073C36.9633 17.3336 37.0093 17.3237 37.058 17.3149C37.2555 17.2799 37.3496 17.3577 37.3415 17.5541C37.3342 17.7231 37.2791 17.8772 37.1664 18.0069C37.0111 18.1855 36.8555 18.2315 36.6582 18.0931C36.4252 17.93 36.2439 17.9757 36.0272 18.1217C35.6647 18.3655 35.2408 18.2717 35.0406 17.9273C34.9762 17.8163 34.9145 17.6905 34.9996 17.5736C35.0864 17.4542 35.2227 17.4271 35.3667 17.4682C35.4226 17.4842 35.4771 17.5043 35.5322 17.5229C35.6283 17.5556 35.7087 17.5293 35.7524 17.4402C35.7912 17.3615 35.7615 17.2919 35.6901 17.2374C35.6365 17.1966 35.5817 17.1535 35.5412 17.1008C35.4579 16.9921 35.4276 16.8709 35.5272 16.7555C35.6158 16.6529 35.7218 16.6095 35.8634 16.6629C35.9893 16.7101 36.0712 16.7954 36.1492 16.898C36.3008 17.097 36.3762 17.0914 36.5018 16.8718C36.5615 16.7672 36.6294 16.676 36.7416 16.6291C36.8328 16.5909 36.9292 16.5644 37.0122 16.6477C37.0857 16.7214 37.0685 16.8071 37.0329 16.8913C37.0143 16.9353 36.9907 16.9772 36.9691 17.0201C36.9601 17.0233 36.9511 17.0288 36.942 17.0288C36.8342 17.0291 36.8491 16.7736 36.7305 16.8866C36.6029 17.0081 36.8028 17.0323 36.8616 17.0978C36.9164 17.1587 36.8462 17.252 36.9178 17.3073Z" fill="#FEFEFE"/>
<path d="M29.9755 34.7474C30.2587 34.9715 30.2796 35.2422 30.2033 35.5863C30.0238 36.3971 29.8918 37.2181 29.7395 38.0351C29.7255 38.1097 29.7028 38.1828 29.6655 38.2565C29.4755 37.3658 29.3051 36.4749 29.2104 35.5708C29.1629 35.4047 29.1911 35.299 29.3951 35.2797C29.5428 35.2658 29.6031 35.1282 29.6815 35.0184C29.759 34.9091 29.7867 34.7381 29.9755 34.7474Z" fill="#FEFEFE"/>
<path d="M37.0359 19.4136C36.8841 19.4797 36.7099 19.4564 36.561 19.5348C36.4753 19.5799 36.3882 19.6213 36.3183 19.6912C36.1877 19.8217 36.1851 19.8675 36.3092 20.0041C36.4057 20.1105 36.5263 20.1956 36.5983 20.3162C36.5706 20.4018 36.4948 20.4141 36.4401 20.4496C36.1627 20.6314 35.8509 20.556 35.6831 20.2687C35.654 20.2186 35.6228 20.1673 35.6071 20.1125C35.5759 20.0033 35.485 19.899 35.5334 19.7818C35.5841 19.6595 35.7245 19.7271 35.818 19.6813C35.9474 19.6181 36.0878 19.5767 36.2221 19.5228C36.2673 19.5048 36.3104 19.4742 36.3084 19.4182C36.306 19.3492 36.2559 19.3133 36.195 19.3084C35.9465 19.2883 35.7423 19.1607 35.5214 19.0634C35.2944 18.9631 35.2505 18.8201 35.2968 18.6027C35.3877 18.6027 35.4809 18.5969 35.5733 18.6039C35.8163 18.6225 36.0359 18.5657 36.2175 18.4002C36.295 18.3294 36.3515 18.3198 36.4427 18.3827C36.5528 18.4585 36.6801 18.5089 36.815 18.578C36.769 18.6724 36.6635 18.7047 36.5846 18.7627C36.4983 18.8259 36.3879 18.8754 36.4033 19.001C36.4202 19.1385 36.5423 19.1738 36.656 19.2058C36.7859 19.2422 36.9161 19.2775 37.0464 19.3133C37.0673 19.3489 37.0621 19.3821 37.0359 19.4136Z" fill="#353535"/>
<path d="M29.15 9.72312C29.1369 8.79836 29.1171 7.94469 29.2522 7.07324C29.3548 7.10908 29.3708 7.17609 29.3976 7.23057C29.6363 7.71743 29.8731 8.20516 30.1117 8.69202C30.145 8.75961 30.2082 8.82429 30.1231 8.89655C29.8163 9.1576 29.5092 9.41807 29.15 9.72312Z" fill="#CFC6BF"/>
<path d="M37.7222 19.9368C37.9731 20.0623 38.1957 20.3144 38.2531 20.5375C38.2152 20.5483 38.1587 20.5104 38.1456 20.5326C37.9906 20.7933 37.7531 20.8822 37.4647 20.8857C37.3423 20.8872 37.3711 20.983 37.3834 21.057C37.3962 21.1348 37.4131 21.2246 37.5241 21.1867C37.7519 21.1092 37.9868 21.055 38.2137 20.9769C38.381 20.9192 38.1974 20.7394 38.3011 20.6483C38.464 20.763 38.4733 20.9521 38.5482 21.1293C38.1391 21.2819 37.7347 21.4002 37.3271 21.508C37.2112 21.5386 37.1672 21.4882 37.1599 21.3796C37.1523 21.2642 37.1474 21.1476 37.129 21.0337C37.0547 20.5757 36.8327 20.2025 36.4609 19.921C36.7642 19.6541 37.1544 19.6192 37.5034 19.8199C37.3653 19.9516 37.1896 19.8695 37.0349 19.9041C36.9624 19.9204 36.8193 19.8919 36.8694 20.0274C36.9044 20.1215 37.0072 20.2943 37.1051 20.2264C37.2998 20.0915 37.4947 20.0335 37.7219 20.0352C37.7377 20.0358 37.6989 19.9711 37.7222 19.9368Z" fill="#65C385"/>
<path d="M31.3809 53.1616C31.341 53.2143 31.2836 53.2155 31.2248 53.2187C31.1117 53.2248 31.0051 53.2047 30.9518 53.0963C30.8941 52.9795 30.9783 52.8938 31.0503 52.8192C31.228 52.6354 31.4573 52.5288 31.6843 52.4236C32.0068 52.2741 32.3343 52.1348 32.6594 51.9912C32.6717 52.2899 32.6265 52.5914 32.7089 52.8871C32.7241 52.9416 32.7183 53.0115 32.6437 53.027C32.2536 53.1086 32.0001 53.4055 31.6953 53.6219C31.6327 53.6665 31.5642 53.7032 31.4984 53.7434C31.5389 53.5438 31.6828 53.4154 31.8124 53.2746C31.9188 53.1587 32.0653 53.0736 32.1329 52.8915C31.9718 52.8775 31.8684 53.0104 31.732 52.9856C31.7192 52.7939 31.9482 52.8259 32.0033 52.6707C31.7947 52.7144 31.5986 52.7662 31.4177 52.8717C31.2752 52.9541 31.2501 53.0471 31.3809 53.1616Z" fill="#383737"/>
<path d="M43.9573 48.7904C43.9104 48.7409 43.8932 48.638 43.7842 48.7164C43.2429 49.1063 42.6013 49.1625 41.9711 49.2423C41.6017 49.2892 41.2436 49.1887 40.8908 49.0862C40.889 49.0028 40.857 48.8848 41.0064 48.9227C42.0661 49.191 42.9416 48.7887 43.7618 48.1765C43.7758 48.1661 43.7973 48.1655 43.8332 48.1553C43.8973 48.3624 43.9704 48.5667 43.9573 48.7904Z" fill="#837D77"/>
<path d="M39.0694 44.8812C39.0918 44.55 38.9849 44.2353 38.9447 43.9119C38.9377 43.8548 38.8853 43.8425 38.8369 43.8332C39.121 43.6928 39.4062 43.5544 39.6891 43.411C39.7996 43.3551 39.8628 43.3997 39.8762 43.5034C39.9059 43.7321 39.9231 43.9626 39.942 44.1925C39.9476 44.2604 39.9406 44.3242 39.8683 44.3664C39.5947 44.5264 39.3742 44.7693 39.0694 44.8812Z" fill="#383737"/>
<path d="M37.6003 7.64746C37.6763 7.76663 37.6635 7.88521 37.6702 7.9968C37.6979 8.45393 37.6545 8.90699 37.5968 9.36034C37.577 9.51534 37.5239 9.60945 37.3643 9.64267C37.2818 9.65986 37.2058 9.70764 37.1015 9.75222C37.086 9.44804 37.1099 9.15639 36.9776 8.89068C36.9666 8.86824 36.9695 8.82978 36.9811 8.80618C37.172 8.4181 37.3051 7.99854 37.6003 7.64746Z" fill="#CEC5BE"/>
<path d="M31.4954 34.3357C31.487 34.3634 31.4811 34.3919 31.4698 34.4184C31.3742 34.639 31.2524 34.7258 30.9698 34.7057C30.6578 34.6836 30.4658 34.5935 30.3443 34.3205C30.3207 34.2678 30.2901 34.2186 30.2627 34.1676C30.2997 33.8587 30.5342 33.6705 30.7085 33.4473C30.7737 33.3637 30.8681 33.3751 30.9238 33.4701C31.0992 33.769 31.348 34.0187 31.4954 34.3357Z" fill="#A09F9D"/>
<path d="M31.1367 35.6249C31.0493 35.8113 31.0552 36.0165 31.0359 36.2125C31.001 36.5683 30.9235 36.9132 30.8399 37.2585C30.8267 37.3127 30.7991 37.3646 30.7402 37.4059C30.6336 37.3392 30.6318 37.2364 30.6173 37.1321C30.5902 36.9371 30.6108 36.7323 30.5068 36.5523C30.5097 36.2624 30.6208 35.9899 30.6432 35.703C30.6499 35.6173 30.6712 35.5328 30.6825 35.4474C30.7087 35.2464 30.8573 35.1575 31.0444 35.2313C31.1073 35.256 31.1298 35.3055 31.1324 35.3662C31.1362 35.4521 31.1356 35.5386 31.1367 35.6249Z" fill="#666462"/>
<path d="M38.5942 17.4111C38.5942 17.6579 38.5921 17.8968 38.5953 18.1357C38.5965 18.2258 38.565 18.2802 38.4753 18.3062C38.091 18.4163 37.7029 18.4833 37.2764 18.4323C37.3256 18.3167 37.4314 18.2747 37.4885 18.1928C37.5785 18.0635 37.6528 17.9262 37.6714 17.7698C37.6886 17.6232 37.7393 17.597 37.8789 17.6498C38.0447 17.7127 38.2008 17.6489 38.3462 17.5562C38.4156 17.5117 38.4581 17.4245 38.5942 17.4111Z" fill="#CDC4BD"/>
<path d="M37.0359 19.4139C37.0391 19.3804 37.0423 19.3469 37.0458 19.3131C37.5764 19.3959 38.1052 19.3999 38.6594 19.2656C38.7074 19.703 38.6556 20.1336 38.6716 20.5808C38.5679 20.5499 38.558 20.4663 38.5183 20.4098C38.2561 20.0342 37.9884 19.6645 37.5318 19.5005C37.4869 19.4844 37.4383 19.4789 37.3911 19.4684C37.2786 19.4078 37.1437 19.4926 37.0342 19.4131L37.0359 19.4139Z" fill="#CDC4BD"/>
<path d="M31.4957 34.3355C31.2416 34.1321 31.1009 33.8417 30.9188 33.5832C30.8862 33.5366 30.86 33.4856 30.8206 33.4198C30.5899 33.6488 30.4425 33.9206 30.263 34.1674C30.0864 33.9853 30.0689 33.9818 30.2298 33.7595C30.4157 33.5031 30.5893 33.2371 30.8221 33.0049C31.0304 33.1573 31.1554 33.3647 31.3011 33.5526C31.3894 33.6666 31.4666 33.7892 31.547 33.9093C31.6909 34.124 31.6903 34.1243 31.4957 34.3355Z" fill="#656462"/>
<path d="M26.0117 47.4474C25.929 47.2714 25.9165 47.0829 25.8926 46.9026C25.9838 46.8426 26.0368 46.9038 26.0936 46.9265C26.3704 47.0375 26.6443 47.1561 26.9225 47.2633C27.0309 47.3049 27.0667 47.3688 27.0603 47.4818C27.0522 47.6257 27.0647 47.7708 27.0618 47.9153C27.0592 48.0464 27.0175 48.0648 26.9015 47.9925C26.8019 47.9305 26.7221 47.8489 26.6609 47.7475C26.6061 47.6569 26.5519 47.5643 26.484 47.4835C26.3745 47.3527 26.32 47.374 26.2477 47.5645C26.1303 47.6036 26.084 47.4999 26.0117 47.4474Z" fill="#817B75"/>
<path d="M38.5588 18.9588C38.2814 19.1324 37.9717 19.1237 37.662 19.1216C37.3628 19.1199 37.0732 19.0669 36.7646 18.9835C36.95 18.7566 37.1137 18.6269 37.4333 18.6899C37.9272 18.7872 38.414 18.6552 38.8761 18.4626C39.1541 18.3466 39.1517 18.3417 39.3653 18.5899C39.3053 18.673 39.2211 18.7088 39.1208 18.7155C39.0911 18.6129 39.0524 18.5343 38.9218 18.6045C38.8205 18.659 38.7097 18.6963 38.5984 18.7239C38.3954 18.7746 38.4796 18.8653 38.5588 18.9588Z" fill="#65BD84"/>
<path d="M38.2997 20.6486C38.3355 20.7671 38.3716 20.8854 38.4127 21.0212C38.0462 21.09 37.7006 21.1975 37.3519 21.335C37.3169 21.1386 37.2872 20.9696 37.252 20.7709C37.6077 20.8321 37.9343 20.8318 38.1269 20.4519C38.1828 20.4367 38.1945 20.5276 38.2519 20.5376C38.2632 20.5769 38.2568 20.6235 38.2997 20.6486Z" fill="#FBFEFC"/>
<path d="M38.5999 33.8057C38.546 34.0985 38.3118 34.1451 38.0804 34.1553C37.8596 34.1649 37.6481 34.245 37.4246 34.2246C37.3535 34.2182 37.3305 34.2777 37.3197 34.338C37.1912 34.1999 37.1836 34.0122 37.0508 33.8057C37.6116 33.8057 38.1058 33.8057 38.5999 33.8057Z" fill="#383737"/>
<path d="M31.4996 45.2353C31.5998 45.4078 31.7883 45.4084 31.948 45.462C32.045 45.4946 32.1863 45.4882 32.1799 45.6252C32.1735 45.765 32.031 45.8046 31.9209 45.807C31.6686 45.8128 31.4221 45.7737 31.2304 45.58C31.1835 45.5325 31.136 45.478 31.0777 45.4518C31.0369 45.4334 31.0337 45.497 31.0223 45.5299C30.9247 45.4238 30.8883 45.3032 30.9303 45.1602C31.2091 45.395 31.2776 45.4023 31.4996 45.2353Z" fill="#393838"/>
<path d="M29.9752 34.7476C29.8362 34.8208 29.7922 34.967 29.7223 35.0897C29.6136 35.2805 29.4796 35.4122 29.2349 35.3627C29.2259 35.4399 29.218 35.5055 29.2104 35.5713C29.1113 35.3548 29.1787 35.1153 29.0977 34.8866C29.5181 35.032 29.5394 34.5973 29.7858 34.4639C29.8686 34.5329 29.9149 34.6454 29.9752 34.7476Z" fill="#A09F9D"/>
<path d="M36.5781 11.5706C36.8476 11.3288 37.1384 11.2169 37.4656 11.2714C37.6605 11.304 37.7537 11.4724 37.7817 11.6813C37.3858 11.649 36.9988 11.704 36.5781 11.5706Z" fill="#261A0E"/>
<path d="M37.7223 19.9368C37.7502 19.9846 37.7785 20.0324 37.8254 20.1128C37.532 20.0997 37.2412 20.0773 37.0924 20.4278C36.9406 20.2509 36.8086 20.0971 36.6641 19.9284C36.9499 19.7751 37.2307 19.8302 37.5032 19.82C37.5865 19.8398 37.6532 19.8908 37.7223 19.9368Z" fill="#F9FCFA"/>
<path d="M26.0117 47.4471C26.1146 47.4375 26.1731 47.5173 26.2477 47.5642C26.3019 47.6985 26.3477 47.8366 26.412 47.9657C26.505 48.1525 26.6486 48.2938 26.8406 48.3815C26.8846 48.4016 26.9339 48.4141 26.9717 48.4424C27.0414 48.4945 27.0163 48.5633 26.9822 48.623C26.9496 48.6804 26.9076 48.6518 26.861 48.6303C26.3538 48.3963 26.0662 48.0059 26.0117 47.4471Z" fill="#C6BDB7"/>
<path d="M38.5316 15.6105C38.5272 15.861 38.4255 15.9965 38.2717 15.9846C38.1219 15.9729 38.0158 15.8156 38.0319 15.6163C38.0371 15.5508 38.0569 15.4846 38.0805 15.4228C38.1181 15.3258 38.1895 15.2649 38.299 15.2687C38.4101 15.2725 38.4733 15.3389 38.4989 15.4421C38.5149 15.5068 38.5246 15.5732 38.5316 15.6105Z" fill="#F6F6F6"/>
<path d="M34.9854 18.9049C35.087 19.1309 35.1013 19.3801 35.1707 19.6152C35.2251 19.8002 35.2712 19.9867 35.3423 20.167C35.5191 20.6166 35.8877 20.9429 36.5298 20.7864C36.4089 20.9362 36.2653 20.9671 36.0943 20.9452C35.7199 20.8977 35.4737 20.6734 35.3268 20.352C35.1173 19.894 34.9687 19.415 34.9906 18.8999L34.9854 18.9049Z" fill="#AEAEAE"/>
<path d="M27.7084 34.3947C27.66 34.2962 27.5738 34.2301 27.498 34.1564C27.299 33.9626 27.1889 33.7397 27.2486 33.4551C27.3803 33.6547 27.5601 33.8108 27.7253 33.9804C27.9322 34.1928 27.9327 34.1922 27.7084 34.3947Z" fill="#363635"/>
<path d="M38.56 18.9584C38.3892 18.9313 38.3892 18.9313 38.3467 18.7382C38.5489 18.6537 38.7691 18.614 38.9641 18.5077C39.0311 18.471 39.0969 18.4293 39.166 18.5164C39.2385 18.6076 39.154 18.6534 39.122 18.7154C38.9457 18.8218 38.7598 18.9066 38.56 18.9584Z" fill="#F4FAF6"/>
<path d="M40.988 51.0005C40.988 51.078 40.9898 51.1558 40.9874 51.2333C40.9854 51.3009 40.9504 51.3402 40.8799 51.3423C40.8114 51.3443 40.764 51.3129 40.7622 51.2441C40.7584 51.0795 40.759 50.9146 40.7642 50.75C40.7666 50.68 40.8179 50.6521 40.8849 50.6556C40.9554 50.6591 40.9883 50.7004 40.9898 50.7677C40.9915 50.8452 40.99 50.923 40.99 51.0005C40.9895 51.0005 40.9886 51.0005 40.988 51.0005Z" fill="#323232"/>
<path d="M36.9174 17.3076C36.8725 17.2994 36.8565 17.2671 36.8542 17.2269C36.8501 17.1569 36.8848 17.0687 36.7426 17.1231C36.6464 17.1602 36.5849 17.0786 36.5768 16.9801C36.5675 16.8679 36.6654 16.7406 36.7665 16.7292C36.8917 16.7155 36.9366 16.7858 36.9372 16.9003C36.9372 16.9422 36.9037 16.9947 36.9687 17.0203C36.9398 17.1141 36.9002 17.2059 36.9174 17.3076Z" fill="#2D2D2D"/>
<path d="M28.8712 10.7958C28.928 10.8211 29.0347 10.6909 29.0478 10.8526C28.9289 10.9668 28.8103 11.081 28.6915 11.1952C28.6667 11.2098 28.6425 11.2252 28.6169 11.2386C28.5714 11.2625 28.5213 11.2739 28.4896 11.2243C28.4668 11.1888 28.4904 11.1506 28.5199 11.1235C28.5767 11.0717 28.6332 11.0198 28.6932 10.972C28.7602 10.9187 28.8433 10.8832 28.8738 10.7934L28.8712 10.7958Z" fill="#957351"/>
<path d="M31.1427 44.8713C31.1474 44.806 31.1383 44.7285 31.2269 44.7136C31.3047 44.7008 31.4314 44.8576 31.4265 44.9601C31.4224 45.0446 31.3819 45.1093 31.289 45.1107C31.1989 45.1128 31.1395 45.0096 31.1427 44.8713Z" fill="#4F4F4F"/>
<path d="M35.3824 19.2518C35.4814 19.2463 35.5339 19.3124 35.6026 19.3409C35.6728 19.3698 35.7416 19.4027 35.8305 19.4423C35.7375 19.5297 35.6248 19.5286 35.5242 19.556C35.4654 19.572 35.4319 19.5367 35.4147 19.491C35.3882 19.4211 35.3526 19.3509 35.3824 19.2518Z" fill="#63A57A"/>
<path d="M34.9907 18.9006C34.9082 18.7234 34.9298 18.5378 34.951 18.3525C35.0344 18.5317 34.9781 18.7205 34.986 18.9052C34.9857 18.9052 34.9907 18.9006 34.9907 18.9006Z" fill="#C2C2C2"/>
<path d="M37.0342 19.413C37.1548 19.4209 37.2818 19.3859 37.3911 19.4683C37.2681 19.4742 37.1402 19.5144 37.0342 19.413Z" fill="#353535"/>
<path d="M39.5361 20.0401C39.8356 19.8504 40.1072 19.6826 40.3738 19.5075C40.4591 19.4515 40.5198 19.4419 40.5999 19.5194C41.0515 19.9558 41.5485 20.3454 41.9101 20.8719C42.1572 21.2317 42.2964 21.6288 42.3853 22.0472C42.429 22.2538 42.3993 22.2733 42.1857 22.2849C41.6642 22.3138 41.143 22.3499 40.6211 22.3718C40.3569 22.3828 40.3441 22.3706 40.3685 22.0976C40.4207 21.5181 40.2645 21.0082 39.9041 20.554C39.778 20.3961 39.6681 20.2259 39.5361 20.0401Z" fill="#66C286"/>
<path d="M45.4749 24.0797C45.4685 24.1426 45.4737 24.184 45.4598 24.2175C45.2395 24.7378 44.9834 25.2349 44.5834 25.6472C44.477 25.7567 44.3721 25.7218 44.2632 25.7025C43.4415 25.5574 42.7417 25.1947 42.2056 24.5418C42.0089 24.3023 41.8222 24.0567 41.666 23.8011C41.6978 23.7216 41.7528 23.7397 41.7963 23.7408C42.3577 23.7577 42.8947 23.6359 43.4191 23.4501C43.5496 23.4037 43.6333 23.4017 43.7378 23.5255C44.0505 23.8958 44.4817 24.0371 44.9496 24.0776C45.1122 24.0913 45.2777 24.0797 45.4749 24.0797Z" fill="#64C385"/>
<path d="M46.1309 22.8368C46.4149 22.4848 46.6748 22.1632 46.9338 21.8406C46.9877 21.7733 47.0594 21.7605 47.1398 21.7547C47.9029 21.7016 48.5984 21.8948 49.2277 22.3263C49.3707 22.4242 49.5042 22.5361 49.6571 22.6532C49.383 23.0387 49.1143 23.416 48.8469 23.7936C48.7752 23.8947 48.7094 23.9023 48.6132 23.8128C47.9288 23.1765 47.0932 22.9146 46.1309 22.8368Z" fill="#64C285"/>
<path d="M44.1987 19.8321C44.2339 19.8691 44.2689 19.9058 44.3041 19.9428C44.3601 19.9917 44.3848 20.0634 44.4329 20.1182L44.4314 20.1164C44.6535 20.4189 44.976 20.5689 45.3122 20.6974C45.603 20.8087 45.6138 20.858 45.3964 21.0902C45.2834 21.2111 45.1543 21.3128 45.0223 21.4112C44.6316 21.7026 44.5477 21.7166 44.2022 21.385C44.0253 21.2154 43.7782 21.0692 43.7765 20.7685C43.8948 20.6962 43.9991 20.7953 44.1118 20.7968C44.2695 20.7988 44.4221 20.7717 44.4446 20.5917C44.4673 20.4093 44.3379 20.3032 44.1724 20.27C43.9965 20.2347 43.8712 20.3117 43.826 20.4952C43.8039 20.5849 43.8726 20.6913 43.7759 20.7676C43.6859 20.7758 43.625 20.7222 43.588 20.6552C43.4289 20.367 43.2229 20.1118 43.0268 19.8504C42.9237 19.7129 42.9881 19.6514 43.1151 19.6348C43.3528 19.604 43.5891 19.5553 43.8295 19.548C44.027 19.5419 44.0976 19.7086 44.1987 19.8321Z" fill="#FEFFFE"/>
<path d="M43.7878 20.7551C43.9475 21.0994 44.2249 21.3349 44.5235 21.5508C44.5885 21.5977 44.6505 21.5802 44.712 21.5397C45.0028 21.3474 45.2755 21.1344 45.5298 20.8602C45.3204 20.7743 45.1289 20.7134 44.9553 20.6196C44.7377 20.5022 44.5089 20.3845 44.4303 20.117C44.5894 20.1887 44.7021 20.3256 44.8562 20.4089C45.1403 20.5628 45.4375 20.6677 45.7728 20.716C45.7102 20.9013 45.5718 21.0106 45.4576 21.1376C45.2676 21.3488 45.036 21.5073 44.8009 21.6621C44.6937 21.7326 44.5984 21.7317 44.4815 21.6638C44.0757 21.4281 43.7779 21.091 43.5381 20.6968C43.3065 20.316 43.083 19.9297 42.6836 19.6179C42.9822 19.5727 43.241 19.6042 43.4898 19.5486C43.5556 19.534 43.625 19.5363 43.692 19.5276C44.0244 19.4836 44.0387 19.492 44.1975 19.8326C43.9099 19.5652 43.909 19.5602 43.5128 19.6269C43.3429 19.6555 43.1643 19.6395 42.9633 19.7362C43.303 20.0389 43.4557 20.4687 43.7916 20.7594L43.7878 20.7551Z" fill="#67BF85"/>
<path d="M44.4322 20.1188C44.3416 20.0954 44.3122 20.027 44.3037 19.9434C44.3792 19.9777 44.4319 20.029 44.4322 20.1188Z" fill="#67BF85"/>
<path d="M47.1418 15.4434C47.3886 15.8664 47.7298 16.1694 48.0141 16.5214C48.096 16.6228 48.1024 16.7017 48.0191 16.8005C47.6254 17.2664 47.2426 17.7427 46.7453 18.1072C46.4536 18.3211 46.111 18.3866 45.7643 18.4248C45.6203 18.4405 45.4761 18.451 45.3336 18.4796C45.2465 18.4971 45.1807 18.4842 45.1789 18.3715C45.1702 17.868 45.1588 17.3646 45.1495 16.8611C45.148 16.7877 45.1635 16.7277 45.2602 16.7294C45.8085 16.7387 46.1995 16.415 46.5868 16.0913C46.7942 15.9174 46.951 15.6931 47.1418 15.4434Z" fill="#66C285"/>
<path d="M42.4222 15.7988C42.6973 16.0634 42.9452 16.3081 43.1999 16.5456C43.4598 16.788 43.4644 16.7859 43.2637 17.0825C43.155 17.2431 43.0367 17.3975 42.9274 17.5577C42.6504 17.9633 42.2591 18.1606 41.7775 18.2037C41.6233 18.2174 41.471 18.2515 41.3171 18.2727C41.2405 18.2832 41.1627 18.2934 41.0858 18.2908C40.8209 18.2821 40.8116 18.2701 40.8096 18.0096C40.8075 17.7474 40.8067 17.4852 40.8029 17.2233C40.8014 17.1283 40.8084 17.054 40.9352 17.0473C41.623 17.0123 42.0656 16.6426 42.3194 16.02C42.3447 15.9576 42.3762 15.8976 42.4222 15.7988Z" fill="#65C185"/>
<path d="M46.7559 19.1287C47.0671 19.0579 47.3818 19.0448 47.6991 19.0698C47.734 19.1333 47.7122 19.2012 47.7148 19.2671C47.7247 19.5072 47.868 19.6942 48.0732 19.7248C48.2923 19.7574 48.3759 19.6045 48.4455 19.4381C48.4604 19.4026 48.4776 19.3688 48.509 19.3446C48.7683 19.457 48.9743 19.6281 49.104 19.8839C49.1022 19.9847 49.2371 20.082 49.1386 20.1767C49.0509 20.2609 48.9353 20.1977 48.8356 20.1677C48.3668 20.0252 47.8849 19.9858 47.4001 20.006C47.1583 20.0159 47.0065 19.9261 46.929 19.7108C46.8599 19.5206 46.6499 19.3705 46.7559 19.1287Z" fill="#FDFEFE"/>
<path d="M46.7559 19.1287C46.8078 19.3888 46.9532 19.6056 47.0767 19.8334C47.1426 19.9549 47.248 19.9401 47.352 19.9351C47.8165 19.913 48.2759 19.9465 48.7284 20.0572C48.8496 20.0869 48.9699 20.1193 49.0978 20.1525C49.1727 20.0657 49.0643 19.971 49.1037 19.8838C49.2255 20.0534 49.2869 20.2335 49.2074 20.4651C48.923 20.3054 48.6509 20.1548 48.3383 20.1283C47.9916 20.0986 47.6446 20.0415 47.2967 20.07C47.1032 20.086 46.9922 20.0339 46.9176 19.8498C46.8381 19.6534 46.7283 19.469 46.6283 19.281C46.543 19.1199 46.6522 19.1281 46.7559 19.1287Z" fill="#65C084"/>
<path d="M48.5088 19.3446C48.5009 19.4477 48.5172 19.5523 48.4432 19.6453C48.3174 19.8032 48.1819 19.8492 47.9899 19.7839C47.7769 19.7114 47.6356 19.5235 47.6309 19.3154C47.6289 19.2251 47.6682 19.1494 47.6985 19.0698C47.9995 19.0707 48.2675 19.168 48.5088 19.3446Z" fill="#65C486"/>
<path d="M32.1256 17.9643C31.533 17.9672 31.0493 17.6642 30.6869 17.1724C30.2603 16.5937 30.0852 15.9402 30.2166 15.2206C30.2306 15.1445 30.2504 15.0685 30.2781 14.9965C30.3638 14.7734 30.4322 14.7235 30.6755 14.7527C30.945 14.785 31.2183 14.8153 31.4785 14.8873C32.3476 15.1279 33.229 15.3255 34.0806 15.6273C34.1901 15.6661 34.2988 15.7095 34.402 15.7625C34.4812 15.8033 34.5497 15.8674 34.5185 15.9717C34.4888 16.0719 34.4031 16.1121 34.3122 16.0891C34.1173 16.0396 34.0949 16.1576 34.0634 16.3012C33.9358 16.8845 33.6433 17.3612 33.1331 17.6895C32.84 17.8786 32.5201 17.9768 32.1256 17.9643Z" fill="black"/>
<path d="M39.5876 36.4244C39.4096 36.3976 39.4233 36.2522 39.4235 36.1336C39.4241 35.8536 39.3909 35.5719 39.4687 35.2945C39.4914 35.2132 39.4754 35.1208 39.4772 35.0337C39.5616 34.8851 39.5477 34.7138 39.5809 34.5544C39.7796 33.5938 40.1717 32.716 40.6825 31.8856C40.8366 31.6351 41.0432 31.4299 41.2626 31.2388C41.4179 31.1036 41.5933 31.0008 41.8124 31.0104C41.8704 31.013 41.9298 31.0092 41.9811 31.0427C42.0391 31.0806 42.0953 31.1252 42.0839 31.2036C42.0717 31.2875 42.0061 31.3125 41.933 31.3026C41.736 31.2764 41.6026 31.3918 41.4715 31.5066C41.2206 31.7265 41.0388 31.9995 40.8783 32.2897C40.3279 33.2841 40.0214 34.3581 39.8297 35.4705C39.7732 35.7947 39.7076 36.1164 39.5876 36.4244Z" fill="#010101"/>
<path d="M40.8183 41.2124C40.7725 41.0921 40.6368 41.0761 40.5604 40.9878C40.4596 40.8709 40.3206 40.7658 40.3775 40.5921C40.445 40.385 40.5995 40.2439 40.8218 40.227C41.0426 40.2099 41.2716 40.197 41.4872 40.2361C41.7095 40.2763 41.9286 40.2789 42.1498 40.2772C42.3097 40.276 42.4569 40.3159 42.5955 40.3844C42.9114 40.54 42.9376 40.8741 42.6547 41.0787C42.5807 41.1323 42.4618 41.1372 42.4537 41.2628C42.428 41.3054 42.3922 41.3438 42.3456 41.3517C41.8243 41.4405 41.3045 41.5061 40.8183 41.2124Z" fill="#383737"/>
<path d="M40.8191 41.2124C40.8771 41.2159 40.9398 41.2063 40.9922 41.2249C41.4761 41.3977 41.9642 41.3511 42.4542 41.2625C42.6183 41.2782 42.7858 41.2471 42.9469 41.2917C43.009 41.3088 43.0841 41.3298 43.0853 41.4181C43.0862 41.4842 43.041 41.5256 42.9892 41.5533C42.8691 41.6168 42.7465 41.6751 42.6247 41.7354C42.1888 41.953 41.7378 41.9842 41.2684 41.8604C41.0205 41.7948 40.8223 41.6765 40.7084 41.4394C40.6965 41.3394 40.7291 41.2619 40.8191 41.2124Z" fill="#010101"/>
<path d="M30.8637 42.4351C30.9756 42.2696 31.0906 42.1091 31.3264 42.1333C31.6256 42.2723 31.6075 42.5196 31.5481 42.7813C31.5032 43.0117 31.3919 43.1321 31.1437 43.0248C30.8803 42.9089 30.8171 42.6982 30.8637 42.4351Z" fill="#020202"/>
<path d="M40.708 41.4385C41.1028 41.8405 41.5894 41.9038 42.1155 41.8187C42.2851 41.7913 42.4544 41.7628 42.624 41.7345C42.4998 41.9192 42.2941 41.9801 42.1027 42.0084C41.7502 42.0605 41.3875 42.0646 41.0556 41.9006C40.8709 41.8094 40.7284 41.6646 40.708 41.4385Z" fill="#373737"/>
<path d="M31.1436 43.0248C31.3463 43.0569 31.4573 42.936 31.548 42.7812C31.6021 42.8995 31.7266 42.9194 31.8236 42.9779C31.8865 43.0161 31.9786 43.0382 31.9454 43.1437C31.9177 43.2317 31.8425 43.2495 31.7606 43.2509C31.5255 43.2553 31.2933 43.2524 31.1436 43.0248Z" fill="#393838"/>
<path d="M31.0841 58.1621C31.1226 58.1644 31.1613 58.1665 31.1998 58.1688C31.2913 58.1746 31.3152 58.2143 31.2793 58.3022C31.238 58.4042 31.1619 58.48 31.0943 58.5598C30.7948 58.9138 30.4877 59.2634 30.0789 59.4968C29.8715 59.6154 29.6527 59.7293 29.3986 59.6241C29.3028 59.4805 29.3369 59.3605 29.4843 59.2885C29.9167 59.0776 30.2491 58.7372 30.6136 58.4377C30.7549 58.3221 30.9014 58.2102 31.0841 58.1621Z" fill="#010101"/>
<path d="M31.3818 53.161C31.2958 53.1575 31.1941 53.1706 31.1676 53.0605C31.1463 52.9719 31.225 52.9204 31.2845 52.8761C31.5228 52.6995 31.8031 52.6305 32.0883 52.5798C32.1116 52.5757 32.1501 52.5908 32.1629 52.6098C32.1879 52.6468 32.1664 52.6861 32.134 52.7088C32.0012 52.8024 31.8663 52.893 31.732 52.9845C31.6154 53.0436 31.4986 53.1025 31.3818 53.161Z" fill="#030202"/>
<path d="M33.2554 8.75996C33.2942 8.75996 33.3341 8.75442 33.3714 8.76113C33.4652 8.77802 33.6027 8.7821 33.6045 8.8902C33.6068 9.01752 33.4623 8.98052 33.3754 9.0015C33.161 9.05307 32.9294 9.04432 32.7403 9.18505C32.689 9.22322 32.6316 9.22992 32.585 9.17543C32.5369 9.11891 32.5649 9.0653 32.6039 9.01956C32.775 8.81911 33.0054 8.76346 33.2554 8.75996Z" fill="#A07C57"/>
<path d="M38.5836 10.8806C38.4929 10.8978 38.4533 10.8494 38.414 10.8107C38.254 10.6528 38.0804 10.5173 37.8651 10.4421C37.7998 10.4194 37.7252 10.3853 37.75 10.3029C37.7803 10.202 37.8639 10.2195 37.9417 10.2504C38.0329 10.2868 38.1031 10.286 38.2004 10.2224C38.3108 10.1502 38.4064 10.2417 38.5063 10.471C38.4589 10.5263 38.4006 10.4395 38.3382 10.4826C38.4221 10.6134 38.5754 10.6939 38.5836 10.8806Z" fill="#9C7854"/>
<path d="M35.2371 8.09526C34.9204 7.88344 34.5699 7.72699 34.2823 7.47321C34.2643 7.45719 34.2512 7.42019 34.2558 7.39688C34.2652 7.34997 34.3103 7.35085 34.3476 7.35463C34.3759 7.35755 34.4068 7.36279 34.4304 7.37707C34.7418 7.56587 35.025 7.7873 35.2371 8.09526Z" fill="#9C7854"/>
<path d="M35.4601 8.00177C35.2806 7.96098 35.2084 7.8523 35.1332 7.74916C35.1172 7.72731 35.1157 7.68944 35.1472 7.67662C35.169 7.66758 35.2072 7.66671 35.2235 7.68011C35.3165 7.75645 35.4193 7.82696 35.4601 8.00177Z" fill="#9C7955"/>
<path d="M33.393 8.53422C33.187 8.6493 33.187 8.6493 32.9443 8.6158C33.0472 8.50042 33.0472 8.50042 33.393 8.53422Z" fill="#987552"/>
<path d="M35.9214 59.4531C36.2122 59.609 36.5408 59.6649 36.8394 59.8016C37.1564 59.9467 37.4842 60.0693 37.7779 60.2611C37.8793 60.3275 38.0489 60.3957 37.9868 60.5288C37.9125 60.6882 37.7607 60.5579 37.659 60.5148C37.4274 60.4161 37.2057 60.294 36.9805 60.1804C36.6515 60.0143 36.32 59.8552 35.9727 59.7288C35.859 59.6874 35.7326 59.651 35.6562 59.5443C35.7209 59.4158 35.8308 59.4671 35.9208 59.4534L35.9214 59.4531Z" fill="#020202"/>
<path d="M31.3891 58.9673C31.2909 59.2342 31.1904 59.4119 30.9981 59.5229C30.92 59.5681 30.8277 59.6027 30.763 59.5203C30.7009 59.441 30.7423 59.3568 30.8078 59.2886C30.9518 59.1392 31.1382 59.0684 31.3891 58.9673Z" fill="#030303"/>
<path d="M28.751 12.0142C28.9045 11.9705 28.9517 11.78 29.1097 11.7441C29.1665 11.7963 29.1353 11.8371 29.1035 11.872C28.862 12.1357 28.6018 12.3773 28.302 12.576C28.2068 12.6392 28.1153 12.6704 28.0051 12.6564C27.9777 12.6261 27.9533 12.5809 27.9874 12.5553C28.2371 12.3679 28.4468 12.1238 28.751 12.0142Z" fill="#050403"/>
<path d="M28.1797 12.0397C28.4515 11.7512 28.6998 11.475 29.0916 11.3037C29.0876 11.4902 28.9792 11.5592 28.8816 11.6184C28.6919 11.7335 28.4877 11.8235 28.379 12.0385C28.353 12.0901 28.2796 12.0895 28.1797 12.0397Z" fill="#9B7754"/>
<path d="M28.8749 10.7934C28.7464 10.7872 28.6759 10.9367 28.4746 10.9338C28.7596 10.6372 29.0669 10.4758 29.3516 10.2832C29.2613 10.5247 28.997 10.5923 28.872 10.7957C28.8717 10.796 28.8749 10.7934 28.8749 10.7934Z" fill="#957350"/>
<path d="M28.7511 12.014C28.5305 12.1821 28.3103 12.3508 28.0885 12.5177C28.0408 12.5536 27.997 12.5879 28.0052 12.6558C27.9729 12.7027 27.9329 12.7167 27.8858 12.6785C27.8508 12.6503 27.8479 12.6133 27.8729 12.5774C27.8892 12.5541 27.9091 12.5314 27.9318 12.5148C28.1727 12.3403 28.414 12.1663 28.6564 11.9942C28.6899 11.9706 28.7281 11.9679 28.7511 12.014Z" fill="#806245"/>
<path d="M36.0385 17.091C36.0371 17.1775 35.9794 17.2134 35.8908 17.2136C35.746 17.2145 35.6181 17.0994 35.6242 16.9718C35.6289 16.8693 35.6895 16.8145 35.7874 16.8092C35.9001 16.8034 36.0356 16.9546 36.0385 17.091Z" fill="#111111"/>
<path d="M37.4002 18.7689C37.4827 18.7732 37.5587 18.7759 37.6348 18.782C37.7085 18.7878 37.7225 18.8385 37.7236 18.902C37.7251 18.9696 37.7012 19.0125 37.6301 19.0162C37.4576 19.0256 37.2869 19.0194 37.1229 18.9545C37.0859 18.9399 37.0471 18.9207 37.0602 18.8764C37.0701 18.8432 37.0955 18.8047 37.1249 18.7893C37.2138 18.7435 37.312 18.7741 37.4002 18.7689Z" fill="#F7FCF8"/>
<path d="M42.2713 22.105C41.8914 22.0846 41.547 22.1272 41.202 22.1615C41.0386 22.1779 40.8743 22.1846 40.7117 22.2067C40.5721 22.2256 40.5112 22.1787 40.5238 22.036C40.5654 21.5602 40.3793 21.1456 40.1689 20.7386C40.0486 20.5055 39.8563 20.3231 39.7021 20.0976C39.9169 19.9035 40.1913 19.8155 40.4084 19.6422C40.4693 19.5935 40.515 19.6305 40.5584 19.6737C40.9789 20.088 41.4241 20.4769 41.7996 20.9361C42.0735 21.2703 42.1638 21.67 42.2713 22.105Z" fill="white"/>
<path d="M42.0273 23.9745C42.5862 24.0164 43.0424 23.8611 43.4899 23.6735C43.573 23.6385 43.6304 23.6481 43.6971 23.7093C44.0511 24.0336 44.4864 24.1901 44.9424 24.3019C45.16 24.3553 45.1553 24.3547 45.0685 24.5644C44.9526 24.8453 44.7772 25.0886 44.6012 25.3322C44.5423 25.4135 44.4774 25.4321 44.3771 25.4158C43.4664 25.2675 42.7275 24.824 42.1343 24.1254C42.1104 24.0968 42.0909 24.0642 42.0273 23.9745Z" fill="#FEFFFE"/>
<path d="M48.1569 22.0971C48.5913 22.1469 48.9343 22.3646 49.2317 22.6731C49.3057 22.75 49.281 22.8005 49.2364 22.8727C49.0691 23.1451 48.8754 23.3983 48.677 23.6696C48.0675 23.0802 47.3735 22.7014 46.4775 22.7165C46.6375 22.4488 46.8315 22.2396 47.0087 22.0185C47.0288 21.9934 47.0777 21.9794 47.1127 21.9806C47.4652 21.9922 47.8271 21.9275 48.161 22.1009C48.059 22.2 47.9224 22.1501 47.8052 22.1836C47.6409 22.2306 47.4649 22.3031 47.5203 22.5073C47.5736 22.7037 47.7653 22.7349 47.9471 22.7078C48.1435 22.6787 48.2566 22.5135 48.2169 22.3389C48.1989 22.2582 48.1182 22.1927 48.1569 22.0971Z" fill="#FEFFFE"/>
<path d="M43.7929 20.7591C43.7877 20.7311 43.7842 20.7026 43.7766 20.6752C43.7069 20.4208 43.7999 20.2384 44.0251 20.1883C44.2512 20.1379 44.5047 20.3145 44.5364 20.5447C44.5589 20.7061 44.4345 20.8468 44.2503 20.8809C44.0741 20.9135 43.9351 20.8232 43.7885 20.7547C43.7888 20.7547 43.7929 20.7591 43.7929 20.7591Z" fill="#67C587"/>
<path d="M45.2588 17.9662C45.3156 17.6553 45.3077 17.3535 45.3147 17.0531C45.3176 16.9281 45.3491 16.8526 45.4791 16.8238C45.5732 16.8031 45.6623 16.76 45.755 16.7323C46.2337 16.5884 46.6273 16.318 46.9565 15.9448C47.12 15.7595 47.1299 15.7597 47.2738 15.9509C47.4492 16.1831 47.6022 16.4322 47.802 16.6458C47.8556 16.7032 47.8772 16.7594 47.8251 16.8249C47.3458 17.4269 46.8659 18.0277 46.0813 18.2587C45.8934 18.3141 45.6979 18.3173 45.5076 18.3543C45.3651 18.3819 45.2844 18.3449 45.2844 18.1847C45.2844 18.1078 45.2669 18.0309 45.2588 17.9662Z" fill="#FEFFFF"/>
<path d="M41.7858 16.9497C41.8032 16.8658 41.8743 16.827 41.9303 16.7743C42.1351 16.5817 42.3411 16.3897 42.4818 16.1182C42.7062 16.3332 42.92 16.5415 43.1382 16.7455C43.2271 16.8288 43.221 16.9048 43.1566 16.9998C42.9934 17.2411 42.8233 17.4776 42.6284 17.6932C42.3822 17.9654 42.0558 18.0828 41.6992 18.1242C41.4973 18.1478 41.2922 18.1338 41.0912 18.1763C41 18.1955 40.9472 18.1588 40.942 18.0545C40.9292 17.8031 40.9432 17.5505 40.8986 17.3005C40.8791 17.1906 40.9551 17.1557 41.0553 17.1379C41.2843 17.0974 41.5125 17.0493 41.7179 16.9313C41.7502 17.0345 41.6946 17.119 41.6576 17.207C41.627 17.2801 41.6069 17.3558 41.6319 17.4325C41.6922 17.6178 41.8018 17.7742 42.0054 17.7903C42.1887 17.8045 42.2843 17.6629 42.3041 17.4969C42.3283 17.2932 42.2744 17.1117 42.0655 17.0164C41.9766 16.9756 41.8714 17.0021 41.7858 16.9497Z" fill="#FEFFFE"/>
<path d="M41.7851 16.9496C41.9905 16.8803 42.1697 16.9082 42.2987 17.0979C42.4179 17.2733 42.4205 17.5463 42.3107 17.7048C42.1767 17.8977 41.9701 17.9356 41.7816 17.798C41.582 17.6524 41.4343 17.3523 41.6371 17.0851C41.6714 17.0399 41.6904 16.9831 41.7169 16.9315C41.7396 16.9371 41.7623 16.9432 41.7851 16.9496Z" fill="#65C586"/>
<path d="M33.4317 16.2038C33.4355 16.4386 33.2645 16.6306 33.0501 16.6327C32.8412 16.6347 32.6658 16.4608 32.6594 16.2455C32.6524 16.0159 32.8531 15.8093 33.0777 15.8146C33.2709 15.8189 33.4282 15.992 33.4317 16.2038Z" fill="#FBFBFB"/>
<path d="M42.6518 40.7342C42.5335 40.9119 42.3354 40.9428 42.1533 40.971C41.9744 40.999 41.7882 40.9809 41.6049 40.9795C41.4831 40.9786 41.3957 40.9297 41.4027 40.7921C41.4089 40.6704 41.4945 40.631 41.6017 40.631C41.8811 40.6304 42.1606 40.6313 42.44 40.6351C42.5163 40.636 42.5918 40.6505 42.6518 40.7342Z" fill="#010101"/>
<path d="M31.2505 42.396C31.3318 42.4138 31.349 42.4834 31.3539 42.5463C31.3589 42.6122 31.3385 42.6941 31.2613 42.6996C31.1651 42.7063 31.1374 42.6279 31.1421 42.5434C31.1462 42.4738 31.1721 42.4155 31.2505 42.396Z" fill="#4F4F4F"/>
<path d="M40.9494 21.2955C40.8955 21.2955 40.8663 21.2976 40.8375 21.2953C40.5939 21.2763 40.4278 21.1347 40.4147 20.9354C40.4031 20.7592 40.5479 20.5887 40.7705 20.5374C40.9424 20.4978 41.1172 20.4879 41.2745 20.596C41.5169 20.7624 41.5192 21.0176 41.2792 21.1924C41.1743 21.2687 41.0563 21.3078 40.9494 21.2955Z" fill="#65C586"/>
<path d="M43.5534 25.0178C43.2404 25.0128 43.0653 24.7349 43.1982 24.4531C43.3083 24.2198 43.6108 24.0473 43.8634 24.0752C44.0195 24.0924 44.1343 24.1691 44.1967 24.3162C44.2596 24.4645 44.2319 24.5953 44.1256 24.7168C43.9706 24.8934 43.7363 25.0207 43.5534 25.0178Z" fill="#65C486"/>
<path d="M48.1565 22.0971C48.1603 22.1058 48.1626 22.1157 48.1685 22.1233C48.3605 22.3762 48.364 22.5455 48.1801 22.6955C47.9875 22.8528 47.6627 22.833 47.4931 22.6536C47.3894 22.5437 47.3798 22.4097 47.4756 22.2891C47.5692 22.1711 47.6941 22.0982 47.8451 22.0895C47.95 22.0834 48.0557 22.0965 48.1612 22.1011C48.1609 22.1011 48.1565 22.0971 48.1565 22.0971Z" fill="#66C587"/>
<path d="M46.8944 17.2044C46.902 17.3388 46.8754 17.4795 46.7982 17.6091C46.682 17.8041 46.5133 17.888 46.3123 17.8489C46.1304 17.8137 45.974 17.6458 45.9478 17.4416C45.914 17.1785 45.9836 16.939 46.15 16.7336C46.3507 16.486 46.6575 16.5177 46.8207 16.7951C46.8932 16.9186 46.895 17.0535 46.8944 17.2044Z" fill="#65C486"/>
</g>
<defs>
<clipPath id="clip0_12951_2589">
<rect width="74" height="62" fill="white"/>
</clipPath>
</defs>
</svg>
